<?xml version="1.0" encoding="utf-8"?>
<!-- Generator: Adobe Illustrator 19.2.1, SVG Export Plug-In . SVG Version: 6.00 Build 0)  -->
<svg version="1.1" id="Layer_1" xmlns="http://www.w3.org/2000/svg" xmlns:xlink="http://www.w3.org/1999/xlink" x="0px" y="0px"
	 viewBox="0 0 216 216" style="enable-background:new 0 0 216 216;" xml:space="preserve">
<style type="text/css">
	.st0{fill:#2D2D2D;}
</style>
<g>
	<path class="st0" d="M176.9,132.2H39.2c-2.2,0-4,1.8-4,4v21.4c0,2.2,1.8,4,4,4h137.7c2.2,0,4-1.8,4-4v-21.4
		C180.9,134,179.1,132.2,176.9,132.2z M68.3,150.4h-21v-6.3h21V150.4z M146.9,151.1c-2.4,0-4.3-1.9-4.3-4.3s1.9-4.3,4.3-4.3
		s4.3,1.9,4.3,4.3S149.3,151.1,146.9,151.1z M164.5,151.1c-2.4,0-4.3-1.9-4.3-4.3s1.9-4.3,4.3-4.3s4.3,1.9,4.3,4.3
		S166.9,151.1,164.5,151.1z"/>
</g>
<g>
	<path class="st0" d="M128.8,99.6c1.6,0.2,3-0.9,3.2-2.5c0.1-0.8-0.1-1.5-0.6-2.1c-0.5-0.6-1.1-1-1.9-1.1c-1.6-0.2-3.1,1-3.2,2.5
		C126.1,98,127.1,99.4,128.8,99.6z"/>
	<path class="st0" d="M107.6,78c0.8,0.1,1.5-0.1,2.1-0.6c0.6-0.5,1-1.1,1.1-1.9c0.1-0.8-0.1-1.5-0.6-2.1c-0.5-0.6-1.1-1-1.9-1.1
		c-1.6-0.2-3,1-3.2,2.5C104.9,76.4,106.1,77.8,107.6,78z"/>
	<path class="st0" d="M86.8,99.6c0.8,0.1,1.5-0.1,2.1-0.6c0.6-0.5,1-1.1,1.1-1.9c0.1-0.8-0.1-1.5-0.6-2.1c-0.5-0.6-1.1-1-1.9-1.1
		c-0.8-0.1-1.5,0.1-2.1,0.6c-0.6,0.5-1,1.1-1.1,1.9C84.1,98,85.2,99.4,86.8,99.6z"/>
	<path class="st0" d="M73.1,117h11.8v-12.7c-3.6-1.1-6-4.7-5.6-8.6c0.3-2.1,1.3-4,3-5.3c1.7-1.3,3.8-1.9,5.9-1.6s4,1.3,5.3,3
		c1.3,1.7,1.9,3.8,1.6,5.9c-0.3,3.3-2.6,5.8-5.5,6.7V117h16V82.8c-3.6-1.1-5.9-4.7-5.5-8.6c0.5-4.4,4.5-7.5,8.9-7
		c2.1,0.3,4,1.3,5.3,3c1.3,1.7,1.9,3.8,1.6,5.9c-0.3,2.1-1.3,4-3,5.3c-0.7,0.7-1.6,1.1-2.5,1.4V117h16.2v-12.6
		c-1.5-0.5-2.8-1.4-3.8-2.7c-1.3-1.7-1.9-3.8-1.6-5.9c0.5-4.4,4.5-7.5,8.9-7c2.1,0.3,4,1.3,5.3,3s1.9,3.8,1.6,5.9
		c-0.4,3.3-2.7,5.9-5.7,6.8V117h11.9c10.6,0,19.4-8.7,19.4-19.4c0-9.1-6.3-16.8-14.8-18.9c0.2-1.4,0.3-2.9,0.3-4.4
		c0-16.1-13.1-29.2-29.2-29.2c-10.9,0-20.4,6-25.4,14.9c-2.3-0.9-4.7-1.4-7.3-1.4c-10.7,0-19.4,8.7-19.4,19.4c0,0.4,0,0.8,0,1.1
		c-7.5,2.7-13.1,10-13.1,18.5C53.6,108.3,62.3,117,73.1,117z"/>
</g>
</svg>
