<?xml version="1.0" encoding="UTF-8" standalone="no"?>
<svg width="16px" height="16px" viewBox="0 0 16 16" version="1.1" xmlns="http://www.w3.org/2000/svg" xmlns:xlink="http://www.w3.org/1999/xlink" xmlns:sketch="http://www.bohemiancoding.com/sketch/ns">
    <title>003 User2</title>
    <description>Created with Sketch (http://www.bohemiancoding.com/sketch)</description>
    <defs></defs>
    <g id="Icons with numbers" stroke="none" stroke-width="1" fill="none" fill-rule="evenodd">
        <g id="Group" transform="translate(-96.000000, 0.000000)" fill="#000000">
            <path d="M103,8.73468778 C102.400262,8.38972905 102,7.74300738 102,7.00208688 L102,4.99791312 C102,3.89826062 102.895431,3 104,3 C105.11227,3 106,3.89449617 106,4.99791312 L106,7.00208688 C106,7.73907437 105.597801,8.38560296 105,8.73189155 L105,10 L106.5,10 C107.400556,10 107.895612,10.4055009 107.985167,11.2165026 C107.111058,12.3426679 105.719917,12.999965 104,13 C102.280157,13 100.888965,12.3426978 100.014833,11.2165026 C100.104388,10.4055009 100.599444,10 101.5,10 L103,10 Z M104,14 C107.313709,14 110,11.3137087 110,8 C110,4.68629134 107.313709,2 104,2 C100.686291,2 98,4.68629134 98,8 C98,11.3137087 100.686291,14 104,14 Z M104,16 C99.5817218,16 96,12.4182782 96,8 C96,3.58172178 99.5817218,0 104,0 C108.418278,0 112,3.58172178 112,8 C112,12.4182782 108.418278,16 104,16 Z M104,16" id="Oval 255"></path>
        </g>
    </g>
</svg>