<?xml version="1.0" encoding="UTF-8" standalone="no"?>
<svg width="16px" height="16px" viewBox="0 0 16 16" version="1.1" xmlns="http://www.w3.org/2000/svg" xmlns:xlink="http://www.w3.org/1999/xlink" xmlns:sketch="http://www.bohemiancoding.com/sketch/ns">
    <title>007 FolderAdd</title>
    <description>Created with Sketch (http://www.bohemiancoding.com/sketch)</description>
    <defs></defs>
    <g id="Icons with numbers" stroke="none" stroke-width="1" fill="none" fill-rule="evenodd">
        <g id="Group" transform="translate(-288.000000, 0.000000)" fill="#000000">
            <path d="M288,5 C288,4.5 288.5,4 289,4 L303,4 C303.5,4 304,4.5 304,5 L304,13 C304,13.5 303.5,14 303,14 L289,14 C288.5,14 288,13.5 288,13 Z M295,6 L295,8 L293,8 L293,10 L295,10 L295,12 L297,12 L297,10 L299,10 L299,8 L297,8 L297,6 Z M291,2 L295,2 L296,3 L290,3 Z M291,2" id="Rectangle 136 copy"></path>
        </g>
    </g>
</svg>