<?xml version="1.0" encoding="UTF-8" standalone="no"?>
<svg width="16px" height="16px" viewBox="0 0 16 16" version="1.1" xmlns="http://www.w3.org/2000/svg" xmlns:xlink="http://www.w3.org/1999/xlink" xmlns:sketch="http://www.bohemiancoding.com/sketch/ns">
    <title>022 Document Add</title>
    <description>Created with Sketch (http://www.bohemiancoding.com/sketch)</description>
    <defs></defs>
    <g id="Icons with numbers" stroke="none" stroke-width="1" fill="none" fill-rule="evenodd">
        <g id="Group" transform="translate(-144.000000, -48.000000)" fill="#000000">
            <path d="M146,49 L154,49 L154,54 L158,54 L158,64 L154,64 L146,64 L146,49 L146,49 Z M155.015625,49.0120239 L158.058838,53.0283203 L155.015625,53.0283203 L155.015625,49.0120239 L155.015625,49.0120239 Z M151,54 L151,56 L149,56 L149,58 L151,58 L151,60 L153,60 L153,58 L155,58 L155,56 L153,56 L153,54 L151,54 L151,54 Z M151,54" id="Shape"></path>
        </g>
    </g>
</svg>