<?xml version="1.0" encoding="UTF-8" standalone="no"?>
<svg width="16px" height="16px" viewBox="0 0 16 16" version="1.1" xmlns="http://www.w3.org/2000/svg" xmlns:xlink="http://www.w3.org/1999/xlink" xmlns:sketch="http://www.bohemiancoding.com/sketch/ns">
    <title>029 MP3Player2</title>
    <description>Created with Sketch (http://www.bohemiancoding.com/sketch)</description>
    <defs></defs>
    <g id="Icons with numbers" stroke="none" stroke-width="1" fill="none" fill-rule="evenodd">
        <g id="Group" transform="translate(-480.000000, -48.000000)" fill="#000000">
            <path d="M491,61 L491,62.9991283 C491,63.5553691 490.556414,64 490.009222,64 L485.990778,64 C485.450975,64 485,63.5518945 485,62.9991283 L485,61 Z M485.990778,48 L490.009222,48 C490.549025,48 491,48.4481055 491,49.0008717 L491,60 L485,60 L485,49.0008717 C485,48.4446309 485.443586,48 485.990778,48 Z M488,55 C489.10457,55 490,54.1045696 490,53 C490,51.8954304 489.10457,51 488,51 C486.89543,51 486,51.8954304 486,53 C486,54.1045696 486.89543,55 488,55 Z M488,54 C487.447715,54 487,53.5522848 487,53 C487,52.4477152 487.447715,52 488,52 C488.552285,52 489,52.4477152 489,53 C489,53.5522848 488.552285,54 488,54 Z M488,54" id="Rectangle 124"></path>
        </g>
    </g>
</svg>