<?xml version="1.0" encoding="UTF-8" standalone="no"?>
<svg width="16px" height="16px" viewBox="0 0 16 16" version="1.1" xmlns="http://www.w3.org/2000/svg" xmlns:xlink="http://www.w3.org/1999/xlink" xmlns:sketch="http://www.bohemiancoding.com/sketch/ns">
    <title>047 Genius2</title>
    <description>Created with Sketch (http://www.bohemiancoding.com/sketch)</description>
    <defs></defs>
    <g id="Icons with numbers" stroke="none" stroke-width="1" fill="none" fill-rule="evenodd">
        <g id="Group" transform="translate(-480.000000, -96.000000)" fill="#000000">
            <path d="M488,112 C486.5,112 485,108.5 485,104 C485,99.5 486.5,96 488,96 C489.5,96 491,99.5 491,104 C491,108.5 489.5,112 488,112 Z M488,111 C489,111 490,108 490,104 C490,100 489,97 488,97 C487,97 486,100 486,104 C486,108 487,111 488,111 Z M488,111" id="Genius2"></path>
            <path d="M481.372656,108.33955 C480.511484,107.113452 482.629372,103.957653 486.459592,101.476611 C490.289812,98.9955686 494.130044,98.2919679 494.991216,99.5180667 C495.852387,100.744166 493.7345,103.899964 489.90428,106.381006 C486.07406,108.862048 482.233828,109.565649 481.372656,108.33955 Z M482.223816,107.788207 C482.797931,108.605607 485.925525,107.768978 489.330165,105.563607 C492.734805,103.358236 494.71417,100.886809 494.140056,100.069409 C493.565941,99.2520103 490.438347,100.088639 487.033707,102.29401 C483.629067,104.499381 481.649702,106.970808 482.223816,107.788207 Z M482.223816,107.788207" id="Genius2"></path>
            <path d="M494.991216,108.33955 C494.130044,109.565649 490.289812,108.862048 486.459592,106.381006 C482.629372,103.899964 480.511484,100.744166 481.372656,99.5180667 C482.233828,98.2919679 486.07406,98.9955686 489.90428,101.476611 C493.7345,103.957653 495.852387,107.113452 494.991216,108.33955 Z M494.140056,107.788207 C494.71417,106.970808 492.734805,104.499381 489.330165,102.29401 C485.925525,100.088639 482.797931,99.2520103 482.223816,100.069409 C481.649702,100.886809 483.629067,103.358236 487.033707,105.563607 C490.438347,107.768978 493.565941,108.605607 494.140056,107.788207 Z M494.140056,107.788207" id="Genius2"></path>
        </g>
    </g>
</svg>