<?xml version="1.0" encoding="UTF-8" standalone="no"?>
<svg width="16px" height="16px" viewBox="0 0 16 16" version="1.1" xmlns="http://www.w3.org/2000/svg" xmlns:xlink="http://www.w3.org/1999/xlink" xmlns:sketch="http://www.bohemiancoding.com/sketch/ns">
    <title>053 Preferences</title>
    <description>Created with Sketch (http://www.bohemiancoding.com/sketch)</description>
    <defs></defs>
    <g id="Icons with numbers" stroke="none" stroke-width="1" fill="none" fill-rule="evenodd">
        <g id="Group" transform="translate(-768.000000, -96.000000)" fill="#000000">
            <path d="M776,108 C778.209139,108 780,106.209139 780,104 C780,101.790861 778.209139,100 776,100 C773.790861,100 772,101.790861 772,104 C772,106.209139 773.790861,108 776,108 Z M780.890749,100.523464 C781.405567,101.246403 781.764097,102.088347 781.917042,103 L784,103 L784,105 L781.917042,105 C781.706284,106.256253 781.105149,107.380135 780.940826,107.526613 L782.363961,108.949748 L780.949748,110.363961 L779.476536,108.89075 C778.753613,109.405561 777.911662,109.764096 777,109.917042 L777,112 L775,112 L775,109.917042 C774.088338,109.764096 773.246387,109.405561 772.523464,108.89075 L771.050253,110.363961 L769.636039,108.949748 L771.109251,107.476536 C770.594433,106.753597 770.235903,105.911653 770.082958,105 L768,105 L768,103 L770.082958,103 C770.293716,101.743747 770.894851,100.619865 771.059174,100.473387 L769.636039,99.0502526 L771.050253,97.636039 L772.523464,99.1092504 C773.246387,98.5944389 774.088338,98.2359041 775,98.0829584 L775,96 L777,96 L777,98.0829584 C777.911662,98.2359041 778.753613,98.5944389 779.476536,99.1092505 L780.949748,97.636039 L782.363961,99.0502526 L781.009978,100.404236 Z M780.890749,100.523464" id="Oval 228"></path>
        </g>
    </g>
</svg>