<?xml version="1.0" encoding="UTF-8" standalone="no"?>
<svg width="16px" height="16px" viewBox="0 0 16 16" version="1.1" xmlns="http://www.w3.org/2000/svg" xmlns:xlink="http://www.w3.org/1999/xlink" xmlns:sketch="http://www.bohemiancoding.com/sketch/ns">
    <title>059 CircledOff</title>
    <description>Created with Sketch (http://www.bohemiancoding.com/sketch)</description>
    <defs></defs>
    <g id="Icons with numbers" stroke="none" stroke-width="1" fill="none" fill-rule="evenodd">
        <g id="Group" transform="translate(-192.000000, -144.000000)" fill="#000000">
            <path d="M200,155 C198.343146,155 197,153.656854 197,152 C197,151.111497 197.386253,150.313209 198,149.763893 L198,147.416044 C196.234091,148.187606 195,149.949684 195,152 C195,154.761424 197.238576,157 200,157 C202.761424,157 205,154.761424 205,152 C205,149.949684 203.765909,148.187606 202,147.416044 L202,149.763893 C202.613747,150.313209 203,151.111497 203,152 C203,153.656854 201.656854,155 200,155 Z M200,160 C195.581722,160 192,156.418278 192,152 C192,147.581722 195.581722,144 200,144 C204.418278,144 208,147.581722 208,152 C208,156.418278 204.418278,160 200,160 Z M199,147 L199,151 C199,151.5 199.5,152 200,152 C200.5,152 201,151.5 201,151 L201,147 C201,146.5 200.5,146 200,146 C199.5,146 199,146.5 199,147 Z M199,147" id="Oval 190"></path>
        </g>
    </g>
</svg>