<?xml version="1.0" encoding="UTF-8" standalone="no"?>
<svg width="16px" height="16px" viewBox="0 0 16 16" version="1.1" xmlns="http://www.w3.org/2000/svg" xmlns:xlink="http://www.w3.org/1999/xlink" xmlns:sketch="http://www.bohemiancoding.com/sketch/ns">
    <title>082 Earphones</title>
    <description>Created with Sketch (http://www.bohemiancoding.com/sketch)</description>
    <defs></defs>
    <g id="Icons with numbers" stroke="none" stroke-width="1" fill="none" fill-rule="evenodd">
        <g id="Group" transform="translate(-432.000000, -192.000000)" fill="#000000">
            <path d="M432,200.272727 C432,195.545455 435.428571,192 440,192 C444.571429,192 448,195.545455 448,200.272727 L448,203.99791 L448,205 L448,206.002087 C448,207.101739 447.102384,208 445.995118,208 L445.004882,208 C443.8939,208 443,207.105504 443,206.002087 L443,203.997913 C443,202.898261 443.897616,202 445.004882,202 L445.714286,202 L445.714286,200.272727 C445.714286,196.727273 443.428571,194.363636 440,194.363636 C436.571429,194.363636 434.285714,196.727273 434.285714,200.272727 L434.285714,202 L434.995118,202 C436.1061,202 437,202.894496 437,203.997913 L437,206.002087 C437,207.101739 436.102384,208 434.995118,208 L434.004882,208 C432.8939,208 432,207.105504 432,206.002087 L432,205 L432,203.997913 Z M432,200.272727" id="Shape"></path>
        </g>
    </g>
</svg>