<?xml version="1.0" encoding="UTF-8" standalone="no"?>
<svg width="16px" height="16px" viewBox="0 0 16 16" version="1.1" xmlns="http://www.w3.org/2000/svg" xmlns:xlink="http://www.w3.org/1999/xlink" xmlns:sketch="http://www.bohemiancoding.com/sketch/ns">
    <title>097 Forms</title>
    <description>Created with Sketch (http://www.bohemiancoding.com/sketch)</description>
    <defs></defs>
    <g id="Icons with numbers" stroke="none" stroke-width="1" fill="none" fill-rule="evenodd">
        <g id="Group" transform="translate(-288.000000, -240.000000)" fill="#000000">
            <path d="M291,243 L291,247 L295,247 L295,243 Z M289.99406,240 L302.00594,240 C303.105486,240 304,240.892771 304,241.99406 L304,254.00594 C304,255.105486 303.107229,256 302.00594,256 L289.99406,256 C288.894514,256 288,255.107229 288,254.00594 L288,241.99406 C288,240.894514 288.892771,240 289.99406,240 Z M298.009369,249 C297.45191,249 297,249.443353 297,250.009369 L297,251.990631 C297,252.54809 297.443353,253 298.009369,253 L299.990631,253 C300.54809,253 301,252.556647 301,251.990631 L301,250.009369 C301,249.45191 300.556647,249 299.990631,249 Z M299,247 C300.10457,247 301,246.10457 301,245 C301,243.89543 300.10457,243 299,243 C297.89543,243 297,243.89543 297,245 C297,246.10457 297.89543,247 299,247 Z M293,249 L291,253 L295,253 Z M293,249" id="Rectangle 217"></path>
        </g>
    </g>
</svg>