<?xml version="1.0" encoding="UTF-8" standalone="no"?>
<svg width="32px" height="32px" viewBox="0 0 32 32" version="1.1" xmlns="http://www.w3.org/2000/svg" xmlns:xlink="http://www.w3.org/1999/xlink" xmlns:sketch="http://www.bohemiancoding.com/sketch/ns">
    <title>102 Tornado</title>
    <description>Created with Sketch (http://www.bohemiancoding.com/sketch)</description>
    <defs></defs>
    <g id="Icons new Arranged Names" stroke="none" stroke-width="1" fill="none" fill-rule="evenodd">
        <g id="102 Tornado" fill="#000000">
            <path d="M3.51795549,3.09677419 C4.55956613,1.38647295 9.11409512,0 16.017284,0 C22.9204728,0 27.3855446,1.64705965 28.5166124,3.09677419 C30.0790285,5.09935736 27.6364411,9.83203892 20.1837273,14.4516129 C13.8294775,18.3903027 9.14478347,22.2210455 12.8924519,23.7419355 C21.8177932,27.3640441 17.0588943,32 17.0588943,32 C17.0588943,32 17.0588947,28.9032253 13.934062,27.8709677 C8.65191269,26.1260613 6.64278758,24.7741935 4.55956617,22.7096774 C2.98366184,21.147923 1.2876824,16.2185972 6.64278762,11.3548387 C9.30758236,8.93454683 1.51950057,6.37819267 3.51795549,3.09677419 Z M27,4.03225806 C27,2.37540373 22.0751325,1.03225806 16,1.03225806 C9.92486745,1.03225806 5,2.37540373 5,4.03225806 C5,5.6891124 9.92486745,7.03225806 16,7.03225806 C22.0751325,7.03225806 27,5.6891124 27,4.03225806 Z M27,4.03225806" id="Triangle 30 copy"></path>
        </g>
    </g>
</svg>