<?xml version="1.0" encoding="UTF-8" standalone="no"?>
<svg width="16px" height="16px" viewBox="0 0 16 16" version="1.1" xmlns="http://www.w3.org/2000/svg" xmlns:xlink="http://www.w3.org/1999/xlink" xmlns:sketch="http://www.bohemiancoding.com/sketch/ns">
    <title>108 Bookmark</title>
    <description>Created with Sketch (http://www.bohemiancoding.com/sketch)</description>
    <defs></defs>
    <g id="Icons with numbers" stroke="none" stroke-width="1" fill="none" fill-rule="evenodd">
        <g id="Group" transform="translate(-816.000000, -240.000000)" fill="#000000">
            <path d="M817,245 L817,253 C817,251.941162 818.964988,251.002076 820.5,251.002075 C822.035012,251.002075 824,252.058105 824,253 L824,245 C824,243.895431 822.052002,242.974609 820.5,242.974609 C818.947998,242.974609 817,243.895431 817,245 Z M818,245.4 C818,244.626801 819.391427,243.982227 820.5,243.982227 C821.608573,243.982227 823,244.626801 823,245.4 L823,251 C823,250.340674 821.596437,250.004822 820.5,250.004822 C819.403563,250.004822 818,250.258813 818,251 Z M824,245 C824,243.895431 825.947998,242.974609 827.5,242.974609 C829.052002,242.974609 831,243.895431 831,245 L831,253 C831,252.058105 829.035012,251.002075 827.5,251.002075 C825.964988,251.002076 824,251.941162 824,253 Z M825,245.4 L825,251 C825,250.258813 826.403563,250.004822 827.5,250.004822 C828.596437,250.004822 830,250.340674 830,251 L830,245.4 C830,244.626801 828.608573,243.982227 827.5,243.982227 C826.391427,243.982227 825,244.626801 825,245.4 Z M825,245.4" id="Rectangle 310"></path>
        </g>
    </g>
</svg>