<?xml version="1.0" encoding="UTF-8" standalone="no"?>
<svg width="16px" height="16px" viewBox="0 0 16 16" version="1.1" xmlns="http://www.w3.org/2000/svg" xmlns:xlink="http://www.w3.org/1999/xlink" xmlns:sketch="http://www.bohemiancoding.com/sketch/ns">
    <title>114 Grid2</title>
    <description>Created with Sketch (http://www.bohemiancoding.com/sketch)</description>
    <defs></defs>
    <g id="Icons with numbers" stroke="none" stroke-width="1" fill="none" fill-rule="evenodd">
        <g id="Group" transform="translate(-240.000000, -288.000000)" fill="#000000">
            <path d="M242,293 L245,293 L245,296 L242,296 Z M246,293 L249,293 L249,296 L246,296 Z M250,293 L253,293 L253,296 L250,296 Z M246,297 L249,297 L249,300 L246,300 Z M250,297 L253,297 L253,300 L250,300 Z M242,297 L245,297 L245,300 L242,300 Z M247,294 L247,295 L248,295 L248,294 Z M251,294 L251,295 L252,295 L252,294 Z M247,298 L247,299 L248,299 L248,298 Z M251,298 L251,299 L252,299 L252,298 Z M243,294 L243,295 L244,295 L244,294 Z M243,298 L243,299 L244,299 L244,298 Z M243,298" id="Rectangle 173 copy"></path>
        </g>
    </g>
</svg>