<?xml version="1.0" encoding="UTF-8" standalone="no"?>
<svg width="16px" height="16px" viewBox="0 0 16 16" version="1.1" xmlns="http://www.w3.org/2000/svg" xmlns:xlink="http://www.w3.org/1999/xlink" xmlns:sketch="http://www.bohemiancoding.com/sketch/ns">
    <title>115 List</title>
    <description>Created with Sketch (http://www.bohemiancoding.com/sketch)</description>
    <defs></defs>
    <g id="Icons with numbers" stroke="none" stroke-width="1" fill="none" fill-rule="evenodd">
        <g id="Group" transform="translate(-288.000000, -288.000000)" fill="#000000">
            <path d="M289,293 L292,293 L292,296 L289,296 Z M293,295 L302,295 L302,296 L293,296 Z M293,293 L302,293 L302,294 L293,294 Z M293,297 L302,297 L302,298 L293,298 Z M293,299 L302,299 L302,300 L293,300 Z M289,297 L292,297 L292,300 L289,300 Z M290,294 L290,295 L291,295 L291,294 Z M290,298 L290,299 L291,299 L291,298 Z M290,298" id="Rectangle 173 copy 2"></path>
        </g>
    </g>
</svg>