<?xml version="1.0" encoding="UTF-8" standalone="no"?>
<svg width="16px" height="16px" viewBox="0 0 16 16" version="1.1" xmlns="http://www.w3.org/2000/svg" xmlns:xlink="http://www.w3.org/1999/xlink" xmlns:sketch="http://www.bohemiancoding.com/sketch/ns">
    <title>150 Glasses</title>
    <description>Created with Sketch (http://www.bohemiancoding.com/sketch)</description>
    <defs></defs>
    <g id="Icons with numbers" stroke="none" stroke-width="1" fill="none" fill-rule="evenodd">
        <g id="Group" transform="translate(-240.000000, -384.000000)" fill="#000000">
            <path d="M240.993164,391 L242.005916,391 L244.994081,391 L251.005916,391 L253.994081,391 L255.006836,391 L252.787537,388 L251.972961,388 L251.972961,390.029053 L251,390.029053 L251,388 L251,387 L253,387 L256,391 L256,392 L255.73276,392 C255.903037,392.29544 256,392.638696 256,393.004882 L256,393.995118 C256,395.1061 255.101919,396 253.994081,396 L251.005919,396 C249.886555,396 249,395.102384 249,393.995118 L249,393.004882 C249,392.638154 249.097856,392.29508 249.268813,392 L246.73276,392 C246.903037,392.29544 247,392.638696 247,393.004882 L247,393.995118 C247,395.1061 246.101919,396 244.994081,396 L242.005919,396 C240.886555,396 240,395.102384 240,393.995118 L240,393.004882 C240,392.638154 240.097856,392.29508 240.268813,392 L240,392 L240,391 L243,387 L245,387 L245,388 L245,390.029053 L244.027039,390.029053 L244.027039,388 L243.212463,388 Z M251.300639,392 C250.582316,392 250,392.57843 250,393.307117 L250,393.692883 C250,394.414784 250.573564,395 251.300639,395 L253.699361,395 C254.417684,395 255,394.42157 255,393.692883 L255,393.307117 C255,392.585216 254.426436,392 253.699361,392 Z M242.300639,392 C241.582316,392 241,392.57843 241,393.307117 L241,393.692883 C241,394.414784 241.573564,395 242.300639,395 L244.699361,395 C245.417684,395 246,394.42157 246,393.692883 L246,393.307117 C246,392.585216 245.426436,392 244.699361,392 Z M242.300639,392" id="Rectangle 224"></path>
        </g>
    </g>
</svg>