<?xml version="1.0" encoding="UTF-8" standalone="no"?>
<svg width="16px" height="16px" viewBox="0 0 16 16" version="1.1" xmlns="http://www.w3.org/2000/svg" xmlns:xlink="http://www.w3.org/1999/xlink" xmlns:sketch="http://www.bohemiancoding.com/sketch/ns">
    <title>151 Glasses</title>
    <description>Created with Sketch (http://www.bohemiancoding.com/sketch)</description>
    <defs></defs>
    <g id="Icons with numbers" stroke="none" stroke-width="1" fill="none" fill-rule="evenodd">
        <g id="Group" transform="translate(-288.000000, -384.000000)" fill="#000000">
            <path d="M288.993164,391 L295,391 L297,391 L303.006836,391 L300.787537,388 L299.972961,388 L299.972961,390.029053 L299,390.029053 L299,388 L299,387 L301,387 L304,391 L304,392 L304,393.5 C304,394.880712 302.880712,396 301.5,396 L299.5,396 C298.119288,396 297,394.880712 297,393.5 L297,392 L295,392 L295,393.5 C295,394.880712 293.880712,396 292.5,396 L290.5,396 C289.119288,396 288,394.880712 288,393.5 L288,392 L288,391 L291,387 L293,387 L293,388 L293,390.029053 L292.027039,390.029053 L292.027039,388 L291.212463,388 Z M298,393.5 C298,394.328427 298.671573,395 299.5,395 L301.5,395 C302.328427,395 303,394.328427 303,393.5 L303,392 L298,392 Z M289,393.5 C289,394.328427 289.671573,395 290.5,395 L292.5,395 C293.328427,395 294,394.328427 294,393.5 L294,392 L289,392 Z M289,393.5" id="Rectangle 224 copy"></path>
        </g>
    </g>
</svg>