<?xml version="1.0" encoding="UTF-8" standalone="no"?>
<svg width="16px" height="16px" viewBox="0 0 16 16" version="1.1" xmlns="http://www.w3.org/2000/svg" xmlns:xlink="http://www.w3.org/1999/xlink" xmlns:sketch="http://www.bohemiancoding.com/sketch/ns">
    <title>153 VolumeUp</title>
    <description>Created with Sketch (http://www.bohemiancoding.com/sketch)</description>
    <defs></defs>
    <g id="Icons with numbers" stroke="none" stroke-width="1" fill="none" fill-rule="evenodd">
        <g id="Group" transform="translate(-384.000000, -384.000000)" fill="#000000">
            <path d="M386,390 L388,390 L391,387 L391,397 L388,394 L386,394 L386,392 Z M398,392 C398,389.94572 397.286118,388.059903 396.095306,386.58195 L396.846616,385.914119 C398.192284,387.570434 399,389.689914 399,392 C399,394.310086 398.192284,396.429566 396.846616,398.085881 L396.095306,397.41805 C397.286118,395.940097 398,394.05428 398,392 Z M396,392.000549 C396,390.462276 395.465646,389.048809 394.572419,387.935628 L395.320674,387.270512 C396.370616,388.560969 397,390.207259 397,392.000549 C397,393.79354 396.370826,395.43958 395.321193,396.729949 L394.572933,396.06483 C395.465851,394.951747 396,393.538527 396,392.000549 Z M394,392 C394,390.980672 393.618605,390.05656 393,389.381781 L393,389.333333 L393.746778,388.66953 C394.522956,389.533814 395,390.707359 395,392 C395,393.292641 394.522956,394.466186 393.746778,395.33047 L393,394.666667 L393,394.618219 C393.618605,393.94344 394,393.019328 394,392 Z M394,392" id="Rectangle 198"></path>
        </g>
    </g>
</svg>