<?xml version="1.0" encoding="UTF-8" standalone="no"?>
<svg width="16px" height="16px" viewBox="0 0 16 16" version="1.1" xmlns="http://www.w3.org/2000/svg" xmlns:xlink="http://www.w3.org/1999/xlink" xmlns:sketch="http://www.bohemiancoding.com/sketch/ns">
    <title>233 PagesView3</title>
    <description>Created with Sketch (http://www.bohemiancoding.com/sketch)</description>
    <defs></defs>
    <g id="Icons with numbers" stroke="none" stroke-width="1" fill="none" fill-rule="evenodd">
        <g id="Group" transform="translate(-768.000000, -576.000000)" fill="#000000">
            <path d="M774.997152,580 L781.002848,580 C782.658377,580 784,581.341871 784,582.997152 L784,589.002848 C784,590.658377 782.658129,592 781.002848,592 L774.997152,592 C773.341623,592 772,590.658129 772,589.002848 L772,582.997152 C772,581.341623 773.341871,580 774.997152,580 Z M770.997152,576 L777.002848,576 C778.657561,576 779.998677,577.340548 780,578.994705 C779.68038,578.99489 779.3453,579 779,579 L775,579 C772.790861,579 771,580.790861 771,583 L771,588 L770.997152,588 C769.341623,588 768,586.658129 768,585.002848 L768,578.997152 C768,577.341623 769.341871,576 770.997152,576 Z M774.99703,582 C774.446386,582 774,582.453036 774,582.99703 L774,589.00297 C774,589.553614 774.453036,590 774.99703,590 L781.00297,590 C781.553614,590 782,589.546964 782,589.00297 L782,582.99703 C782,582.446386 781.546964,582 781.00297,582 Z M774.99703,582" id="Rectangle 16 copy 2"></path>
        </g>
    </g>
</svg>