<?xml version="1.0" encoding="UTF-8" standalone="no"?>
<svg width="32px" height="32px" viewBox="0 0 32 32" version="1.1" xmlns="http://www.w3.org/2000/svg" xmlns:xlink="http://www.w3.org/1999/xlink" xmlns:sketch="http://www.bohemiancoding.com/sketch/ns">
    <title>26 Cloud Fog Moon</title>
    <description>Created with Sketch (http://www.bohemiancoding.com/sketch)</description>
    <defs></defs>
    <g id="Icons new Arranged Names" stroke="none" stroke-width="1" fill="none" fill-rule="evenodd">
        <g id="26 Cloud Fog Moon" fill="#000000">
            <path d="M12,5 C14.1432973,5 16.1116093,5.74920044 17.6573345,7 L6.34266546,7 C7.88839993,5.74919694 9.85670775,5 12,5 Z M0.342363197,17 L31.6585144,17 C31.8796618,17.6255636 32,18.2987322 32,19 L0,19 C0,18.2991615 0.120654163,17.6258969 0.342363197,17 Z M31.195553,22 L0.802847203,22 C0.45143886,21.3926178 0.203448795,20.7179242 0.0829781634,20 L31.9167576,20 C31.7960107,20.7175221 31.5475651,21.3923098 31.195553,22 Z M25.9998243,25 L6.00017566,25 C4.22344673,25 2.62680151,24.2274959 1.52803983,23 L30.4697577,23 C29.3711646,24.2266896 27.7755791,25 25.9998243,25 Z M2.68490751,14 L29.3174489,14 C30.0875815,14.5120271 30.7326957,15.1972235 31.197151,16 L0.804451352,16 C1.26924154,15.197621 1.91458537,14.5122471 2.68490751,14 Z M3.51211611,11 L26.190428,11 C26.7426917,11.575486 27.1900701,12.2523945 27.5018367,13 L3.05492872,13 C3.13158669,12.3065377 3.287033,11.6368191 3.51211611,11 Z M5.2916803,8 L18.7083197,8 C19.0594789,8.39234414 19.3767367,8.81569686 19.6554697,9.26543304 C20.2402063,9.09270499 20.8592769,9 21.5,9 C22.774083,9 23.9625489,9.36657077 24.9656861,10 L3.93551768,10 C4.29735894,9.27188724 4.75489875,8.59973604 5.2916803,8 Z M5.2916803,8" id="Rectangle 1 copy 6"></path>
            <path d="M27.9761297,6.76051208 C27.7786413,8.32180449 26.9811758,9.69607082 25.8220327,10.6450116 C24.6734211,9.62176022 23.1593205,9 21.5,9 C20.8592769,9 20.2402063,9.09270499 19.6554697,9.26543304 C18.7785178,7.8504696 17.5202234,6.6966661 16.0240949,5.94754201 C16.0475751,3.20581866 17.909981,0.90282063 20.4380666,0.211793892 C20.9432104,0.0737178024 21.4749315,0 22.0238703,0 C22.2705686,0 22.5137894,0.0148886931 22.7526832,0.0438165372 C22.2917651,0.750059906 22.0238703,1.59374485 22.0238703,2.5 C22.0238703,4.9852815 24.0385888,7 26.5238703,7 C27.0320295,7 27.5205158,6.9157708 27.9761297,6.76051208 Z M27.9761297,6.76051208" id="Oval 20 copy 5"></path>
        </g>
    </g>
</svg>