<?xml version="1.0" encoding="UTF-8" standalone="no"?>
<svg width="32px" height="32px" viewBox="0 0 32 32" version="1.1" xmlns="http://www.w3.org/2000/svg" xmlns:xlink="http://www.w3.org/1999/xlink" xmlns:sketch="http://www.bohemiancoding.com/sketch/ns">
    <title>29 Cloud Moon</title>
    <description>Created with Sketch (http://www.bohemiancoding.com/sketch)</description>
    <defs></defs>
    <g id="Icons new Arranged Names" stroke="none" stroke-width="1" fill="none" fill-rule="evenodd">
        <g id="29 Cloud Moon" fill="#000000">
            <path d="M25.9725356,15 C25.7238035,12.7500155 23.8162709,11 21.5,11 C20.4427534,11 19.4706636,11.3645993 18.7026063,11.974922 C17.8340685,9.0963276 15.1618462,7 12,7 C8.13400656,7 5,10.1340066 5,14 C5,14.3757911 5.0296122,14.7446659 5.08663046,15.1044183 C3.31778819,15.5175755 2,17.1080834 2,19 C2,21.209139 3.79412025,23 5.99683887,23 L26.0031611,23 C28.2105543,23 30,21.2046438 30,19 C30,16.790861 28.2058797,15 26.0031611,15 Z M23.9662244,9.48419048 C24.2978034,9.2966687 24.5999527,9.06318222 24.8640187,8.79238493 C22.0769195,8.06980894 20.015993,5.54442126 20.0000926,2.53507514 C18.8044388,3.22668076 18,4.51939695 18,6 C18,6.5723508 18.1202099,7.11662505 18.3367596,7.60895254 C18.8258889,8.09395272 19.2596418,8.63471239 19.627691,9.22090692 C19.6448204,9.23354437 19.6620541,9.24604843 19.6793908,9.25841759 C20.2570807,9.09019587 20.8680072,9 21.5,9 C22.3729592,9 23.2057252,9.17208789 23.9662244,9.48419048 Z M0,19 C0,16.7828376 1.20753986,14.8416411 3.00211353,13.8029948 C3.10690617,8.92340284 7.0952729,5 12,5 C13.4369895,5 14.7953208,5.33677542 16.0003374,5.93570057 C16.0290699,3.19918941 17.8897511,0.901825557 20.4141963,0.211793892 C20.9193401,0.0737178024 21.4510612,0 22,0 C22.2466982,0 22.489919,0.0148886931 22.7288129,0.0438165372 C22.2678947,0.750059906 22,1.59374485 22,2.5 C22,4.9852815 24.0147185,7 26.5,7 C27.0081591,7 27.4966455,6.9157708 27.9522593,6.76051208 C27.7554765,8.31622689 26.9629956,9.68624951 25.8105713,10.6348253 C26.5949475,11.3303014 27.2099392,12.2125601 27.5858427,13.2118973 C30.129704,13.9074543 32,16.2353674 32,19 C32,22.3069658 29.3136299,25 25.9998243,25 L6.00017566,25 C2.68697795,25 0,22.3137085 0,19 Z M0,19" id="Oval 20 copy 2"></path>
        </g>
    </g>
</svg>