<?xml version="1.0" encoding="UTF-8" standalone="no"?>
<svg width="32px" height="32px" viewBox="0 0 32 32" version="1.1" xmlns="http://www.w3.org/2000/svg" xmlns:xlink="http://www.w3.org/1999/xlink" xmlns:sketch="http://www.bohemiancoding.com/sketch/ns">
    <title>47 Cloud Add</title>
    <description>Created with Sketch (http://www.bohemiancoding.com/sketch)</description>
    <defs></defs>
    <g id="Icons new Arranged Names" stroke="none" stroke-width="1" fill="none" fill-rule="evenodd">
        <g id="47 Cloud Add" fill="#000000">
            <path d="M25.9725356,15 C25.7238035,12.7500155 23.8162709,11 21.5,11 C20.4427534,11 19.4706636,11.3645993 18.7026063,11.974922 C17.8340685,9.0963276 15.1618462,7 12,7 C8.13400656,7 5,10.1340066 5,14 C5,14.3757911 5.0296122,14.7446659 5.08663046,15.1044183 C3.31778819,15.5175755 2,17.1080834 2,19 C2,21.209139 3.79412025,23 5.99683887,23 L26.0031611,23 C28.2105543,23 30,21.2046438 30,19 C30,16.790861 28.2058797,15 26.0031611,15 Z M0,19 C0,16.7828376 1.20753986,14.8416411 3.00211353,13.8029948 C3.10690617,8.92340284 7.0952729,5 12,5 C15.2334975,5 18.0687212,6.7052115 19.6554697,9.26543304 C20.2402063,9.09270499 20.8592769,9 21.5,9 C24.2845531,9 26.6601501,10.7509485 27.5858427,13.2118973 C30.129704,13.9074543 32,16.2353674 32,19 C32,22.3069658 29.3136299,25 25.9998243,25 L6.00017566,25 C2.68697795,25 0,22.3137085 0,19 Z M16,21 C15.4438648,21 15,20.5536144 15,20.0029699 L15,18 L12.9970301,18 C12.4530363,18 12,17.5522847 12,17 C12,16.4438648 12.4463856,16 12.9970301,16 L15,16 L15,13.9970301 C15,13.4530363 15.4477153,13 16,13 C16.5561352,13 17,13.4463856 17,13.9970301 L17,16 L19.0029699,16 C19.5469637,16 20,16.4477153 20,17 C20,17.5561352 19.5536144,18 19.0029699,18 L17,18 L17,20.0029699 C17,20.5469637 16.5522847,21 16,21 Z M16,21" id="Rectangle 1 copy 2"></path>
        </g>
    </g>
</svg>