<?xml version="1.0" encoding="UTF-8" standalone="no"?>
<svg width="32px" height="32px" viewBox="0 0 32 32" version="1.1" xmlns="http://www.w3.org/2000/svg" xmlns:xlink="http://www.w3.org/1999/xlink" xmlns:sketch="http://www.bohemiancoding.com/sketch/ns">
    <title>56 Sunrise</title>
    <description>Created with Sketch (http://www.bohemiancoding.com/sketch)</description>
    <defs></defs>
    <g id="Icons new Arranged Names" stroke="none" stroke-width="1" fill="none" fill-rule="evenodd">
        <g id="56 Sunrise" fill="#000000">
            <path d="M19.9988371,18.996965 C19.9988371,16.7884354 18.2084969,14.9980686 16,14.9980686 C13.7915031,14.9980686 12.0011629,16.7884354 12.0011629,18.996965 C12.0011629,19.3421741 12.0449044,19.6771667 12.1271437,19.9966891 L10.0846787,19.9966891 C10.0301341,19.6715608 10.0017444,19.3375784 10.0017444,18.996965 C10.0017444,15.6841706 12.6872547,12.9986205 16,12.9986205 C19.3127453,12.9986205 21.9982556,15.6841706 21.9982556,18.996965 C21.9982556,19.3375784 21.9698659,19.6715608 21.9153213,19.9966891 L19.8728563,19.9966891 C19.9550956,19.6771667 19.9988371,19.3421741 19.9988371,18.996965 Z M20.9571661,12.6290751 L22.3577403,11.2284977 C22.7578626,10.8283745 23.3877638,10.8314542 23.7781746,11.2218658 C24.1713072,11.6149993 24.1656162,12.248229 23.7715428,12.6423033 L22.3709685,14.0428807 C21.9708463,14.4430038 21.3409451,14.4399242 20.9505343,14.0495125 C20.5574017,13.656379 20.5630927,13.0231494 20.9571661,12.6290751 Z M6.0090881,18.0004264 L7.98979915,18.0004264 C8.55565741,18.0004264 8.99888725,18.4480125 8.99888725,19.000138 C8.99888725,19.5288552 8.59031599,19.95607 8.07096269,19.9966891 L5.92712648,19.9966891 C5.40100885,19.9558976 5,19.5253084 5,19.000138 C5,18.4441632 5.45178413,18.0004264 6.0090881,18.0004264 Z M26.0720754,19.9966891 L23.9282392,19.9966891 C23.4021216,19.9558976 23.0011128,19.5253084 23.0011128,19.000138 C23.0011128,18.4441632 23.4528969,18.0004264 24.0102009,18.0004264 L25.9909119,18.0004264 C26.5567702,18.0004264 27,18.4480125 27,19.000138 C27,19.5288552 26.5914287,19.95607 26.0720754,19.9966891 Z M9.64225965,11.2284977 L11.0428339,12.6290751 C11.4429561,13.0291982 11.4398765,13.6591009 11.0494657,14.0495125 C10.6563331,14.4426461 10.0231049,14.436955 9.62903145,14.0428807 L8.22845724,12.6423033 C7.82833503,12.2421802 7.83141465,11.6122775 8.22182541,11.2218658 C8.61495804,10.8287323 9.24818624,10.8344233 9.64225965,11.2284977 Z M15.0002907,10.989806 L15.0002907,9.0090904 C15.0002907,8.44323085 15.4478758,8 16,8 C16.5559735,8 16.9997093,8.45178516 16.9997093,9.0090904 L16.9997093,10.989806 C16.9997093,11.5556655 16.5521242,11.9988964 16,11.9988964 C15.4440265,11.9988964 15.0002907,11.5471112 15.0002907,10.989806 Z M19.0008585,20.9964132 L13.0008722,20.9964132 L16.0008653,16.9975168 Z M9.9999886,23 C9.9999886,22.4438648 10.4488102,22 11.0024596,22 L20.9974902,22 C21.5442013,22 21.9999612,22.4477153 21.9999612,23 C21.9999612,23.5561352 21.5511397,24 20.9974902,24 L11.0024596,24 C10.4557485,24 9.9999886,23.5522847 9.9999886,23 Z M9.9999886,23" id="Oval 13"></path>
        </g>
    </g>
</svg>