<?xml version="1.0" encoding="UTF-8" standalone="no"?>
<svg width="32px" height="32px" viewBox="0 0 32 32" version="1.1" xmlns="http://www.w3.org/2000/svg" xmlns:xlink="http://www.w3.org/1999/xlink" xmlns:sketch="http://www.bohemiancoding.com/sketch/ns">
    <title>68 Moon Stars</title>
    <description>Created with Sketch (http://www.bohemiancoding.com/sketch)</description>
    <defs></defs>
    <g id="Icons new Arranged Names" stroke="none" stroke-width="1" fill="none" fill-rule="evenodd">
        <g id="68 Moon Stars" fill="#000000">
            <path d="M19.5,12 L20.7142857,15.2380952 L23,16 L20.7142857,16.7619048 L19.5,20 L18.2857143,16.7619048 L16,16 L18.2857143,15.2380952 Z M16.9761297,18.7605121 C16.602396,21.7151549 14.0799604,24 11.0238703,24 C7.71016167,24 5.02387033,21.3137087 5.02387033,18 C5.02387033,15.2352302 6.89387385,12.9072234 9.43806659,12.2117939 C9.94321039,12.0737178 10.4749315,12 11.0238703,12 C11.2705686,12 11.5137894,12.0148887 11.7526832,12.0438165 C11.2917651,12.7500599 11.0238703,13.5937449 11.0238703,14.5 C11.0238703,16.9852815 13.0385888,19 15.5238703,19 C16.0320295,19 16.5205158,18.9157708 16.9761297,18.7605121 Z M15.5,4 L16.7142857,7.23809524 L19,8 L16.7142857,8.76190476 L15.5,12 L14.2857143,8.76190476 L12,8 L14.2857143,7.23809524 Z M25.3673469,9.42857143 L27,10 L25.3673469,10.5714286 L24.5,13 L23.6326531,10.5714286 L22,10 L23.6326531,9.42857143 L24.5,7 Z M25.3673469,9.42857143" id="Oval 20 copy 4"></path>
        </g>
    </g>
</svg>