<?xml version="1.0" encoding="UTF-8" standalone="no"?>
<svg width="32px" height="32px" viewBox="0 0 32 32" version="1.1" xmlns="http://www.w3.org/2000/svg" xmlns:xlink="http://www.w3.org/1999/xlink" xmlns:sketch="http://www.bohemiancoding.com/sketch/ns">
    <title>77 Crescent</title>
    <description>Created with Sketch (http://www.bohemiancoding.com/sketch)</description>
    <defs></defs>
    <g id="Icons new Arranged Names" stroke="none" stroke-width="1" fill="none" fill-rule="evenodd">
        <g id="77 Crescent" fill="#000000">
            <path d="M16,20 C18.2091391,20 20,18.2091391 20,16 C20,13.7908609 18.2091391,12 16,12 C15.6547,12 15.3196191,12.0437531 15.0000012,12.1260178 C16.7252279,12.570061 18,14.1361609 18,16 C18,17.8638391 16.7252279,19.429939 15.0000012,19.8739822 C15.3196191,19.9562469 15.6547,20 16,20 Z M16,22 C12.6862913,22 10,19.3137087 10,16 C10,12.6862913 12.6862913,10 16,10 C19.3137087,10 22,12.6862913 22,16 C22,19.3137087 19.3137087,22 16,22 Z M16,22" id="Oval 20 copy 3"></path>
        </g>
    </g>
</svg>