<?xml version="1.0" encoding="UTF-8" standalone="no"?>
<svg width="32px" height="32px" viewBox="0 0 32 32" version="1.1" xmlns="http://www.w3.org/2000/svg" xmlns:xlink="http://www.w3.org/1999/xlink" xmlns:sketch="http://www.bohemiancoding.com/sketch/ns">
    <title>93 Compass East</title>
    <description>Created with Sketch (http://www.bohemiancoding.com/sketch)</description>
    <defs></defs>
    <g id="Icons new Arranged Names" stroke="none" stroke-width="1" fill="none" fill-rule="evenodd">
        <g id="93 Compass East" fill="#000000">
            <path d="M16,30 C8.26801312,30 2,23.7319869 2,16 C2,8.26801312 8.26801312,2 16,2 C23.7319869,2 30,8.26801312 30,16 C30,23.7319869 23.7319869,30 16,30 Z M27,16 C27,16 18.2099991,20 16,20 C13.7900009,19.9999999 12,18.2091391 12,16 C12,13.7908609 13.7900009,12.0000001 16,12 C18.2099991,12 27,16 27,16 Z M16,28 C22.6274173,28 28,22.6274173 28,16 C28,9.37258267 22.6274173,4 16,4 C9.37258267,4 4,9.37258267 4,16 C4,22.6274173 9.37258267,28 16,28 Z M16,18 C17.1045696,18 18,17.1045696 18,16 C18,14.8954304 17.1045696,14 16,14 C14.8954304,14 14,14.8954304 14,16 C14,17.1045696 14.8954304,18 16,18 Z M16,18" id="Oval 278 copy 2"></path>
        </g>
    </g>
</svg>