<?xml version="1.0" encoding="UTF-8" standalone="no"?>
<svg width="32px" height="32px" viewBox="0 0 32 32" version="1.1" xmlns="http://www.w3.org/2000/svg" xmlns:xlink="http://www.w3.org/1999/xlink" xmlns:sketch="http://www.bohemiancoding.com/sketch/ns">
    <title>98 Wind Wheel</title>
    <description>Created with Sketch (http://www.bohemiancoding.com/sketch)</description>
    <defs></defs>
    <g id="Icons new Arranged Names" stroke="none" stroke-width="1" fill="none" fill-rule="evenodd">
        <g id="98 Wind Wheel" fill="#000000">
            <path d="M18.9678223,12.5590517 C21.5232051,14.3737243 27.6702073,18.8389755 27.2734476,19.5261841 C26.8776369,20.2117492 19.9693252,17.1373201 17.1074272,15.8262632 L18,31 C18,31 17.5,32 16,32 C14.5,32 14,31 14,31 L14.8925728,15.8262632 C12.0306751,17.1373199 5.12236376,20.2117488 4.72655236,19.5261841 C4.32979203,18.8389757 10.476797,14.3737228 13.0321774,12.5590535 C13.0109794,12.7029641 13,12.8501999 13,13 C13,14.6568543 14.3431457,16 16,16 C17.6568543,16 19,14.6568543 19,13 C19,12.8501992 18.9890205,12.7029629 18.9678223,12.5590517 Z M14.1204978,10.661602 C14.4154716,7.53219067 15.2077358,3.58885692e-07 16,0 C16.7922643,-3.58885766e-07 17.5845287,7.53219313 17.8795007,10.6616008 C17.365212,10.2477113 16.711534,10 16,10 C15.2884653,10 14.6347868,10.2477118 14.1204978,10.661602 Z M16,15 C14.8954304,15 14,14.1045696 14,13 C14,11.8954304 14.8954304,11 16,11 C17.1045696,11 18,11.8954304 18,13 C18,14.1045696 17.1045696,15 16,15 Z M16,15" id="Triangle 25"></path>
        </g>
    </g>
</svg>