<?xml version="1.0" encoding="UTF-8" standalone="no"?>
<svg width="32px" height="32px" viewBox="0 0 32 32" version="1.1" xmlns="http://www.w3.org/2000/svg" xmlns:xlink="http://www.w3.org/1999/xlink" xmlns:sketch="http://www.bohemiancoding.com/sketch/ns">
    <title>99 Wind Wheel</title>
    <description>Created with Sketch (http://www.bohemiancoding.com/sketch)</description>
    <defs></defs>
    <g id="Icons new Arranged Names" stroke="none" stroke-width="1" fill="none" fill-rule="evenodd">
        <g id="99 Wind Wheel" fill="#000000">
            <path d="M17.1052841,15.7898303 L18,31 C18,31 17.5,32 16,32 C14.5,32 14,31 14,31 L14.8947159,15.7898303 C15.2367653,15.9254579 15.6096775,16 16,16 C16.3903225,16 16.7632347,15.9254579 17.1052841,15.7898303 Z M14.6269906,15.6680734 L5.15516546,19.4247593 C4.65105953,19.6246962 4.5457086,19.4880514 4.94019466,19.1114886 C4.94019466,19.1114886 10.2407189,14.0112659 11.539757,13.2612658 C12.0071338,12.9914257 12.4918531,13.0105169 13.0016023,13.0989889 C13.0379155,14.2191055 13.6882636,15.1840196 14.6269906,15.6680734 Z M14.3704836,10.4807116 L15.8545539,0.389034814 C15.9334564,-0.147502187 16.1044697,-0.170416394 16.2333396,0.359499957 C16.2333396,0.359499957 18,7.5 18,9 C18,9.54079779 17.7400336,9.95161236 17.4075518,10.3500243 C16.9877991,10.1266053 16.5086847,10 16,10 C15.3992209,10 14.8396884,10.1765973 14.3704836,10.4807116 Z M18.9960356,12.8444247 L26.9902806,19.1728392 C27.415484,19.5094393 27.3498217,19.6689983 26.8264657,19.5156447 C26.8264657,19.5156447 19.7592811,17.4753674 18.460243,16.7253675 C17.9940959,16.4562373 17.76823,16.0284606 17.5901924,15.5443436 C18.4369236,15.0140254 19,14.0727695 19,13 C19,12.9478188 18.9986678,12.8959488 18.9960356,12.8444247 Z M16,15 C14.8954304,15 14,14.1045696 14,13 C14,11.8954304 14.8954304,11 16,11 C17.1045696,11 18,11.8954304 18,13 C18,14.1045696 17.1045696,15 16,15 Z M16,15" id="Triangle 25 copy"></path>
        </g>
    </g>
</svg>