<?xml version="1.0" encoding="UTF-8" standalone="no"?>
<svg width="32px" height="32px" viewBox="0 0 32 32" version="1.1" xmlns="http://www.w3.org/2000/svg" xmlns:xlink="http://www.w3.org/1999/xlink" xmlns:sketch="http://www.bohemiancoding.com/sketch/ns">
    <title>12 Cloud Lightning Moon</title>
    <description>Created with Sketch (http://www.bohemiancoding.com/sketch)</description>
    <defs></defs>
    <g id="Icons new Arranged Names Color" stroke="none" stroke-width="1" fill="none" fill-rule="evenodd">
        <g id="12 Cloud Lightning Moon">
            <path d="M25.8105713,10.6348253 C24.6633579,9.61763533 23.1538072,9 21.5,9 C20.8592769,9 20.2402063,9.09270499 19.6554697,9.26543304 C18.77388,7.8429864 17.5069034,6.68446936 16.0003375,5.93569063 C16.0290744,3.19918384 17.8897541,0.901824722 20.4141963,0.211793892 C20.9193401,0.0737178024 21.4510612,0 22,0 C22.2466982,0 22.489919,0.0148886931 22.7288129,0.0438165372 C22.2678947,0.750059906 22,1.59374485 22,2.5 C22,4.9852815 24.0147185,7 26.5,7 C27.0081591,7 27.4966455,6.9157708 27.9522593,6.76051208 C27.7554765,8.31622688 26.9629956,9.6862495 25.8105713,10.6348253 Z M25.8105713,10.6348253" id="Oval 20 copy 6" fill="#FCFF73"></path>
            <path d="M-0.00384521484,19 C-0.00384521484,16.7828376 1.20369465,14.8416411 2.99826831,13.8029948 C3.10306096,8.92340284 7.09142769,5 11.9961548,5 C15.2296522,5 18.064876,6.7052115 19.6516245,9.26543304 C20.236361,9.09270499 20.8554317,9 21.4961548,9 C24.2807079,9 26.6563049,10.7509485 27.5819975,13.2118973 C30.1258588,13.9074543 31.9961548,16.2353674 31.9961548,19 C31.9961548,22.3069658 29.3097846,25 25.9959791,25 L20.9961548,25 L23.9961548,22 L18.9961548,22 L21.9961548,16 L12.9961548,16 L9.72342751,25 L5.99633045,25 C2.68313273,25 -0.00384521484,22.3137085 -0.00384521484,19 Z M-0.00384521484,19" id="Rectangle 1 copy 6" fill="#C6C6C6"></path>
            <path d="M14.7142857,18 L19,18 L16.5510204,23 L20,23 L13,30 L14.4285714,25 L12,25 Z M14.7142857,18" id="Rectangle 297 copy 3" fill="#FAFF00"></path>
        </g>
    </g>
</svg>