<?xml version="1.0" encoding="UTF-8" standalone="no"?>
<svg width="32px" height="32px" viewBox="0 0 32 32" version="1.1" xmlns="http://www.w3.org/2000/svg" xmlns:xlink="http://www.w3.org/1999/xlink" xmlns:sketch="http://www.bohemiancoding.com/sketch/ns">
    <title>13 Cloud Wind</title>
    <description>Created with Sketch (http://www.bohemiancoding.com/sketch)</description>
    <defs></defs>
    <g id="Icons new Arranged Names Color" stroke="none" stroke-width="1" fill="none" fill-rule="evenodd">
        <g id="13 Cloud Wind">
            <path d="M0,14 C0,11.7828376 1.20753986,9.84164113 3.00211353,8.8029948 C3.10690617,3.92340284 7.0952729,0 12,0 C15.2334975,0 18.0687212,1.7052115 19.6554697,4.26543304 C20.2402063,4.09270499 20.8592769,4 21.5,4 C24.2845531,4 26.6601501,5.75094853 27.5858427,8.21189728 C30.129704,8.9074543 32,11.2353674 32,14 C32,17.3069658 29.3136299,20 25.9998243,20 L6.00017566,20 C2.68697795,20 0,17.3137085 0,14 Z M0,14" id="Rectangle 1 copy 2" fill="#C6C6C6"></path>
            <path d="M18.9975446,22 L26,22 L27.0093689,22 C28.6569304,22 30,23.3431458 30,25 C30,26.6534829 28.6610488,28 27.0093689,28 L26,28 L25.0093689,28 C24.4433532,28 24,27.5522847 24,27 C24,26.4438648 24.4519098,26 25.0093689,26 L26,26 L26.9906311,26 C27.5529553,26 28,25.5561352 28,25 C28,24.4477153 27.5525106,24 27.0014977,24 L26,24 L18.9975446,24 C18.4463114,24 18,23.5522847 18,23 C18,22.4438648 18.446616,22 18.9975446,22 Z M2.99339768,26 L12,26 L13.0014977,26 C13.5529553,26 14,25.5561352 14,25 C14,24.4477153 13.5525106,24 13.0014977,24 L12,24 L11.0093689,24 C10.4433532,24 10,23.5522847 10,23 C10,22.4438648 10.4519098,22 11.0093689,22 L12,22 L12.9906311,22 L13.0093689,22 C14.6569304,22 16,23.3431458 16,25 C16,25.3504215 15.9398623,25.6870559 15.829358,26 L18,26 L19.0066023,26 C20.6569304,26 22,27.3431458 22,29 C22,30.6534829 20.6610488,32 19.0093689,32 L18,32 L17.0093689,32 C16.4433532,32 16,31.5522847 16,31 C16,30.4438648 16.4519098,30 17.0093689,30 L18,30 L18.9906311,30 C19.5529553,30 20,29.5561352 20,29 C20,28.4477153 19.5525106,28 19.0014977,28 L18,28 L13.0093689,28 L12,28 L7.99850233,28 L2.99339768,28 C2.44494629,28 2,27.5522847 2,27 C2,26.4438648 2.44475929,26 2.99339768,26 Z M2.99339768,26" id="Rectangle 323 copy 3" fill="#6A6A6A"></path>
        </g>
    </g>
</svg>