<?xml version="1.0" encoding="UTF-8" standalone="no"?>
<svg width="32px" height="32px" viewBox="0 0 32 32" version="1.1" xmlns="http://www.w3.org/2000/svg" xmlns:xlink="http://www.w3.org/1999/xlink" xmlns:sketch="http://www.bohemiancoding.com/sketch/ns">
    <title>14 Cloud Raindrop</title>
    <description>Created with Sketch (http://www.bohemiancoding.com/sketch)</description>
    <defs></defs>
    <g id="Icons new Arranged Names Color" stroke="none" stroke-width="1" fill="none" fill-rule="evenodd">
        <g id="14 Cloud Raindrop">
            <path d="M0,19 C0,16.7828376 1.20739478,14.8416411 3.00175283,13.8029948 C3.10653288,8.92340284 7.09442042,5 11.9985582,5 C15.2316672,5 18.0665503,6.7052115 19.6531082,9.26543304 C20.2377744,9.09270499 20.8567707,9 21.4974168,9 C24.2816354,9 26.6569469,10.7509485 27.5825283,13.2118973 C30.126084,13.9074543 31.9961552,16.2353674 31.9961552,19 C31.9961552,22.3069658 29.3101079,25 25.9967005,25 L20.5168357,25 C19.2626141,21.7154248 16,18.0063477 16,18.0063477 C16,18.0063477 12.737386,21.7154248 11.4831644,25 L5.99945475,25 C2.68665511,25 0,22.3137085 0,19 Z M0,19" id="Rectangle 1 copy 2" fill="#C6C6C6"></path>
            <path d="M13,25.4736842 C13.0000001,23.7894737 16,20 16,20 C16,20 19,23.7894737 19,25.4736842 C19,26.86893 17.6568543,28 16,28 C14.3431457,28 13,26.86893 13,25.4736842 Z M13,25.4736842" id="Oval 207 copy 4" fill="#006FD1"></path>
        </g>
    </g>
</svg>