<?xml version="1.0" encoding="UTF-8" standalone="no"?>
<svg width="32px" height="32px" viewBox="0 0 32 32" version="1.1" xmlns="http://www.w3.org/2000/svg" xmlns:xlink="http://www.w3.org/1999/xlink" xmlns:sketch="http://www.bohemiancoding.com/sketch/ns">
    <title>15 Cloud Raindrop Sun</title>
    <description>Created with Sketch (http://www.bohemiancoding.com/sketch)</description>
    <defs></defs>
    <g id="Icons new Arranged Names Color" stroke="none" stroke-width="1" fill="none" fill-rule="evenodd">
        <g id="15 Cloud Raindrop Sun">
            <path d="M28,11.0038452 C28,10.44771 28.4519098,10.0038452 29.0093689,10.0038452 L30.9906311,10.0038452 C31.5566468,10.0038452 32,10.4515605 32,11.0038452 C32,11.5599804 31.5480902,12.0038452 30.9906311,12.0038452 L29.0093689,12.0038452 C28.4433532,12.0038452 28,11.55613 28,11.0038452 Z M20.9961548,4 C20.4400196,4 19.9961548,3.54809015 19.9961548,2.9906311 L19.9961548,1.0093689 C19.9961548,0.443353176 20.44387,0 20.9961548,0 C21.55229,0 21.9961548,0.451909848 21.9961548,1.0093689 L21.9961548,2.9906311 C21.9961548,3.55664682 21.5484395,4 20.9961548,4 Z M28.7770484,3.22295164 C29.1702953,3.6161986 29.1646066,4.24960694 28.7704235,4.64379002 L27.3694596,6.04475396 C26.969226,6.44498751 26.3391455,6.44190306 25.9486212,6.05137877 C25.5553743,5.65813181 25.561063,5.02472347 25.955246,4.6305404 L27.35621,3.22957645 C27.7564435,2.8293429 28.3865241,2.83242735 28.7770484,3.22295164 Z M20.9961548,17 C17.6824461,17 14.9961548,14.3137087 14.9961548,11 C14.9961548,7.68629134 17.6824461,5 20.9961548,5 C24.3098634,5 26.9961548,7.68629134 26.9961548,11 C26.9961548,14.3137087 24.3098634,17 20.9961548,17 Z M20.9961548,17" id="Rectangle 1 copy 4" fill="#FAFF00"></path>
            <path d="M3.00175283,13.8093425 C3.10653288,8.92975049 7.09442042,5.00634766 11.9985582,5.00634766 C15.2316672,5.00634766 18.0665503,6.71155916 19.6531082,9.27178069 C20.2377744,9.09905264 20.8567707,9.00634766 21.4974168,9.00634766 C24.2816354,9.00634766 26.6569469,10.7572962 27.5825283,13.2182449 C30.126084,13.913802 31.9961552,16.2417151 31.9961552,19.0063477 C31.9961552,22.3133134 29.3101079,25.0063477 25.9967005,25.0063477 L20.5192573,25.0063477 C19.2668063,21.7201906 16,18.0063477 16,18.0063477 C16,18.0063477 12.7331939,21.7201906 11.4807428,25.0063477 L5.99945475,25.0063477 C2.68665511,25.0063477 0,22.3200562 0,19.0063477 C0,16.7891852 1.20739478,14.8479888 3.00175283,13.8093425 Z M3.00175283,13.8093425" id="Rectangle 1 copy 3" fill="#C6C6C6"></path>
            <path d="M13,25.4736842 C13.0000001,23.7894737 16,20 16,20 C16,20 19,23.7894737 19,25.4736842 C19,26.86893 17.6568543,28 16,28 C14.3431457,28 13,26.86893 13,25.4736842 Z M13,25.4736842" id="Oval 207 copy 5" fill="#006FD1"></path>
        </g>
    </g>
</svg>