<?xml version="1.0" encoding="UTF-8" standalone="no"?>
<svg width="32px" height="32px" viewBox="0 0 32 32" version="1.1" xmlns="http://www.w3.org/2000/svg" xmlns:xlink="http://www.w3.org/1999/xlink" xmlns:sketch="http://www.bohemiancoding.com/sketch/ns">
    <title>16 Cloud Raindrop Moon</title>
    <description>Created with Sketch (http://www.bohemiancoding.com/sketch)</description>
    <defs></defs>
    <g id="Icons new Arranged Names Color" stroke="none" stroke-width="1" fill="none" fill-rule="evenodd">
        <g id="16 Cloud Raindrop Moon">
            <path d="M26.5,7 C27.0081591,7 27.4966455,6.9157708 27.9522593,6.76051208 C27.5785257,9.71515487 25.0560901,12 22,12 C18.6862913,12 16,9.31370866 16,6 C16,3.23523019 17.8700035,0.907223355 20.4141963,0.211793892 C20.9193401,0.0737178024 21.4510612,0 22,0 C22.2466982,0 22.489919,0.0148886931 22.7288129,0.0438165372 C22.2678947,0.750059906 22,1.59374485 22,2.5 C22,4.9852815 24.0147185,7 26.5,7 Z M26.5,7" id="Oval 20 copy 4" fill="#FCFF73"></path>
            <path d="M3.00175283,13.8093425 C3.10653288,8.92975049 7.09442042,5.00634766 11.9985582,5.00634766 C15.2316672,5.00634766 18.0665503,6.71155916 19.6531082,9.27178069 C20.2377744,9.09905264 20.8567707,9.00634766 21.4974168,9.00634766 C24.2816354,9.00634766 26.6569469,10.7572962 27.5825283,13.2182449 C30.126084,13.913802 31.9961552,16.2417151 31.9961552,19.0063477 C31.9961552,22.3133134 29.3101079,25.0063477 25.9967005,25.0063477 L20.5192573,25.0063477 C19.2668063,21.7201906 16,18.0063477 16,18.0063477 C16,18.0063477 12.7331939,21.7201906 11.4807428,25.0063477 L5.99945475,25.0063477 C2.68665511,25.0063477 0,22.3200562 0,19.0063477 C0,16.7891852 1.20739478,14.8479888 3.00175283,13.8093425 Z M3.00175283,13.8093425" id="Rectangle 1 copy 4" fill="#C6C6C6"></path>
            <path d="M13,25.4736842 C13.0000001,23.7894737 16,20 16,20 C16,20 19,23.7894737 19,25.4736842 C19,26.86893 17.6568543,28 16,28 C14.3431457,28 13,26.86893 13,25.4736842 Z M13,25.4736842" id="Oval 207 copy 6" fill="#006FD1"></path>
        </g>
    </g>
</svg>