<?xml version="1.0" encoding="UTF-8" standalone="no"?>
<svg width="32px" height="32px" viewBox="0 0 32 32" version="1.1" xmlns="http://www.w3.org/2000/svg" xmlns:xlink="http://www.w3.org/1999/xlink" xmlns:sketch="http://www.bohemiancoding.com/sketch/ns">
    <title>17 Cloud Snowflake</title>
    <description>Created with Sketch (http://www.bohemiancoding.com/sketch)</description>
    <defs></defs>
    <g id="Icons new Arranged Names Color" stroke="none" stroke-width="1" fill="none" fill-rule="evenodd">
        <g id="17 Cloud Snowflake">
            <path d="M3.00211353,13.8029948 C3.10690617,8.92340284 7.0952729,5 12,5 C15.2334975,5 18.0687212,6.7052115 19.6554697,9.26543304 C20.2402063,9.09270499 20.8592769,9 21.5,9 C24.2845531,9 26.6601501,10.7509485 27.5858427,13.2118973 C30.129704,13.9074543 32,16.2353674 32,19 C32,22.3069658 29.3136299,25 25.9998243,25 L21.7148344,25 C21.8958259,24.702011 22,24.3516324 22,23.9752143 C22,22.9339695 21.1960832,22.0809033 20.1670738,22.0054287 C20.2295001,21.4327672 20.0413918,20.8385843 19.5994949,20.3966875 C19.1604647,19.9576572 18.5666262,19.7680587 17.9931196,19.8294792 C17.9085884,18.8049558 17.055372,18 16,18 C14.9522574,18 14.0926882,18.801475 14.0070166,19.8280728 C13.4377255,19.7710646 12.8497815,19.9611196 12.4142136,20.3966875 C11.9725618,20.8383392 11.7844172,21.4321082 11.8465311,22.0044759 C10.8151216,22.0730918 10,22.922279 10,23.9752143 C10,24.3504397 10.1043974,24.7012279 10.2861072,25 L6.00017566,25 C2.68697795,25 0,22.3137085 0,19 C0,16.7828376 1.20753986,14.8416411 3.00211353,13.8029948 Z M3.00211353,13.8029948" id="Rectangle 1 copy 4" fill="#C6C6C6"></path>
            <path d="M16,29 C15.4438648,29 15,28.5543453 15,28.0046024 L15,26.4142136 L14.5836864,26.8305271 C14.1990247,27.2151889 13.5620972,27.2189514 13.1715729,26.8284271 C12.7783259,26.4351802 12.7801084,25.8056781 13.1694729,25.4163136 L13.5857864,25 L11.9953976,25 C11.4556644,25 11,24.5522847 11,24 C11,23.4438648 11.4456547,23 11.9953976,23 L13.5857864,23 L13.1694729,22.5836864 C12.7848111,22.1990247 12.7810486,21.5620972 13.1715729,21.1715729 C13.5648198,20.7783259 14.1943219,20.7801084 14.5836864,21.1694729 L15,21.5857864 L15,19.9953976 C15,19.4556644 15.4477153,19 16,19 C16.5561352,19 17,19.4456547 17,19.9953976 L17,21.5857864 L17.4163136,21.1694729 C17.8009753,20.7848111 18.4379028,20.7810486 18.8284271,21.1715729 C19.2216741,21.5648198 19.2198916,22.1943219 18.8305271,22.5836864 L18.4142136,23 L20.0046024,23 C20.5443356,23 21,23.4477153 21,24 C21,24.5561352 20.5543453,25 20.0046024,25 L18.4142136,25 L18.8305271,25.4163136 C19.2151889,25.8009753 19.2189514,26.4379028 18.8284271,26.8284271 C18.4351802,27.2216741 17.8056781,27.2198916 17.4163136,26.8305271 L17,26.4142136 L17,28.0046024 C17,28.5443356 16.5522847,29 16,29 Z M15,24 C15,24.5522847 15.4438648,25 16,25 C16.5522847,25 17,24.5561352 17,24 C17,23.4477153 16.5561352,23 16,23 C15.4477153,23 15,23.4438648 15,24 Z M15,24" id="Rectangle 3 copy 6" fill="#A3A3A3"></path>
        </g>
    </g>
</svg>