<?xml version="1.0" encoding="UTF-8" standalone="no"?>
<svg width="32px" height="32px" viewBox="0 0 32 32" version="1.1" xmlns="http://www.w3.org/2000/svg" xmlns:xlink="http://www.w3.org/1999/xlink" xmlns:sketch="http://www.bohemiancoding.com/sketch/ns">
    <title>2 Cloud Sun</title>
    <description>Created with Sketch (http://www.bohemiancoding.com/sketch)</description>
    <defs></defs>
    <g id="Icons new Arranged Names Color" stroke="none" stroke-width="1" fill="none" fill-rule="evenodd">
        <g id="2 Cloud Sun">
            <path d="M28.0038452,11.0038452 C28.0038452,10.44771 28.4557551,10.0038452 29.0132141,10.0038452 L30.9944763,10.0038452 C31.560492,10.0038452 32.0038452,10.4515605 32.0038452,11.0038452 C32.0038452,11.5599804 31.5519354,12.0038452 30.9944763,12.0038452 L29.0132141,12.0038452 C28.4471984,12.0038452 28.0038452,11.55613 28.0038452,11.0038452 Z M21,4 C20.4438648,4 20,3.54809015 20,2.9906311 L20,1.0093689 C20,0.443353176 20.4477153,0 21,0 C21.5561352,0 22,0.451909848 22,1.0093689 L22,2.9906311 C22,3.55664682 21.5522847,4 21,4 Z M28.7808936,3.22295164 C29.1741405,3.6161986 29.1684518,4.24960694 28.7742688,4.64379002 L27.3733048,6.04475396 C26.9730713,6.44498751 26.3429907,6.44190306 25.9524664,6.05137877 C25.5592195,5.65813181 25.5649082,5.02472347 25.9590913,4.6305404 L27.3600552,3.22957645 C27.7602888,2.8293429 28.3903693,2.83242735 28.7808936,3.22295164 Z M21,17 C17.6862913,17 15,14.3137087 15,11 C15,7.68629134 17.6862913,5 21,5 C24.3137087,5 27,7.68629134 27,11 C27,14.3137087 24.3137087,17 21,17 Z M21,17" id="Rectangle 1 copy 3" fill="#FAFF00"></path>
            <path d="M0,19 C0,16.7828376 1.20753986,14.8416411 3.00211353,13.8029948 C3.10690617,8.92340284 7.0952729,5 12,5 C15.2334975,5 18.0687212,6.7052115 19.6554697,9.26543304 C20.2402063,9.09270499 20.8592769,9 21.5,9 C24.2845531,9 26.6601501,10.7509485 27.5858427,13.2118973 C30.129704,13.9074543 32,16.2353674 32,19 C32,22.3069658 29.3136299,25 25.9998243,25 L6.00017566,25 C2.68697795,25 0,22.3137085 0,19 Z M0,19" id="Rectangle 1" fill="#C6C6C6"></path>
        </g>
    </g>
</svg>