<?xml version="1.0" encoding="UTF-8" standalone="no"?>
<svg width="32px" height="32px" viewBox="0 0 32 32" version="1.1" xmlns="http://www.w3.org/2000/svg" xmlns:xlink="http://www.w3.org/1999/xlink" xmlns:sketch="http://www.bohemiancoding.com/sketch/ns">
    <title>32 Cloud Rain Moon</title>
    <description>Created with Sketch (http://www.bohemiancoding.com/sketch)</description>
    <defs></defs>
    <g id="Icons new Arranged Names Color" stroke="none" stroke-width="1" fill="none" fill-rule="evenodd">
        <g id="32 Cloud Rain Moon">
            <path d="M0,19 C0,16.7828376 1.20753986,14.8416411 3.00211353,13.8029948 C3.10690617,8.92340284 7.0952729,5 12,5 C15.2334975,5 18.0687212,6.7052115 19.6554697,9.26543304 C20.2402063,9.09270499 20.8592769,9 21.5,9 C24.2845531,9 26.6601501,10.7509485 27.5858427,13.2118973 C30.129704,13.9074543 32,16.2353674 32,19 C32,22.3069658 29.3136299,25 25.9998243,25 L6.00017566,25 C2.68697795,25 0,22.3137085 0,19 Z M25.9725356,15 C25.7238035,12.7500155 23.8162709,11 21.5,11 C20.4427534,11 19.4706636,11.3645993 18.7026063,11.974922 C17.8340685,9.0963276 15.1618462,7 12,7 C8.13400656,7 5,10.1340066 5,14 C5,14.3757911 5.0296122,14.7446659 5.08663046,15.1044183 C3.31778819,15.5175755 2,17.1080834 2,19 C2,21.209139 3.79412025,23 5.99683887,23 L26.0031611,23 C28.2105543,23 30,21.2046438 30,19 C30,16.790861 28.2058797,15 26.0031611,15 Z M25.9725356,15" id="Oval 20 copy 5" fill="#C6C6C6"></path>
            <path d="M25.8102338,10.6348253 C24.6630204,9.61763533 23.1534697,9 21.4996625,9 C20.8589394,9 20.2398687,9.09270499 19.6551322,9.26543304 C18.7735424,7.8429864 17.5065659,6.68446936 16,5.93569063 C16.0287369,3.19918384 17.8894166,0.901824722 20.4138587,0.211793892 C20.9190025,0.0737178024 21.4507236,0 21.9996625,0 C22.2463607,0 22.4895815,0.0148886931 22.7284753,0.0438165372 C22.2675572,0.750059906 21.9996625,1.59374485 21.9996625,2.5 C21.9996625,4.9852815 24.014381,7 26.4996625,7 C27.0078216,7 27.4963079,6.9157708 27.9519218,6.76051208 C27.755139,8.31622688 26.9626581,9.6862495 25.8102338,10.6348253 Z M25.8102338,10.6348253" id="Oval 20 copy 8" fill="#FCFF73"></path>
            <path d="M24,30 C23.4438648,30 23,29.5480902 23,28.9906311 L23,27.0093689 C23,26.4433532 23.4477153,26 24,26 C24.5561352,26 25,26.4519098 25,27.0093689 L25,28.9906311 C25,29.5566468 24.5522847,30 24,30 Z M16,30 C15.4438648,30 15,29.5480902 15,28.9906311 L15,27.0093689 C15,26.4433532 15.4477153,26 16,26 C16.5561352,26 17,26.4519098 17,27.0093689 L17,28.9906311 C17,29.5566468 16.5522847,30 16,30 Z M12,32 C11.4438648,32 11,31.5480902 11,30.9906311 L11,29.0093689 C11,28.4433532 11.4477153,28 12,28 C12.5561352,28 13,28.4519098 13,29.0093689 L13,30.9906311 C13,31.5566468 12.5522847,32 12,32 Z M8,30 C7.44386482,30 7,29.5480902 7,28.9906311 L7,27.0093689 C7,26.4433532 7.44771525,26 8,26 C8.55613518,26 9,26.4519098 9,27.0093689 L9,28.9906311 C9,29.5566468 8.55228475,30 8,30 Z M20,32 C19.4438648,32 19,31.5480902 19,30.9906311 L19,29.0093689 C19,28.4433532 19.4477153,28 20,28 C20.5561352,28 21,28.4519098 21,29.0093689 L21,30.9906311 C21,31.5566468 20.5522847,32 20,32 Z M20,32" id="Rectangle 1 copy 7" fill="#006FD2"></path>
        </g>
    </g>
</svg>