<?xml version="1.0" encoding="UTF-8" standalone="no"?>
<svg width="32px" height="32px" viewBox="0 0 32 32" version="1.1" xmlns="http://www.w3.org/2000/svg" xmlns:xlink="http://www.w3.org/1999/xlink" xmlns:sketch="http://www.bohemiancoding.com/sketch/ns">
    <title>33 Cloud Snow</title>
    <description>Created with Sketch (http://www.bohemiancoding.com/sketch)</description>
    <defs></defs>
    <g id="Icons new Arranged Names Color" stroke="none" stroke-width="1" fill="none" fill-rule="evenodd">
        <g id="33 Cloud Snow">
            <path d="M2.9821733,13.8029948 C3.08696595,8.92340284 7.07533268,5 11.9800598,5 C15.2135572,5 18.048781,6.7052115 19.6355295,9.26543304 C20.220266,9.09270499 20.8393367,9 21.4800598,9 C24.2646129,9 26.6402099,10.7509485 27.5659024,13.2118973 C30.1097638,13.9074543 31.9800598,16.2353674 31.9800598,19 C31.9800598,22.3069658 29.2936896,25 25.9798841,25 L5.98023544,25 C2.66703772,25 -0.0199402272,22.3137085 -0.0199402272,19 C-0.0199402272,16.7828376 1.18759963,14.8416411 2.9821733,13.8029948 Z M21.4800598,11 C20.4228132,11 19.4507234,11.3645993 18.6826661,11.974922 C17.8141283,9.0963276 15.141906,7 11.9800598,7 C8.11406633,7 4.98005977,10.1340066 4.98005977,14 C4.98005977,14.3757911 5.00967197,14.7446659 5.06669023,15.1044183 C3.29784796,15.5175755 1.98005977,17.1080834 1.98005977,19 C1.98005977,21.209139 3.77418002,23 5.97689864,23 L25.9832209,23 C28.1906141,23 29.9800598,21.2046438 29.9800598,19 C29.9800598,16.790861 28.1859395,15 25.9832209,15 C25.7038633,12.7500155 23.7963307,11 21.4800598,11 Z M21.4800598,11" id="Oval 20 copy 6" fill="#C6C6C6"></path>
            <path d="M7,28 C7,27.4438648 7.44771525,27 8,27 C8.55613518,27 9,27.4477153 9,28 C9,28.5561352 8.55228475,29 8,29 C7.44386482,29 7,28.5522847 7,28 Z M11,31 C11,30.4438648 11.4477153,30 12,30 C12.5561352,30 13,30.4477153 13,31 C13,31.5561352 12.5522847,32 12,32 C11.4438648,32 11,31.5522847 11,31 Z M19,31 C19,30.4438648 19.4477153,30 20,30 C20.5561352,30 21,30.4477153 21,31 C21,31.5561352 20.5522847,32 20,32 C19.4438648,32 19,31.5522847 19,31 Z M15,28 C15,27.4438648 15.4477153,27 16,27 C16.5561352,27 17,27.4477153 17,28 C17,28.5561352 16.5522847,29 16,29 C15.4438648,29 15,28.5522847 15,28 Z M23,28 C23,27.4438648 23.4477153,27 24,27 C24.5561352,27 25,27.4477153 25,28 C25,28.5561352 24.5522847,29 24,29 C23.4438648,29 23,28.5522847 23,28 Z M23,28" id="Rectangle 1 copy 4" fill="#797979"></path>
        </g>
    </g>
</svg>