<?xml version="1.0" encoding="UTF-8" standalone="no"?>
<svg width="32px" height="32px" viewBox="0 0 32 32" version="1.1" xmlns="http://www.w3.org/2000/svg" xmlns:xlink="http://www.w3.org/1999/xlink" xmlns:sketch="http://www.bohemiancoding.com/sketch/ns">
    <title>37 Cloud Lightning Sun</title>
    <description>Created with Sketch (http://www.bohemiancoding.com/sketch)</description>
    <defs></defs>
    <g id="Icons new Arranged Names Color" stroke="none" stroke-width="1" fill="none" fill-rule="evenodd">
        <g id="37 Cloud Lightning Sun">
            <path d="M25.9725356,15 C25.7238035,12.7500155 23.8162709,11 21.5,11 C20.4427534,11 19.4706636,11.3645993 18.7026063,11.974922 C17.8340685,9.0963276 15.1618462,7 12,7 C8.13400656,7 5,10.1340066 5,14 C5,14.3757911 5.0296122,14.7446659 5.08663046,15.1044183 C3.31778819,15.5175755 2,17.1080834 2,19 C2,21.209139 3.79412025,23 5.99683887,23 L10.6,23 L9.8,25 L6.00017566,25 C2.68697795,25 0,22.3137085 0,19 C0,16.7828376 1.20753986,14.8416411 3.00211353,13.8029948 C3.10690617,8.92340284 7.0952729,5 12,5 C15.2334975,5 18.0687212,6.7052115 19.6554697,9.26543304 C20.2402063,9.09270499 20.8592769,9 21.5,9 C24.2845531,9 26.6601501,10.7509485 27.5858427,13.2118973 C30.129704,13.9074543 32,16.2353674 32,19 C32,22.3069658 29.3136299,25 25.9998243,25 L21,25 L23,23 L26.0031611,23 C28.2105543,23 30,21.2046438 30,19 C30,16.790861 28.2058797,15 26.0031611,15 Z M25.9725356,15" id="Rectangle 1 copy 4" fill="#C6C6C6"></path>
            <path d="M14.7142857,18 L19,18 L16.5510204,23 L20,23 L13,30 L14.4285714,25 L12,25 Z M14.7142857,18" id="Rectangle 297 copy 2" fill="#FAFF00"></path>
            <path d="M21,4 C20.4438648,4 20,3.54809015 20,2.9906311 L20,1.0093689 C20,0.443353176 20.4477153,0 21,0 C21.5561352,0 22,0.451909848 22,1.0093689 L22,2.9906311 C22,3.55664682 21.5522847,4 21,4 Z M25.9524664,6.05137877 C25.5592195,5.65813181 25.5649082,5.02472347 25.9590913,4.6305404 L27.3600552,3.22957645 C27.7602888,2.8293429 28.3903693,2.83242735 28.7808936,3.22295164 C29.1741405,3.6161986 29.1684518,4.24960694 28.7742688,4.64379002 L27.3733048,6.04475396 C26.9730713,6.44498751 26.3429907,6.44190306 25.9524664,6.05137877 Z M17.0078268,6.52079393 C18.0683988,5.57487307 19.467065,5 21,5 C24.3137087,5 27,7.68629134 27,11 C27,11.3144466 26.975811,11.6232436 26.9291922,11.9246316 C25.7664805,10.162615 23.769012,9 21.5,9 C20.8592769,9 20.2402063,9.09270499 19.6554697,9.26543304 C18.9782859,8.17279576 18.0737092,7.23588699 17.0078268,6.52079393 Z M28.0038452,11.0038452 C28.0038452,10.44771 28.4557551,10.0038452 29.0132141,10.0038452 L30.9944763,10.0038452 C31.560492,10.0038452 32.0038452,10.4515605 32.0038452,11.0038452 C32.0038452,11.5599804 31.5519354,12.0038452 30.9944763,12.0038452 L29.0132141,12.0038452 C28.4471984,12.0038452 28.0038452,11.55613 28.0038452,11.0038452 Z M28.0038452,11.0038452" id="Rectangle 1 copy 7" fill="#FAFF00"></path>
        </g>
    </g>
</svg>