<?xml version="1.0" encoding="UTF-8" standalone="no"?>
<svg width="32px" height="32px" viewBox="0 0 32 32" version="1.1" xmlns="http://www.w3.org/2000/svg" xmlns:xlink="http://www.w3.org/1999/xlink" xmlns:sketch="http://www.bohemiancoding.com/sketch/ns">
    <title>41Cloud Raindrop Sun</title>
    <description>Created with Sketch (http://www.bohemiancoding.com/sketch)</description>
    <defs></defs>
    <g id="Icons new Arranged Names Color" stroke="none" stroke-width="1" fill="none" fill-rule="evenodd">
        <g id="41Cloud Raindrop Sun">
            <path d="M21.5051068,11.0063477 C20.4479872,11.0063477 19.4760142,11.3709469 18.7080492,11.9812697 C17.8396158,9.10267526 15.1677145,7.00634766 12.0062482,7.00634766 C8.14071924,7.00634766 5.00708923,10.1403542 5.00708923,14.0063477 C5.00708923,14.3821388 5.03669787,14.7510136 5.09370928,15.1107659 C3.32507953,15.5239232 2.00744967,17.1144311 2.00744967,19.0063477 C2.00744967,21.2154867 3.80135436,23.0063477 6.00380832,23.0063477 L12.2791224,23.0063477 C11.8574724,23.7023672 11.4978721,24.3895218 11.2698195,25.0063477 L6.00714472,25.0063477 C2.69434508,25.0063477 0.00768996769,22.3200562 0.00768996769,19.0063477 C0.00768996769,16.7891852 1.21508474,14.8479888 3.0094428,13.8093425 C3.11422285,8.92975049 7.10211038,5.00634766 12.0062482,5.00634766 C15.2393571,5.00634766 18.0742402,6.71155916 19.6607981,9.27178069 C20.2454644,9.09905264 20.8644607,9.00634766 21.5051068,9.00634766 C24.2893254,9.00634766 26.6646369,10.7572962 27.5902182,13.2182449 C30.133774,13.913802 32.0038452,16.2417151 32.0038452,19.0063477 C32.0038452,22.3133134 29.3177978,25.0063477 26.0043905,25.0063477 L20.7455605,25.0063477 C20.5175079,24.3895218 20.1579076,23.7023672 19.7362576,23.0063477 L26.0077269,23.0063477 C28.2148548,23.0063477 30.0040855,21.2109915 30.0040855,19.0063477 C30.0040855,16.7972087 28.2101808,15.0063477 26.0077269,15.0063477 C25.7284028,12.7563632 23.8210994,11.0063477 21.5051068,11.0063477 Z M21.5051068,11.0063477" id="Rectangle 1 copy 2" fill="#C6C6C6"></path>
            <path d="M13,25.4736842 C13.0000001,23.7894737 16,20 16,20 C16,20 19,23.7894737 19,25.4736842 C19,26.86893 17.6568543,28 16,28 C14.3431457,28 13,26.86893 13,25.4736842 Z M13,25.4736842" id="Oval 207 copy 5" fill="#006FD1"></path>
            <path d="M20.9980774,4 C20.4419422,4 19.9980774,3.54809015 19.9980774,2.9906311 L19.9980774,1.0093689 C19.9980774,0.443353176 20.4457926,0 20.9980774,0 C21.5542126,0 21.9980774,0.451909848 21.9980774,1.0093689 L21.9980774,2.9906311 C21.9980774,3.55664682 21.5503621,4 20.9980774,4 Z M25.9505438,6.05137877 C25.5572969,5.65813181 25.5629856,5.02472347 25.9571686,4.6305404 L27.3581326,3.22957645 C27.7583661,2.8293429 28.3884467,2.83242735 28.778971,3.22295164 C29.1722179,3.6161986 29.1665292,4.24960694 28.7723462,4.64379002 L27.3713822,6.04475396 C26.9711487,6.44498751 26.3410681,6.44190306 25.9505438,6.05137877 Z M17.0059042,6.52079393 C18.0664762,5.57487307 19.4651424,5 20.9980774,5 C24.3117861,5 26.9980774,7.68629134 26.9980774,11 C26.9980774,11.3144466 26.9738884,11.6232436 26.9272696,11.9246316 C25.7645579,10.162615 23.7670893,9 21.4980774,9 C20.8573543,9 20.2382836,9.09270499 19.6535471,9.26543304 C18.9763633,8.17279576 18.0717866,7.23588699 17.0059042,6.52079393 Z M28.0019226,11.0038452 C28.0019226,10.44771 28.4538325,10.0038452 29.0112915,10.0038452 L30.9925537,10.0038452 C31.5585694,10.0038452 32.0019226,10.4515605 32.0019226,11.0038452 C32.0019226,11.5599804 31.5500128,12.0038452 30.9925537,12.0038452 L29.0112915,12.0038452 C28.4452758,12.0038452 28.0019226,11.55613 28.0019226,11.0038452 Z M28.0019226,11.0038452" id="Rectangle 1 copy 7" fill="#FAFF00"></path>
        </g>
    </g>
</svg>