<?xml version="1.0" encoding="UTF-8" standalone="no"?>
<svg width="32px" height="32px" viewBox="0 0 32 32" version="1.1" xmlns="http://www.w3.org/2000/svg" xmlns:xlink="http://www.w3.org/1999/xlink" xmlns:sketch="http://www.bohemiancoding.com/sketch/ns">
    <title>42 Cloud Raindrop Moon</title>
    <description>Created with Sketch (http://www.bohemiancoding.com/sketch)</description>
    <defs></defs>
    <g id="Icons new Arranged Names Color" stroke="none" stroke-width="1" fill="none" fill-rule="evenodd">
        <g id="42 Cloud Raindrop Moon">
            <path d="M21.5012616,11.0063477 C20.444142,11.0063477 19.472169,11.3709469 18.704204,11.9812697 C17.8357705,9.10267526 15.1638693,7.00634766 12.002403,7.00634766 C8.13687402,7.00634766 5.00324401,10.1403542 5.00324401,14.0063477 C5.00324401,14.3821388 5.03285265,14.7510136 5.08986406,15.1107659 C3.32123431,15.5239232 2.00360446,17.1144311 2.00360446,19.0063477 C2.00360446,21.2154867 3.79750915,23.0063477 5.99996311,23.0063477 L12.2752772,23.0063477 C11.8536272,23.7023672 11.4940269,24.3895218 11.2659743,25.0063477 L6.0032995,25.0063477 C2.69049986,25.0063477 0.00384475285,22.3200562 0.00384475285,19.0063477 C0.00384475285,16.7891852 1.21123953,14.8479888 3.00559758,13.8093425 C3.11037764,8.92975049 7.09826517,5.00634766 12.002403,5.00634766 C15.2355119,5.00634766 18.070395,6.71155916 19.6569529,9.27178069 C20.2416192,9.09905264 20.8606155,9.00634766 21.5012616,9.00634766 C24.2854801,9.00634766 26.6607917,10.7572962 27.586373,13.2182449 C30.1299287,13.913802 32,16.2417151 32,19.0063477 C32,22.3133134 29.3139526,25.0063477 26.0005452,25.0063477 L20.7417153,25.0063477 C20.5136627,24.3895218 20.1540624,23.7023672 19.7324124,23.0063477 L26.0038816,23.0063477 C28.2110096,23.0063477 30.0002403,21.2109915 30.0002403,19.0063477 C30.0002403,16.7972087 28.2063356,15.0063477 26.0038816,15.0063477 C25.7245576,12.7563632 23.8172542,11.0063477 21.5012616,11.0063477 Z M21.5012616,11.0063477" id="Rectangle 1 copy 3" fill="#C6C6C6"></path>
            <path d="M13,25.4736842 C13.0000001,23.7894737 16,20 16,20 C16,20 19,23.7894737 19,25.4736842 C19,26.86893 17.6568543,28 16,28 C14.3431457,28 13,26.86893 13,25.4736842 Z M13,25.4736842" id="Oval 207 copy 6" fill="#006FD1"></path>
            <path d="M25.8342729,10.6348253 C24.6870595,9.61763533 23.1775088,9 21.5237016,9 C20.8829785,9 20.2639078,9.09270499 19.6791713,9.26543304 C18.7975815,7.8429864 17.530605,6.68446936 16.0240391,5.93569063 C16.052776,3.19918384 17.9134557,0.901824722 20.4378978,0.211793892 C20.9430416,0.0737178024 21.4747627,0 22.0237016,0 C22.2703998,0 22.5136206,0.0148886931 22.7525144,0.0438165372 C22.2915963,0.750059906 22.0237016,1.59374485 22.0237016,2.5 C22.0237016,4.9852815 24.0384201,7 26.5237016,7 C27.0318607,7 27.520347,6.9157708 27.9759609,6.76051208 C27.7791781,8.31622688 26.9866972,9.6862495 25.8342729,10.6348253 Z M25.8342729,10.6348253" id="Oval 20 copy 8" fill="#FCFF73"></path>
        </g>
    </g>
</svg>