<?xml version="1.0" encoding="UTF-8" standalone="no"?>
<svg width="32px" height="32px" viewBox="0 0 32 32" version="1.1" xmlns="http://www.w3.org/2000/svg" xmlns:xlink="http://www.w3.org/1999/xlink" xmlns:sketch="http://www.bohemiancoding.com/sketch/ns">
    <title>44 Cloud Snowflake Sun</title>
    <description>Created with Sketch (http://www.bohemiancoding.com/sketch)</description>
    <defs></defs>
    <g id="Icons new Arranged Names Color" stroke="none" stroke-width="1" fill="none" fill-rule="evenodd">
        <g id="44 Cloud Snowflake Sun">
            <path d="M25.9763804,15 C25.7276483,12.7500155 23.8201157,11 21.5038448,11 C20.4465982,11 19.4745084,11.3645993 18.7064511,11.974922 C17.8379133,9.0963276 15.1656909,7 12.0038448,7 C8.13785131,7 5.00384475,10.1340066 5.00384475,14 C5.00384475,14.3757911 5.03345695,14.7446659 5.09047521,15.1044183 C3.32163294,15.5175755 2.00384475,17.1080834 2.00384475,19 C2.00384475,21.209139 3.797965,23 6.00068362,23 L9.2702121,23 C9.10076855,23.2934239 9.00384475,23.634595 9.00384475,24 C9.00384475,24.3642866 9.10141602,24.7058257 9.27197569,25 L6.00402042,25 C2.6908227,25 0.00384475285,22.3137085 0.00384475285,19 C0.00384475285,16.7828376 1.21138461,14.8416411 3.00595828,13.8029948 C3.11075093,8.92340284 7.09911766,5 12.0038448,5 C15.2373422,5 18.072566,6.7052115 19.6593145,9.26543304 C20.244051,9.09270499 20.8631217,9 21.5038448,9 C24.2883979,9 26.6639949,10.7509485 27.5896874,13.2118973 C30.1335488,13.9074543 32.0038448,16.2353674 32.0038448,19 C32.0038448,22.3069658 29.3174746,25 26.0036691,25 L22.7374774,25 C22.906921,24.7065761 23.0038448,24.365405 23.0038448,24 C23.0038448,23.6357134 22.9062735,23.2941743 22.7357138,23 L26.0070059,23 C28.214399,23 30.0038448,21.2046438 30.0038448,19 C30.0038448,16.790861 28.2097245,15 26.0070059,15 Z M25.9763804,15" id="Rectangle 1 copy 4" fill="#C6C6C6"></path>
            <path d="M15,28.0046024 L15,26.4142136 L14.5836864,26.8305271 C14.1990247,27.2151889 13.5620972,27.2189514 13.1715729,26.8284271 C12.7783259,26.4351802 12.7801084,25.8056781 13.1694729,25.4163136 L13.5857864,25 L11.9953976,25 C11.4556644,25 11,24.5522847 11,24 C11,23.4438648 11.4456547,23 11.9953976,23 L13.5857864,23 L13.1694729,22.5836864 C12.7848111,22.1990247 12.7810486,21.5620972 13.1715729,21.1715729 C13.5648198,20.7783259 14.1943219,20.7801084 14.5836864,21.1694729 L15,21.5857864 L15,19.9953976 C15,19.4556644 15.4477153,19 16,19 C16.5561352,19 17,19.4456547 17,19.9953976 L17,21.5857864 L17.4163136,21.1694729 C17.8009753,20.7848111 18.4379028,20.7810486 18.8284271,21.1715729 C19.2216741,21.5648198 19.2198916,22.1943219 18.8305271,22.5836864 L18.4142136,23 L20.0046024,23 C20.5443356,23 21,23.4477153 21,24 C21,24.5561352 20.5543453,25 20.0046024,25 L18.4142136,25 L18.8305271,25.4163136 C19.2151889,25.8009753 19.2189514,26.4379028 18.8284271,26.8284271 C18.4351802,27.2216741 17.8056781,27.2198916 17.4163136,26.8305271 L17,26.4142136 L17,28.0046024 C17,28.5443356 16.5522847,29 16,29 C15.4438648,29 15,28.5543453 15,28.0046024 Z M16,25 C16.5522847,25 17,24.5561352 17,24 C17,23.4477153 16.5561352,23 16,23 C15.4477153,23 15,23.4438648 15,24 C15,24.5522847 15.4438648,25 16,25 Z M16,25" id="Rectangle 3 copy 6" fill="#A3A3A3"></path>
            <path d="M21,4 C20.4438648,4 20,3.54809015 20,2.9906311 L20,1.0093689 C20,0.443353176 20.4477153,0 21,0 C21.5561352,0 22,0.451909848 22,1.0093689 L22,2.9906311 C22,3.55664682 21.5522847,4 21,4 Z M25.9524664,6.05137877 C25.5592195,5.65813181 25.5649082,5.02472347 25.9590913,4.6305404 L27.3600552,3.22957645 C27.7602888,2.8293429 28.3903693,2.83242735 28.7808936,3.22295164 C29.1741405,3.6161986 29.1684518,4.24960694 28.7742688,4.64379002 L27.3733048,6.04475396 C26.9730713,6.44498751 26.3429907,6.44190306 25.9524664,6.05137877 Z M17.0078268,6.52079393 C18.0683988,5.57487307 19.467065,5 21,5 C24.3137087,5 27,7.68629134 27,11 C27,11.3144466 26.975811,11.6232436 26.9291922,11.9246316 C25.7664805,10.162615 23.769012,9 21.5,9 C20.8592769,9 20.2402063,9.09270499 19.6554697,9.26543304 C18.9782859,8.17279576 18.0737092,7.23588699 17.0078268,6.52079393 Z M28.0038452,11.0038452 C28.0038452,10.44771 28.4557551,10.0038452 29.0132141,10.0038452 L30.9944763,10.0038452 C31.560492,10.0038452 32.0038452,10.4515605 32.0038452,11.0038452 C32.0038452,11.5599804 31.5519354,12.0038452 30.9944763,12.0038452 L29.0132141,12.0038452 C28.4471984,12.0038452 28.0038452,11.55613 28.0038452,11.0038452 Z M28.0038452,11.0038452" id="Rectangle 1 copy 4" fill="#FAFF00"></path>
        </g>
    </g>
</svg>