<?xml version="1.0" encoding="UTF-8" standalone="no"?>
<svg width="32px" height="32px" viewBox="0 0 32 32" version="1.1" xmlns="http://www.w3.org/2000/svg" xmlns:xlink="http://www.w3.org/1999/xlink" xmlns:sketch="http://www.bohemiancoding.com/sketch/ns">
    <title>57 Sunset</title>
    <description>Created with Sketch (http://www.bohemiancoding.com/sketch)</description>
    <defs></defs>
    <g id="Icons new Arranged Names Color" stroke="none" stroke-width="1" fill="none" fill-rule="evenodd">
        <g id="57 Sunset" fill="#FAFF00">
            <path d="M19.9988462,18.996965 C19.9988462,16.7884354 18.2085019,14.9980686 16,14.9980686 C13.7914981,14.9980686 12.0011538,16.7884354 12.0011538,18.996965 C12.0011538,19.3421741 12.0448954,19.6771667 12.1271349,19.9966891 L10.0846652,19.9966891 C10.0301205,19.6715608 10.0017307,19.3375784 10.0017307,18.996965 C10.0017307,15.6841706 12.6872472,12.9986205 16,12.9986205 C19.3127528,12.9986205 21.9982693,15.6841706 21.9982693,18.996965 C21.9982693,19.3375784 21.9698795,19.6715608 21.9153348,19.9966891 L19.8728651,19.9966891 C19.9551046,19.6771667 19.9988462,19.3421741 19.9988462,18.996965 Z M20.9571774,12.6290751 L22.3577548,11.2284977 C22.757878,10.8283745 23.3877807,10.8314542 23.7781923,11.2218658 C24.1713258,11.6149993 24.1656348,12.248229 23.7715605,12.6423033 L22.3709831,14.0428807 C21.9708599,14.4430038 21.3409572,14.4399242 20.9505456,14.0495125 C20.5574121,13.656379 20.5631031,13.0231494 20.9571774,12.6290751 Z M6.00906533,18.0004264 L7.98978089,18.0004264 C8.55564044,18.0004264 8.99887129,18.4480125 8.99887129,19.000138 C8.99887129,19.5288552 8.5902991,19.95607 8.07094462,19.9966891 L5.92710352,19.9966891 C5.40098469,19.9558976 4.99997492,19.5253084 4.99997492,19.000138 C4.99997492,18.4441632 5.45176009,18.0004264 6.00906533,18.0004264 Z M26.0720984,19.9966891 L23.9282573,19.9966891 C23.4021385,19.9558976 23.0011287,19.5253084 23.0011287,19.000138 C23.0011287,18.4441632 23.4529139,18.0004264 24.0102191,18.0004264 L25.9909347,18.0004264 C26.5567942,18.0004264 27.0000251,18.4480125 27.0000251,19.000138 C27.0000251,19.5288552 26.5914529,19.95607 26.0720984,19.9966891 Z M9.64224516,11.2284977 L11.0428226,12.6290751 C11.4429457,13.0291982 11.4398661,13.6591009 11.0494544,14.0495125 C10.6563209,14.4426461 10.0230912,14.436955 9.62901693,14.0428807 L8.22843952,12.6423033 C7.8283164,12.2421802 7.83139603,11.6122775 8.22180768,11.2218658 C8.6149412,10.8287323 9.24817085,10.8344233 9.64224516,11.2284977 Z M15.0002884,10.989806 L15.0002884,9.0090904 C15.0002884,8.44323085 15.4478746,8 16,8 C16.5559748,8 16.9997116,8.45178516 16.9997116,9.0090904 L16.9997116,10.989806 C16.9997116,11.5556655 16.5521254,11.9988964 16,11.9988964 C15.4440252,11.9988964 15.0002884,11.5471112 15.0002884,10.989806 Z M19.0008653,16.9975168 L16.0008653,20.9964132 L13.0008653,16.9975168 Z M10,23 C10,22.4438648 10.4488226,22 11.0024733,22 L20.9975267,22 C21.544239,22 22,22.4477153 22,23 C22,23.5561352 21.5511774,24 20.9975267,24 L11.0024733,24 C10.455761,24 10,23.5522847 10,23 Z M10,23" id="Oval 13"></path>
        </g>
    </g>
</svg>