<?xml version="1.0" encoding="UTF-8" standalone="no"?>
<svg width="32px" height="32px" viewBox="0 0 32 32" version="1.1" xmlns="http://www.w3.org/2000/svg" xmlns:xlink="http://www.w3.org/1999/xlink" xmlns:sketch="http://www.bohemiancoding.com/sketch/ns">
    <title>59 Sunset</title>
    <description>Created with Sketch (http://www.bohemiancoding.com/sketch)</description>
    <defs></defs>
    <g id="Icons new Arranged Names Color" stroke="none" stroke-width="1" fill="none" fill-rule="evenodd">
        <g id="59 Sunset" fill="#FAFF00">
            <path d="M16.07131,15.9980686 C14.5901469,15.9980686 13.2970674,16.8033623 12.6060109,18 L10.4134895,18 C11.2362131,15.6689673 13.4586991,13.9986205 16.07131,13.9986205 C18.6839209,13.9986205 20.906407,15.6689673 21.7291306,18 L19.5366092,18 C18.8455527,16.8033623 17.5524732,15.9980686 16.07131,15.9980686 Z M11.1141439,13.6290751 C11.5142661,14.0291982 11.5111865,14.6591009 11.1207757,15.0495125 C10.7276431,15.4426461 10.0944149,15.436955 9.70034149,15.0428807 L8.29976728,13.6423033 C7.89964506,13.2421802 7.90272469,12.6122775 8.29313544,12.2218658 C8.68626807,11.8287323 9.31949627,11.8344233 9.71356969,12.2284977 L11.1141439,13.6290751 Z M15.0716008,10.0090904 C15.0716008,9.44323085 15.5191859,9 16.07131,9 C16.6272835,9 17.0710193,9.45178516 17.0710193,10.0090904 L17.0710193,11.989806 C17.0710193,12.5556655 16.6234342,12.9988964 16.07131,12.9988964 C15.5153365,12.9988964 15.0716008,12.5471112 15.0716008,11.989806 L15.0716008,10.0090904 Z M22.4290504,12.2284977 C22.8291726,11.8283745 23.4590739,11.8314542 23.8494846,12.2218658 C24.2426173,12.6149993 24.2369262,13.248229 23.8428528,13.6423033 L22.4422786,15.0428807 C22.0421564,15.4430038 21.4122551,15.4399242 21.0218443,15.0495125 C20.6287117,14.656379 20.6344028,14.0231494 21.0284762,13.6290751 L22.4290504,12.2284977 Z M11.0737696,20 L21.0688003,20 C21.6155114,20 22.0712713,20.4477153 22.0712713,21 C22.0712713,21.5561352 21.6224497,22 21.0688003,22 L11.0737696,22 C10.5270586,22 10.0712986,21.5522847 10.0712986,21 C10.0712986,20.4438648 10.5201202,20 11.0737696,20 Z M11.0737696,20" id="Oval 13"></path>
        </g>
    </g>
</svg>