<?xml version="1.0" encoding="UTF-8" standalone="no"?>
<svg width="32px" height="32px" viewBox="0 0 32 32" version="1.1" xmlns="http://www.w3.org/2000/svg" xmlns:xlink="http://www.w3.org/1999/xlink" xmlns:sketch="http://www.bohemiancoding.com/sketch/ns">
    <title>60 Rainbow</title>
    <description>Created with Sketch (http://www.bohemiancoding.com/sketch)</description>
    <defs></defs>
    <g id="Icons new Arranged Names Color" stroke="none" stroke-width="1" fill="none" fill-rule="evenodd">
        <g id="60 Rainbow">
            <path d="M24.9968262,12 C24.9968262,9.79086089 23.2059653,8 20.9968262,8 C19.4897311,8 18.1773066,8.83348354 17.4953569,10.0646466 C17.0030326,10.0218677 16.5042403,10 16,10 C15.7768168,10 15.5547009,10.004284 15.3337406,10.0127691 C16.1537973,7.67571658 18.3796193,6 20.9968262,6 C24.3105348,6 26.9968262,8.68629134 26.9968262,12 C26.9968262,12.6463493 26.8946243,13.268828 26.7054992,13.8521574 C26.1557414,13.3878449 25.5714616,12.958764 24.9567064,12.5687084 C24.9831475,12.3829446 24.9968262,12.1930697 24.9968262,12 Z M25.9554427,5.63034375 L27.3564066,4.22937981 C27.7566402,3.82914626 28.3867207,3.83223071 28.777245,4.222755 C29.170492,4.61600196 29.1648033,5.2494103 28.7706202,5.64359337 L27.3696562,7.04455731 C26.9694227,7.44479087 26.3393422,7.44170642 25.9488179,7.05118212 C25.5555709,6.65793517 25.5612596,6.02452683 25.9554427,5.63034375 Z M29.0093689,11.0031738 L30.9906311,11.0031738 C31.5566468,11.0031738 32,11.4508891 32,12.0031738 C32,12.559309 31.5480902,13.0031738 30.9906311,13.0031738 L29.0093689,13.0031738 C28.4433532,13.0031738 28,12.5554586 28,12.0031738 C28,11.4470387 28.4519098,11.0031738 29.0093689,11.0031738 Z M14.6372457,4.22937981 L16.0382097,5.63034375 C16.4384432,6.03057731 16.4353588,6.66065783 16.0448345,7.05118212 C15.6515875,7.44442908 15.0181792,7.43874039 14.6239961,7.04455731 L13.2230322,5.64359337 C12.8227986,5.24335982 12.8258831,4.61327929 13.2164073,4.222755 C13.6096543,3.82950804 14.2430626,3.83519674 14.6372457,4.22937981 Z M19.9968262,3.9906311 L19.9968262,2.0093689 C19.9968262,1.44335318 20.4445414,1 20.9968262,1 C21.5529613,1 21.9968262,1.45190985 21.9968262,2.0093689 L21.9968262,3.9906311 C21.9968262,4.55664682 21.5491109,5 20.9968262,5 C20.440691,5 19.9968262,4.54809015 19.9968262,3.9906311 Z M19.9968262,3.9906311" id="Oval 319" fill="#F9FF00"></path>
            <path d="M0.992786407,29 C0.444485615,29 0,29.4438648 0,30 L0,30 C0,30.5522847 0.452362061,31 0.992786407,31 L31.0072136,31 C31.5555144,31 32,30.5561352 32,30 L32,30 C32,29.4477153 31.5476379,29 31.0072136,29 L0.992786407,29 Z M0.992786407,29" id="Rectangle 318" fill="#229100"></path>
            <path d="M2,26 C2,26.5522848 1.55228478,27 1,27 C0.447715223,27 0,26.5522848 0,26 C0,17.7157283 7.16344357,11 16,11 C24.8365564,11 32,17.7157283 32,26 C32,26.5522848 31.5522848,27 31,27 C30.4477152,27 30,26.5522848 30,26 C30,18.8202979 23.7319869,13 16,13 C8.26801312,13 2,18.8202979 2,26 Z M2,26" id="Oval 319" fill="#FF0000"></path>
            <path d="M5,26 C5,26.5522848 4.55228478,27 4,27 C3.44771522,27 3,26.5522848 3,26 C3,19.3725827 8.8202979,14 16,14 C23.1797021,14 29,19.3725827 29,26 C29,26.5522848 28.5522848,27 28,27 C27.4477152,27 27,26.5522848 27,26 C27,20.4771522 22.0751325,16 16,16 C9.92486745,16 5,20.4771522 5,26 Z M5,26" id="Oval 319 copy" fill="#FF00FE"></path>
            <path d="M8,26 C8,26.5522848 7.55228478,27 7,27 C6.44771522,27 6,26.5522848 6,26 C6,21.029437 10.4771522,17 16,17 C21.5228478,17 26,21.029437 26,26 C26,26.5522848 25.5522848,27 25,27 C24.4477152,27 24,26.5522848 24,26 C24,22.1340066 20.4182782,19 16,19 C11.5817218,19 8,22.1340066 8,26 Z M8,26" id="Oval 319 copy 2" fill="#006FD1"></path>
        </g>
    </g>
</svg>