<?xml version="1.0" encoding="UTF-8" standalone="no"?>
<svg width="32px" height="32px" viewBox="0 0 32 32" version="1.1" xmlns="http://www.w3.org/2000/svg" xmlns:xlink="http://www.w3.org/1999/xlink" xmlns:sketch="http://www.bohemiancoding.com/sketch/ns">
    <title>62 Raindrops</title>
    <description>Created with Sketch (http://www.bohemiancoding.com/sketch)</description>
    <defs></defs>
    <g id="Icons new Arranged Names Color" stroke="none" stroke-width="1" fill="none" fill-rule="evenodd">
        <g id="62 Raindrops" fill="#006FD1">
            <path d="M18,15.4736842 C18.0000001,13.7894737 21,10 21,10 C21,10 24,13.7894737 24,15.4736842 C24,16.86893 22.6568543,18 21,18 C19.3431457,18 18,16.86893 18,15.4736842 Z M11,23.4736842 C11.0000001,21.7894737 14,18 14,18 C14,18 17,21.7894737 17,23.4736842 C17,24.86893 15.6568543,26 14,26 C12.3431457,26 11,24.86893 11,23.4736842 Z M8,11.4736842 C8.00000013,9.78947368 11,6 11,6 C11,6 14,9.78947368 14,11.4736842 C14,12.86893 12.6568543,14 11,14 C9.34314567,14 8,12.86893 8,11.4736842 Z M8,11.4736842" id="Oval 207 copy 3"></path>
        </g>
    </g>
</svg>