<?xml version="1.0" encoding="UTF-8" standalone="no"?>
<svg width="32px" height="32px" viewBox="0 0 32 32" version="1.1" xmlns="http://www.w3.org/2000/svg" xmlns:xlink="http://www.w3.org/1999/xlink" xmlns:sketch="http://www.bohemiancoding.com/sketch/ns">
    <title>64 Sunglasses</title>
    <description>Created with Sketch (http://www.bohemiancoding.com/sketch)</description>
    <defs></defs>
    <g id="Icons new Arranged Names Color" stroke="none" stroke-width="1" fill="none" fill-rule="evenodd">
        <g id="64 Sunglasses" fill="#000000">
            <path d="M15,12 L17,12 L22,12 C23.0668426,12 24.1336851,12.2845383 24.8969701,13.0051054 C24.9305033,13.0017287 24.9645265,13 24.9989566,13 L26.0010434,13 C26.5573397,13 27,13.4477153 27,14 C27,14.5561352 26.5527519,15 26.0010434,15 L25.916453,15 C25.9709859,15.3048737 26,15.6369942 26,15.9981012 C26,19 24,20 21.9940809,20 C20.3496704,20 18,19.5 17.6569304,17.3138608 C17.6569304,17.3138608 17.5,16 16,16 C14.5,16 14.3430696,17.3138608 14.3430696,17.3138608 C14,19.5 11.6527109,20 9.99074554,20 C8,20 6,19 6,16.0018986 C6,15.639315 6.02917792,15.305937 6.08399529,15 L5.99895656,15 C5.44266033,15 5,14.5522847 5,14 C5,13.4438648 5.44724809,13 5.99895656,13 L7.00104344,13 C7.03544958,13 7.06942103,13.0017126 7.10287996,13.0050567 C7.86519242,12.2843738 8.92973979,12 9.99201702,12 Z M15,12" id="Rectangle 276 copy"></path>
        </g>
    </g>
</svg>