<?xml version="1.0" encoding="UTF-8" standalone="no"?>
<svg width="16px" height="16px" viewBox="0 0 16 16" version="1.1" xmlns="http://www.w3.org/2000/svg" xmlns:xlink="http://www.w3.org/1999/xlink" xmlns:sketch="http://www.bohemiancoding.com/sketch/ns">
    <title>028 MP3Player</title>
    <description>Created with Sketch (http://www.bohemiancoding.com/sketch)</description>
    <defs></defs>
    <g id="Icons with numbers" stroke="none" stroke-width="1" fill="none" fill-rule="evenodd">
        <g id="Group" transform="translate(-432.000000, -48.000000)" fill="#D4D4D4">
            <path d="M437,49 L437,54 L443,54 L443,49 Z M436.99703,48 L443.00297,48 C443.546964,48 444,48.4481055 444,49.0008717 L444,62.9991283 C444,63.5553691 443.553614,64 443.00297,64 L436.99703,64 C436.453036,64 436,63.5518945 436,62.9991283 L436,49.0008717 C436,48.4446309 436.446386,48 436.99703,48 Z M440,62 C441.656854,62 443,60.6568543 443,59 C443,57.3431457 441.656854,56 440,56 C438.343146,56 437,57.3431457 437,59 C437,60.6568543 438.343146,62 440,62 Z M440,60 C439.447715,60 439,59.5522848 439,59 C439,58.4477152 439.447715,58 440,58 C440.552285,58 441,58.4477152 441,59 C441,59.5522848 440.552285,60 440,60 Z M440,60" id="Rectangle 127"></path>
        </g>
    </g>
</svg>