<?xml version="1.0" encoding="UTF-8" standalone="no"?>
<svg width="16px" height="16px" viewBox="0 0 16 16" version="1.1" xmlns="http://www.w3.org/2000/svg" xmlns:xlink="http://www.w3.org/1999/xlink" xmlns:sketch="http://www.bohemiancoding.com/sketch/ns">
    <title>031 Printer</title>
    <description>Created with Sketch (http://www.bohemiancoding.com/sketch)</description>
    <defs></defs>
    <g id="Icons with numbers" stroke="none" stroke-width="1" fill="none" fill-rule="evenodd">
        <g id="Group" transform="translate(-576.000000, -48.000000)" fill="#D4D4D4">
            <path d="M576,54 C576,53 577,52 578,52 L579,52 L579,54 L579,55 L589,55 L589,54 L589,52 L590,52 C591,52 592,53 592,54 L592,59 C592,60 591,61 590,61 L589,61 L589,59 L589,58 L579,58 L579,59 L579,61 L578,61 C577,61 576,60 576,59 L576,54 L576,54 Z M580,61 L580,59 L588,59 L588,61 L588,64 L580,64 L580,61 L580,61 Z M588,52 L588,54 L580,54 L580,52 L580,49 L588,49 L588,52 L588,52 Z M588,52" id="Shape"></path>
        </g>
    </g>
</svg>