<?xml version="1.0" encoding="UTF-8" standalone="no"?>
<svg width="16px" height="16px" viewBox="0 0 16 16" version="1.1" xmlns="http://www.w3.org/2000/svg" xmlns:xlink="http://www.w3.org/1999/xlink" xmlns:sketch="http://www.bohemiancoding.com/sketch/ns">
    <title>033 PrinterText</title>
    <description>Created with Sketch (http://www.bohemiancoding.com/sketch)</description>
    <defs></defs>
    <g id="Icons with numbers" stroke="none" stroke-width="1" fill="none" fill-rule="evenodd">
        <g id="Group" transform="translate(-672.000000, -48.000000)" fill="#D4D4D4">
            <path d="M672,54 C672,53 673,52 674,52 L675,52 L675,54 L675,55 L685,55 L685,54 L685,52 L686,52 C687,52 688,53 688,54 L688,59 C688,60 687,61 686,61 L685,61 L685,59 L685,58 L675,58 L675,59 L675,61 L674,61 C673,61 672,60 672,59 L672,54 L672,54 Z M676,61 L676,59 L684,59 L684,61 L684,64 L676,64 L676,61 L676,61 Z M684,52 L684,54 L676,54 L676,52 L676,49 L684,49 L684,52 L684,52 Z M677,60 L677,61 L683,61 L683,60 L677,60 L677,60 Z M677,62 L677,63 L683,63 L683,62 L677,62 L677,62 Z M677,62" id="Shape"></path>
        </g>
    </g>
</svg>