<?xml version="1.0" encoding="UTF-8" standalone="no"?>
<svg width="16px" height="16px" viewBox="0 0 16 16" version="1.1" xmlns="http://www.w3.org/2000/svg" xmlns:xlink="http://www.w3.org/1999/xlink" xmlns:sketch="http://www.bohemiancoding.com/sketch/ns">
    <title>046 Genius</title>
    <description>Created with Sketch (http://www.bohemiancoding.com/sketch)</description>
    <defs></defs>
    <g id="Icons with numbers" stroke="none" stroke-width="1" fill="none" fill-rule="evenodd">
        <g id="Group" transform="translate(-432.000000, -96.000000)" fill="#D4D4D4">
            <path d="M440,112 C438.5,112 437,108.5 437,104 C437,99.5 438.5,96 440,96 C441.5,96 443,99.5 443,104 C443,108.5 441.5,112 440,112 Z M440,111 C441,111 442,108 442,104 C442,100 441,97 440,97 C439,97 438,100 438,104 C438,108 439,111 440,111 Z M440,111" id="Genius"></path>
            <path d="M433.372656,108.33955 C432.511484,107.113452 434.629372,103.957653 438.459592,101.476611 C442.289812,98.9955686 446.130044,98.2919679 446.991216,99.5180667 C447.852387,100.744166 445.7345,103.899964 441.90428,106.381006 C438.07406,108.862048 434.233828,109.565649 433.372656,108.33955 Z M434.223816,107.788207 C434.797931,108.605607 437.925525,107.768978 441.330165,105.563607 C444.734805,103.358236 446.71417,100.886809 446.140056,100.069409 C445.565941,99.2520103 442.438347,100.088639 439.033707,102.29401 C435.629067,104.499381 433.649702,106.970808 434.223816,107.788207 Z M434.223816,107.788207" id="Genius"></path>
            <path d="M446.991216,108.33955 C446.130044,109.565649 442.289812,108.862048 438.459592,106.381006 C434.629372,103.899964 432.511484,100.744166 433.372656,99.5180667 C434.233828,98.2919679 438.07406,98.9955686 441.90428,101.476611 C445.7345,103.957653 447.852387,107.113452 446.991216,108.33955 Z M446.140056,107.788207 C446.71417,106.970808 444.734805,104.499381 441.330165,102.29401 C437.925525,100.088639 434.797931,99.2520103 434.223816,100.069409 C433.649702,100.886809 435.629067,103.358236 439.033707,105.563607 C442.438347,107.768978 445.565941,108.605607 446.140056,107.788207 Z M446.140056,107.788207" id="Genius"></path>
            <path d="M434.5,108 C435.328427,108 436,107.328427 436,106.5 C436,105.671573 435.328427,105 434.5,105 C433.671573,105 433,105.671573 433,106.5 C433,107.328427 433.671573,108 434.5,108 Z M434.5,108" id="Genius"></path>
            <path d="M444.5,110 C445.328427,110 446,109.328427 446,108.5 C446,107.671573 445.328427,107 444.5,107 C443.671573,107 443,107.671573 443,108.5 C443,109.328427 443.671573,110 444.5,110 Z M444.5,110" id="Genius"></path>
            <path d="M441.5,100 C442.328427,100 443,99.3284272 443,98.5 C443,97.6715728 442.328427,97 441.5,97 C440.671573,97 440,97.6715728 440,98.5 C440,99.3284272 440.671573,100 441.5,100 Z M441.5,100" id="Genius"></path>
        </g>
    </g>
</svg>