<?xml version="1.0" encoding="UTF-8" standalone="no"?>
<svg width="16px" height="16px" viewBox="0 0 16 16" version="1.1" xmlns="http://www.w3.org/2000/svg" xmlns:xlink="http://www.w3.org/1999/xlink" xmlns:sketch="http://www.bohemiancoding.com/sketch/ns">
    <title>073 RSS</title>
    <description>Created with Sketch (http://www.bohemiancoding.com/sketch)</description>
    <defs></defs>
    <g id="Icons with numbers" stroke="none" stroke-width="1" fill="none" fill-rule="evenodd">
        <g id="Group" transform="translate(0.000000, -192.000000)" fill="#D4D4D4">
            <path d="M7,208 C7,204.134007 3.86599344,201 0,201 L0,198 C5.52284777,198 10,202.477152 10,208 Z M2,208 C0.895430446,208 0,207.10457 0,206 C0,204.89543 0.895430446,204 2,204 C3.10456955,204 4,204.89543 4,206 C4,207.10457 3.10456955,208 2,208 Z M13,208 C13,200.820298 7.1797021,195 0,195 L0,192 C8.83655643,192 16,199.163444 16,208 Z M13,208" id="Oval 213"></path>
        </g>
    </g>
</svg>