<?xml version="1.0" encoding="UTF-8" standalone="no"?>
<svg width="16px" height="16px" viewBox="0 0 16 16" version="1.1" xmlns="http://www.w3.org/2000/svg" xmlns:xlink="http://www.w3.org/1999/xlink" xmlns:sketch="http://www.bohemiancoding.com/sketch/ns">
    <title>084 Photo</title>
    <description>Created with Sketch (http://www.bohemiancoding.com/sketch)</description>
    <defs></defs>
    <g id="Icons with numbers" stroke="none" stroke-width="1" fill="none" fill-rule="evenodd">
        <g id="Group" transform="translate(-528.000000, -192.000000)" fill="#D4D4D4">
            <path d="M528,194 L544,194 L544,206 L528,206 Z M529,195 L529,205 L543,205 L543,195 Z M530.006104,204.026611 C530.006104,204.026611 531.046143,197.003662 532.590332,197.003662 C534.134521,197.003662 534.810913,201.95752 536.053223,201.95752 C537.295532,201.95752 537.201904,200.021851 538.111328,200.021851 C539.020752,200.021851 542.151123,204.026611 542.151123,204.026611 Z M540.5,199 C539.671573,199 539,198.328427 539,197.5 C539,196.671573 539.671573,196 540.5,196 C541.328427,196 542,196.671573 542,197.5 C542,198.328427 541.328427,199 540.5,199 Z M540.5,199" id="Oval 236"></path>
        </g>
    </g>
</svg>