<?xml version="1.0" encoding="UTF-8" standalone="no"?>
<svg width="16px" height="16px" viewBox="0 0 16 16" version="1.1" xmlns="http://www.w3.org/2000/svg" xmlns:xlink="http://www.w3.org/1999/xlink" xmlns:sketch="http://www.bohemiancoding.com/sketch/ns">
    <title>090 Notes</title>
    <description>Created with Sketch (http://www.bohemiancoding.com/sketch)</description>
    <defs></defs>
    <g id="Icons with numbers" stroke="none" stroke-width="1" fill="none" fill-rule="evenodd">
        <g id="Group" transform="translate(-816.000000, -192.000000)" fill="#D4D4D4">
            <path d="M817,195 L817,197 L819,197 L819,195 Z M819.009478,192 L828.990522,192 C830.663369,192 832,193.347389 832,195.009478 L832,204.990522 C832,206.663369 830.652611,208 828.990522,208 L819.009478,208 C817.336631,208 816,206.652611 816,204.990522 L816,195.009478 C816,193.336631 817.347389,192 819.009478,192 Z M817,198 L817,200 L819,200 L819,198 Z M817,201 L817,203 L819,203 L819,201 Z M817,204 L817,206 L819,206 L819,204 Z M820,197 L831,197 L831,195 L820,195 Z M820,200 L831,200 L831,198 L820,198 Z M820,203 L831,203 L831,201 L820,201 Z M820,206 L831,206 L831,204 L820,204 Z M820,206" id="Rectangle 301"></path>
        </g>
    </g>
</svg>