<?xml version="1.0" encoding="UTF-8" standalone="no"?>
<svg width="16px" height="16px" viewBox="0 0 16 16" version="1.1" xmlns="http://www.w3.org/2000/svg" xmlns:xlink="http://www.w3.org/1999/xlink" xmlns:sketch="http://www.bohemiancoding.com/sketch/ns">
    <title>099 Mark</title>
    <description>Created with Sketch (http://www.bohemiancoding.com/sketch)</description>
    <defs></defs>
    <g id="Icons with numbers" stroke="none" stroke-width="1" fill="none" fill-rule="evenodd">
        <g id="Group" transform="translate(-384.000000, -240.000000)" fill="#D4D4D4">
            <path d="M388,242 L396,242 L396,240 L400,240 L400,244 L398,244 L398,252 L400,252 L400,256 L396,256 L396,254 L388,254 L388,256 L384,256 L384,252 L386,252 L386,244 L384,244 L384,240 L388,240 Z M387,244 L387,252 L388,252 L388,253 L396,253 L396,252 L397,252 L397,244 L396,244 L396,243 L388,243 L388,244 Z M387,244" id="Rectangle 167"></path>
        </g>
    </g>
</svg>