<?xml version="1.0" encoding="UTF-8" standalone="no"?>
<svg width="16px" height="16px" viewBox="0 0 16 16" version="1.1" xmlns="http://www.w3.org/2000/svg" xmlns:xlink="http://www.w3.org/1999/xlink" xmlns:sketch="http://www.bohemiancoding.com/sketch/ns">
    <title>100 Mark2</title>
    <description>Created with Sketch (http://www.bohemiancoding.com/sketch)</description>
    <defs></defs>
    <g id="Icons with numbers" stroke="none" stroke-width="1" fill="none" fill-rule="evenodd">
        <g id="Group" transform="translate(-432.000000, -240.000000)" fill="#D4D4D4">
            <path d="M436,242 L444,242 L444,240 L448,240 L448,244 L446,244 L446,252 L448,252 L448,256 L444,256 L444,254 L436,254 L436,256 L432,256 L432,252 L434,252 L434,244 L432,244 L432,240 L436,240 Z M435,244 L435,252 L436,252 L436,253 L444,253 L444,252 L445,252 L445,244 L444,244 L444,243 L436,243 L436,244 Z M435,246 L435,245 L437,245 L437,246 L435,246 Z M443,246 L443,245 L445,245 L445,246 L443,246 Z M438,251 L438,250 L442,250 L442,251 L438,251 Z M438,246 L438,245 L442,245 L442,246 L438,246 Z M435,251 L435,250 L437,250 L437,251 L435,251 Z M443,251 L443,250 L445,250 L445,251 L443,251 Z M437,243 L437,253 L438,253 L438,243 L437,243 Z M442,243 L442,253 L443,253 L443,243 L442,243 Z M442,243" id="Rectangle 167 copy"></path>
        </g>
    </g>
</svg>