<?xml version="1.0" encoding="UTF-8" standalone="no"?>
<svg width="16px" height="16px" viewBox="0 0 16 16" version="1.1" xmlns="http://www.w3.org/2000/svg" xmlns:xlink="http://www.w3.org/1999/xlink" xmlns:sketch="http://www.bohemiancoding.com/sketch/ns">
    <title>123 CloudDownload</title>
    <description>Created with Sketch (http://www.bohemiancoding.com/sketch)</description>
    <defs></defs>
    <g id="Icons with numbers" stroke="none" stroke-width="1" fill="none" fill-rule="evenodd">
        <g id="Group" transform="translate(-672.000000, -288.000000)" fill="#D4D4D4">
            <path d="M679,293 L679,296 L677,296 L680,300 L683,296 L681,296 L681,293 Z M672,298 C672,296.651721 672.895887,295.507545 674.127761,295.131093 C674.500314,293.897932 675.645295,293 677,293 C677.174013,293 677.344566,293.014816 677.510466,293.043254 C678.195719,291.823839 679.50165,291 681,291 C683.209139,291 685,292.790861 685,295 C686.668415,295.005076 688,296.346276 688,298 C688,299.653483 686.652611,301 684.990522,301 L675.009478,301 C673.336631,301 672,299.656854 672,298 Z M672,298" id="Rectangle 169 copy 2"></path>
        </g>
    </g>
</svg>