<?xml version="1.0" encoding="UTF-8" standalone="no"?>
<svg width="16px" height="16px" viewBox="0 0 16 16" version="1.1" xmlns="http://www.w3.org/2000/svg" xmlns:xlink="http://www.w3.org/1999/xlink" xmlns:sketch="http://www.bohemiancoding.com/sketch/ns">
    <title>146 RoundedActionLeft</title>
    <description>Created with Sketch (http://www.bohemiancoding.com/sketch)</description>
    <defs></defs>
    <g id="Icons with numbers" stroke="none" stroke-width="1" fill="none" fill-rule="evenodd">
        <g id="Group" transform="translate(-48.000000, -384.000000)" fill="#D4D4D4">
            <path d="M64,389 C64,387.895431 63.1045695,387 62,387 L57.25,387 L59.75,389 L62,389 L62,396 L52,396 L52,394 L50,392.4 L50,396 C50,397.104569 50.8954305,398 52,398 L62,398 C63.1045695,398 64,397.104569 64,396 L64,389 L64,389 Z M48,389 L53,393 L53,391.008289 C56.3326267,390.888012 58.3389388,392.372916 60.0331421,394.023071 C60.0331421,390.100762 56.5395674,387.011366 53,386.976794 L53,385 L48,389 L48,389 Z M48,389" id="Shape"></path>
        </g>
    </g>
</svg>