<?xml version="1.0" encoding="UTF-8" standalone="no"?>
<svg width="32px" height="32px" viewBox="0 0 32 32" version="1.1" xmlns="http://www.w3.org/2000/svg" xmlns:xlink="http://www.w3.org/1999/xlink" xmlns:sketch="http://www.bohemiancoding.com/sketch/ns">
    <title>15 Cloud Raindrop Sun</title>
    <description>Created with Sketch (http://www.bohemiancoding.com/sketch)</description>
    <defs></defs>
    <g id="Icons new Arranged Names" stroke="none" stroke-width="1" fill="none" fill-rule="evenodd">
        <g id="15 Cloud Raindrop Sun" fill="#D4D4D4">
            <path d="M24.8528968,9.93217981 C24.3857725,8.24146901 22.8365877,7 20.9974769,7 C20.0770464,7 19.2292354,7.31095826 18.5533433,7.83356344 C18.9656698,8.27179612 19.3345518,8.75138006 19.6531083,9.26543329 C20.2377746,9.09270496 20.8567708,9 21.4974168,9 C22.7251737,9 23.8734167,9.3404799 24.8528968,9.93217981 Z M20.9974769,4 C20.4414085,4 19.997597,3.54809015 19.997597,2.9906311 L19.997597,1.0093689 C19.997597,0.443353176 20.4452585,0 20.9974769,0 C21.5535452,0 21.9973567,0.451909848 21.9973567,1.0093689 L21.9973567,2.9906311 C21.9973567,3.55664682 21.5496953,4 20.9974769,4 Z M25.9491784,6.05137877 C25.5559787,5.65817906 25.5617051,5.02480843 25.9558881,4.63062535 L27.3568521,3.22966141 C27.7570856,2.82942786 28.3871281,2.83247427 28.7776055,3.22295164 C29.1708052,3.61615135 29.1650788,4.24952199 28.7708957,4.64370506 L27.3699318,6.044669 C26.9696982,6.44490256 26.3396558,6.44185614 25.9491784,6.05137877 Z M17.0057833,6.52079393 C18.0662279,5.57487307 19.464726,5 20.9974769,5 C24.3107874,5 26.996756,7.68629134 26.996756,11 C26.996756,11.3144466 26.9725699,11.6232436 26.9259567,11.9246317 C27.1901042,12.3249789 27.4111633,12.7562697 27.5825281,13.2118972 C30.1260839,13.9074542 31.9961552,16.2353674 31.9961552,19 C31.9961552,22.3069658 29.3101079,25 25.9967005,25 L20.5192573,25 C19.2668063,21.7138429 16,18 16,18 C16,18 12.7331939,21.7138429 11.4807428,25 L5.99945475,25 C2.68665511,25 0,22.3137085 0,19 C0,16.7828376 1.20739478,14.8416411 3.00175283,13.8029948 C3.10653288,8.92340284 7.09442042,5 11.9985582,5 C13.8518587,5 15.5743071,5.56031113 17.0057833,6.52079393 Z M28.0002403,11.0038452 C28.0002403,10.4477769 28.4521501,10.0039654 29.0096092,10.0039654 L30.9908714,10.0039654 C31.5568871,10.0039654 32.0002403,10.4516268 32.0002403,11.0038452 C32.0002403,11.5599136 31.5483304,12.0037251 30.9908714,12.0037251 L29.0096092,12.0037251 C28.4435935,12.0037251 28.0002403,11.5560636 28.0002403,11.0038452 Z M13,25.4736842 C13.0000001,23.7894737 16,20 16,20 C16,20 19,23.7894737 19,25.4736842 C19,26.86893 17.6568543,28 16,28 C14.3431457,28 13,26.86893 13,25.4736842 Z M13,25.4736842" id="Rectangle 1 copy"></path>
        </g>
    </g>
</svg>