<?xml version="1.0" encoding="UTF-8" standalone="no"?>
<svg width="16px" height="16px" viewBox="0 0 16 16" version="1.1" xmlns="http://www.w3.org/2000/svg" xmlns:xlink="http://www.w3.org/1999/xlink" xmlns:sketch="http://www.bohemiancoding.com/sketch/ns">
    <title>155 ShoppingCart2</title>
    <description>Created with Sketch (http://www.bohemiancoding.com/sketch)</description>
    <defs></defs>
    <g id="Icons with numbers" stroke="none" stroke-width="1" fill="none" fill-rule="evenodd">
        <g id="Group" transform="translate(-480.000000, -384.000000)" fill="#D4D4D4">
            <path d="M480,388 L492.0354,388 L493,388 L493,386 L496,386 L496,386.996277 L494,387 L494,388 L494,388.034119 L493.994314,388.039805 L493,395 L482,395 Z M485,398 C484.447715,398 484,397.552285 484,397 C484,396.447715 484.447715,396 485,396 C485.552285,396 486,396.447715 486,397 C486,397.552285 485.552285,398 485,398 Z M490,398 C489.447715,398 489,397.552285 489,397 C489,396.447715 489.447715,396 490,396 C490.552285,396 491,396.447715 491,397 C491,397.552285 490.552285,398 490,398 Z M483,390 L483,391 L482,391 L482,392 L483,392 L483,393 L484,393 L484,392 L485,392 L485,393 L486,393 L486,392 L487,392 L487,391 L488,391 L488,392 L489,392 L489,391 L490,391 L490,392 L491,392 L491,391 L492,391 L492,392 L493,392 L493,391 L492,391 L492,390 L493,390 L493,389 L492,389 L492,390 L491,390 L491,389 L490,389 L490,390 L489,390 L489,389 L488,389 L488,390 L487,390 L487,389 L486,389 L486,390 L485,390 L485,389 L484,389 L484,390 L483,390 L483,389 L482,389 L482,390 Z M485,392 L485,391 L486,391 L486,392 Z M483,392 L483,391 L484,391 L484,392 Z M490,391 L490,390 L491,390 L491,391 Z M488,391 L488,390 L489,390 L489,391 Z M486,391 L486,390 L487,390 L487,391 Z M484,391 L484,390 L485,390 L485,391 Z M487,392 L487,393 L488,393 L488,392 L487,392 Z M489,392 L489,393 L490,393 L490,392 L489,392 Z M491,392 L491,393 L492,393 L492,392 L491,392 Z M484,393 L484,394 L485,394 L485,393 L484,393 Z M486,393 L486,394 L487,394 L487,393 L486,393 Z M488,393 L488,394 L489,394 L489,393 L488,393 Z M490,393 L490,394 L491,394 L491,393 L490,393 Z M490,393" id="Rectangle 194 copy"></path>
        </g>
    </g>
</svg>