<?xml version="1.0" encoding="UTF-8" standalone="no"?>
<svg width="16px" height="16px" viewBox="0 0 16 16" version="1.1" xmlns="http://www.w3.org/2000/svg" xmlns:xlink="http://www.w3.org/1999/xlink" xmlns:sketch="http://www.bohemiancoding.com/sketch/ns">
    <title>157 Burn</title>
    <description>Created with Sketch (http://www.bohemiancoding.com/sketch)</description>
    <defs></defs>
    <g id="Icons with numbers" stroke="none" stroke-width="1" fill="none" fill-rule="evenodd">
        <g id="Group" transform="translate(-576.000000, -384.000000)" fill="#D4D4D4">
            <path d="M584,400 C579.581722,400 576,396.418278 576,392 C576,387.581722 579.581722,384 584,384 C588.418278,384 592,387.581722 592,392 C592,396.418278 588.418278,400 584,400 Z M590,392 L584.128555,392 L587.604229,387.00717 C586.609671,386.370935 585.414346,386 584.128515,386 C582.842665,386.00003 581.647397,386.370961 580.65288,387.00717 L584.128555,392 L584.0417,392 L587.701932,397 C589.101752,395.833283 590,394.027225 590,392 Z M580.298068,397 L583.9583,392 L578,392 C578,394.027225 578.898248,395.833283 580.298068,397 Z M580.298068,397" id="Oval 191"></path>
        </g>
    </g>
</svg>