<?xml version="1.0" encoding="UTF-8" standalone="no"?>
<svg width="32px" height="32px" viewBox="0 0 32 32" version="1.1" xmlns="http://www.w3.org/2000/svg" xmlns:xlink="http://www.w3.org/1999/xlink" xmlns:sketch="http://www.bohemiancoding.com/sketch/ns">
    <title>17 Cloud Snowflake</title>
    <description>Created with Sketch (http://www.bohemiancoding.com/sketch)</description>
    <defs></defs>
    <g id="Icons new Arranged Names" stroke="none" stroke-width="1" fill="none" fill-rule="evenodd">
        <g id="17 Cloud Snowflake" fill="#D4D4D4">
            <path d="M0,18.8265004 C0,16.6212074 1.20952314,14.6923595 3.00261417,13.6721025 C3.11893882,8.86310165 7.10267024,5 12,5 C15.2334975,5 18.0687212,6.68407911 19.6554697,9.21257225 C20.2402063,9.04198479 20.8592769,8.95042868 21.5,8.95042868 C24.277992,8.95042868 26.6489527,10.6715384 27.579275,13.0929599 C30.1268375,13.7580082 32,16.0729185 32,18.8265004 C32,22.0924835 29.3471698,24.7521434 26.0747379,24.7521434 L21.7368599,24.7521434 C21.9042505,24.4623558 22,24.1254128 22,23.7645362 C22,22.7227096 21.1951846,21.869272 20.1653487,21.7946248 C20.232826,21.2172703 20.0453219,20.6164365 19.5994949,20.1706095 C19.1588465,19.729961 18.5622464,19.5405864 17.9867787,19.6040906 C17.8726458,18.6103789 17.0331978,17.8388932 16,17.8388932 C14.9742415,17.8388932 14.1288426,18.6070873 14.0134262,19.6026472 C13.4421412,19.5435634 12.8514163,19.7334067 12.4142136,20.1706095 C11.9686287,20.6161944 11.7810863,21.2166178 11.8482501,21.7936842 C10.8160274,21.8614704 10,22.711016 10,23.7645362 C10,24.1243083 10.0959755,24.4616147 10.2640507,24.7521434 L5.92526213,24.7521434 C2.64591902,24.7521434 0,22.0991426 0,18.8265004 Z M16,28.7025721 C15.4438648,28.7025721 15,28.2542658 15,27.701252 L15,26.1612237 L14.563558,26.5976657 C14.1821114,26.9791123 13.5572575,26.9786479 13.1715729,26.5929633 C12.7831994,26.2045898 12.783783,25.5840658 13.1668705,25.2009782 L13.6157054,24.7521434 L11.9953976,24.7521434 C11.4425906,24.7521434 11,24.3099766 11,23.7645362 C11,23.2152931 11.4456547,22.7769291 11.9953976,22.7769291 L13.6157054,22.7769291 L13.1668705,22.3280942 C12.7854239,21.9466476 12.7858883,21.3217937 13.1715729,20.9361091 C13.5599464,20.5477356 14.1804704,20.5483192 14.563558,20.9314067 L15,21.3678488 L15,19.8278205 C15,19.2765178 15.4477153,18.8265004 16,18.8265004 C16.5561352,18.8265004 17,19.2748066 17,19.8278205 L17,21.3678488 L17.436442,20.9314067 C17.8178886,20.5499601 18.4427425,20.5504245 18.8284271,20.9361091 C19.2168006,21.3244826 19.216217,21.9450066 18.8331295,22.3280942 L18.3842946,22.7769291 L20.0046024,22.7769291 C20.5574094,22.7769291 21,23.2190958 21,23.7645362 C21,24.3137793 20.5543453,24.7521434 20.0046024,24.7521434 L18.3842946,24.7521434 L18.8331295,25.2009782 C19.2145761,25.5824248 19.2141117,26.2072788 18.8284271,26.5929633 C18.4400536,26.9813369 17.8195296,26.9807533 17.436442,26.5976657 L17,26.1612237 L17,27.701252 C17,28.2525546 16.5522847,28.7025721 16,28.7025721 Z M16,24.7521434 C16.5522848,24.7521434 17,24.3099766 17,23.7645362 C17,23.2190958 16.5522848,22.7769291 16,22.7769291 C15.4477152,22.7769291 15,23.2190958 15,23.7645362 C15,24.3099766 15.4477152,24.7521434 16,24.7521434 Z M16,24.7521434" id="Rectangle 1 copy 4"></path>
        </g>
    </g>
</svg>