<?xml version="1.0" encoding="UTF-8" standalone="no"?>
<svg width="16px" height="16px" viewBox="0 0 16 16" version="1.1" xmlns="http://www.w3.org/2000/svg" xmlns:xlink="http://www.w3.org/1999/xlink" xmlns:sketch="http://www.bohemiancoding.com/sketch/ns">
    <title>193 ChequeredPattern</title>
    <description>Created with Sketch (http://www.bohemiancoding.com/sketch)</description>
    <defs></defs>
    <g id="Icons with numbers" stroke="none" stroke-width="1" fill="none" fill-rule="evenodd">
        <g id="Group" transform="translate(-576.000000, -480.000000)" fill="#D4D4D4">
            <path d="M578,480 L580,480 L580,482 L578,482 Z M582,480 L584,480 L584,482 L582,482 Z M586,480 L588,480 L588,482 L586,482 Z M590,480 L592,480 L592,482 L590,482 Z M576,482 L578,482 L578,484 L576,484 Z M580,482 L582,482 L582,484 L580,484 Z M584,482 L586,482 L586,484 L584,484 Z M588,482 L590,482 L590,484 L588,484 Z M578,484 L580,484 L580,486 L578,486 Z M582,484 L584,484 L584,486 L582,486 Z M586,484 L588,484 L588,486 L586,486 Z M590,484 L592,484 L592,486 L590,486 Z M576,486 L578,486 L578,488 L576,488 Z M580,486 L582,486 L582,488 L580,488 Z M584,486 L586,486 L586,488 L584,488 Z M588,486 L590,486 L590,488 L588,488 Z M578,488 L580,488 L580,490 L578,490 Z M582,488 L584,488 L584,490 L582,490 Z M586,488 L588,488 L588,490 L586,490 Z M590,488 L592,488 L592,490 L590,490 Z M576,490 L578,490 L578,492 L576,492 Z M580,490 L582,490 L582,492 L580,492 Z M584,490 L586,490 L586,492 L584,492 Z M588,490 L590,490 L590,492 L588,492 Z M578,492 L580,492 L580,494 L578,494 Z M582,492 L584,492 L584,494 L582,494 Z M586,492 L588,492 L588,494 L586,494 Z M590,492 L592,492 L592,494 L590,494 Z M576,494 L578,494 L578,496 L576,496 Z M580,494 L582,494 L582,496 L580,496 Z M584,494 L586,494 L586,496 L584,496 Z M588,494 L590,494 L590,496 L588,496 Z M588,494" id="Rectangle 182"></path>
        </g>
    </g>
</svg>