<?xml version="1.0" encoding="UTF-8" standalone="no"?>
<svg width="16px" height="16px" viewBox="0 0 16 16" version="1.1" xmlns="http://www.w3.org/2000/svg" xmlns:xlink="http://www.w3.org/1999/xlink" xmlns:sketch="http://www.bohemiancoding.com/sketch/ns">
    <title>197 Compass</title>
    <description>Created with Sketch (http://www.bohemiancoding.com/sketch)</description>
    <defs></defs>
    <g id="Icons with numbers" stroke="none" stroke-width="1" fill="none" fill-rule="evenodd">
        <g id="Group" transform="translate(-768.000000, -480.000000)" fill="#D4D4D4">
            <path d="M771.002473,482 C770.448823,482 770,482.455761 770,483.002473 L770,492.997527 C770,493.551177 770.455761,494 771.002473,494 L780.997527,494 C781.551177,494 782,493.544239 782,492.997527 L782,483.002473 C782,482.448823 781.544239,482 780.997527,482 Z M771.009478,480 L780.990522,480 C782.663369,480 784,481.347389 784,483.009478 L784,492.990522 C784,494.663369 782.652611,496 780.990522,496 L771.009478,496 C769.336631,496 768,494.652611 768,492.990522 L768,483.009478 C768,481.336631 769.347389,480 771.009478,480 Z M774,488 C774,486.88773 774.895431,486 776,486 C776.148156,486 776.292328,486.015887 776.430942,486.046038 L781,483 L777.95385,487.569224 C777.984087,487.707971 778,487.852111 778,488 C778,489.11227 777.104569,490 776,490 C775.851844,490 775.707672,489.984113 775.569058,489.953962 L771,493 L774.04615,488.430776 C774.015913,488.292029 774,488.147889 774,488 Z M775,488 C775,488.552285 775.443865,489 776,489 C776.552285,489 777,488.556135 777,488 C777,487.447715 776.556135,487 776,487 C775.447715,487 775,487.443865 775,488 Z M775,488" id="Rectangle 223"></path>
        </g>
    </g>
</svg>