<?xml version="1.0" encoding="UTF-8" standalone="no"?>
<svg width="16px" height="16px" viewBox="0 0 16 16" version="1.1" xmlns="http://www.w3.org/2000/svg" xmlns:xlink="http://www.w3.org/1999/xlink" xmlns:sketch="http://www.bohemiancoding.com/sketch/ns">
    <title>198 Paperclip</title>
    <description>Created with Sketch (http://www.bohemiancoding.com/sketch)</description>
    <defs></defs>
    <g id="Icons with numbers" stroke="none" stroke-width="1" fill="none" fill-rule="evenodd">
        <g id="Group" transform="translate(-816.000000, -480.000000)" fill="#D4D4D4">
            <path d="M821,484 L821,492 C821,493.5 822.5,495 824,495 C825.5,495 827,493.5 827,492 L827,484 L828.000018,484 L828,492 C828,494 826,496 824,496 C822,496 820,494 820,492 L820,484 L820,483 C820,481.5 821.5,480 823,480 C824.5,480 826,481.5 826,483 L826,490 L826,491 C826,492 825,493 824,493 C823,493 822,492 822,491 L822,484 L823,484 L823,491 C823,491.5 823.5,492 824,492 C824.5,492 825,491.5 825,491 L825,490 L825,484 L825,483 C825,482 824,481 823,481 C822,481 821,482 821,483 Z M821,484" id="Shape copy"></path>
        </g>
    </g>
</svg>