<?xml version="1.0" encoding="UTF-8" standalone="no"?>
<svg width="16px" height="16px" viewBox="0 0 16 16" version="1.1" xmlns="http://www.w3.org/2000/svg" xmlns:xlink="http://www.w3.org/1999/xlink" xmlns:sketch="http://www.bohemiancoding.com/sketch/ns">
    <title>203 CircledBack</title>
    <description>Created with Sketch (http://www.bohemiancoding.com/sketch)</description>
    <defs></defs>
    <g id="Icons with numbers" stroke="none" stroke-width="1" fill="none" fill-rule="evenodd">
        <g id="Group" transform="translate(-192.000000, -528.000000)" fill="#D4D4D4">
            <path d="M200,544 C204.418278,544 208,540.418278 208,536 C208,531.581722 204.418278,528 200,528 C195.581722,528 192,531.581722 192,536 C192,540.418278 195.581722,544 200,544 L200,544 Z M197,532 L199,532 L199,536 L199,540 L197,540 L197,532 L197,532 Z M199,536 L203,532 L203,536 L203,540 L199,536 L199,536 Z M199,536" id="Shape"></path>
        </g>
    </g>
</svg>