<?xml version="1.0" encoding="UTF-8" standalone="no"?>
<svg width="32px" height="32px" viewBox="0 0 32 32" version="1.1" xmlns="http://www.w3.org/2000/svg" xmlns:xlink="http://www.w3.org/1999/xlink" xmlns:sketch="http://www.bohemiancoding.com/sketch/ns">
    <title>22 Cloud Remove</title>
    <description>Created with Sketch (http://www.bohemiancoding.com/sketch)</description>
    <defs></defs>
    <g id="Icons new Arranged Names" stroke="none" stroke-width="1" fill="none" fill-rule="evenodd">
        <g id="22 Cloud Remove" fill="#D4D4D4">
            <path d="M0,19 C0,16.7828376 1.20753986,14.8416411 3.00211353,13.8029948 C3.10690617,8.92340284 7.0952729,5 12,5 C15.2334975,5 18.0687212,6.7052115 19.6554697,9.26543304 C20.2402063,9.09270499 20.8592769,9 21.5,9 C24.2845531,9 26.6601501,10.7509485 27.5858427,13.2118973 C30.129704,13.9074543 32,16.2353674 32,19 C32,22.3069658 29.3136299,25 25.9998243,25 L6.00017566,25 C2.68697795,25 0,22.3137085 0,19 Z M12,17 C12,17.5522847 12.4530363,18 12.9970301,18 L19.0029699,18 C19.5536144,18 20,17.5561352 20,17 C20,16.4477153 19.5469637,16 19.0029699,16 L12.9970301,16 C12.4463856,16 12,16.4438648 12,17 Z M12,17" id="Rectangle 1 copy 2"></path>
        </g>
    </g>
</svg>