<?xml version="1.0" encoding="UTF-8" standalone="no"?>
<svg width="16px" height="16px" viewBox="0 0 16 16" version="1.1" xmlns="http://www.w3.org/2000/svg" xmlns:xlink="http://www.w3.org/1999/xlink" xmlns:sketch="http://www.bohemiancoding.com/sketch/ns">
    <title>220 ArrowTurnRight</title>
    <description>Created with Sketch (http://www.bohemiancoding.com/sketch)</description>
    <defs></defs>
    <g id="Icons with numbers" stroke="none" stroke-width="1" fill="none" fill-rule="evenodd">
        <g id="Group" transform="translate(-144.000000, -576.000000)" fill="#D4D4D4">
            <path d="M152,576 C156.418278,576 160,579.581722 160,584 C160,588.418278 156.418278,592 152,592 C147.581722,592 144,588.418278 144,584 C144,579.581722 147.581722,576 152,576 L152,576 Z M150,582 L148,582 L148,584 L148,589 L150,589 L150,584 L154,584 L154,587 L157.9567,582.897203 L154,579 L154,582 L150,582 L150,582 Z M150,582" id="Shape"></path>
        </g>
    </g>
</svg>