<?xml version="1.0" encoding="UTF-8" standalone="no"?>
<svg width="32px" height="32px" viewBox="0 0 32 32" version="1.1" xmlns="http://www.w3.org/2000/svg" xmlns:xlink="http://www.w3.org/1999/xlink" xmlns:sketch="http://www.bohemiancoding.com/sketch/ns">
    <title>67 Moon</title>
    <description>Created with Sketch (http://www.bohemiancoding.com/sketch)</description>
    <defs></defs>
    <g id="Icons new Arranged Names" stroke="none" stroke-width="1" fill="none" fill-rule="evenodd">
        <g id="67 Moon" fill="#D4D4D4">
            <path d="M18.887889,18.7923849 C16.1007898,18.0698089 14.0398634,15.5444213 14.023963,12.5350751 C12.8283091,13.2266808 12.0238703,14.519397 12.0238703,16 C12.0238703,18.2091391 13.8147312,20 16.0238703,20 C17.1466585,20 18.1613992,19.5373939 18.887889,18.7923849 Z M21.9761297,16.7605121 C21.602396,19.7151549 19.0799604,22 16.0238703,22 C12.7101617,22 10.0238703,19.3137087 10.0238703,16 C10.0238703,13.2352302 11.8938738,10.9072234 14.4380666,10.2117939 C14.9432104,10.0737178 15.4749315,10 16.0238703,10 C16.2705686,10 16.5137894,10.0148887 16.7526832,10.0438165 C16.2917651,10.7500599 16.0238703,11.5937449 16.0238703,12.5 C16.0238703,14.9852815 18.0385888,17 20.5238703,17 C21.0320295,17 21.5205158,16.9157708 21.9761297,16.7605121 Z M21.9761297,16.7605121" id="Oval 20 copy 3"></path>
        </g>
    </g>
</svg>