<?xml version="1.0" encoding="UTF-8" standalone="no"?>
<svg width="32px" height="32px" viewBox="0 0 32 32" version="1.1" xmlns="http://www.w3.org/2000/svg" xmlns:xlink="http://www.w3.org/1999/xlink" xmlns:sketch="http://www.bohemiancoding.com/sketch/ns">
    <title>7 Cloud Snow</title>
    <description>Created with Sketch (http://www.bohemiancoding.com/sketch)</description>
    <defs></defs>
    <g id="Icons new Arranged Names" stroke="none" stroke-width="1" fill="none" fill-rule="evenodd">
        <g id="7 Cloud Snow" fill="#D4D4D4">
            <path d="M15,28 C15,27.4438648 15.4477153,27 16,27 C16.5561352,27 17,27.4477153 17,28 C17,28.5561352 16.5522847,29 16,29 C15.4438648,29 15,28.5522847 15,28 Z M7,28 C7,27.4438648 7.44771525,27 8,27 C8.55613518,27 9,27.4477153 9,28 C9,28.5561352 8.55228475,29 8,29 C7.44386482,29 7,28.5522847 7,28 Z M0,19 C0,16.7828376 1.20753986,14.8416411 3.00211353,13.8029948 C3.10690617,8.92340284 7.0952729,5 12,5 C15.2334975,5 18.0687212,6.7052115 19.6554697,9.26543304 C20.2402063,9.09270499 20.8592769,9 21.5,9 C24.2845531,9 26.6601501,10.7509485 27.5858427,13.2118973 C30.129704,13.9074543 32,16.2353674 32,19 C32,22.3069658 29.3136299,25 25.9998243,25 L6.00017566,25 C2.68697795,25 0,22.3137085 0,19 Z M19,31 C19,30.4438648 19.4477153,30 20,30 C20.5561352,30 21,30.4477153 21,31 C21,31.5561352 20.5522847,32 20,32 C19.4438648,32 19,31.5522847 19,31 Z M11,31 C11,30.4438648 11.4477153,30 12,30 C12.5561352,30 13,30.4477153 13,31 C13,31.5561352 12.5522847,32 12,32 C11.4438648,32 11,31.5522847 11,31 Z M23,28 C23,27.4438648 23.4477153,27 24,27 C24.5561352,27 25,27.4477153 25,28 C25,28.5561352 24.5522847,29 24,29 C23.4438648,29 23,28.5522847 23,28 Z M23,28" id="Rectangle 1 copy 3"></path>
        </g>
    </g>
</svg>