<?xml version="1.0" encoding="UTF-8" standalone="no"?>
<svg width="32px" height="32px" viewBox="0 0 32 32" version="1.1" xmlns="http://www.w3.org/2000/svg" xmlns:xlink="http://www.w3.org/1999/xlink" xmlns:sketch="http://www.bohemiancoding.com/sketch/ns">
    <title>85 Fahrenheit</title>
    <description>Created with Sketch (http://www.bohemiancoding.com/sketch)</description>
    <defs></defs>
    <g id="Icons new Arranged Names" stroke="none" stroke-width="1" fill="none" fill-rule="evenodd">
        <g id="85 Fahrenheit" fill="#D4D4D4">
            <path d="M17,20.9905224 L17,25.0046024 C17,25.5443356 16.5522847,26 16,26 C15.4438648,26 15,25.5543453 15,25.0046024 L15,21 L15,16.9953976 L15,16 L15,15.5828986 L15,10.9952534 C15,8.23775684 17.2367656,6.00278613 19.9970301,6 L20.0021863,6 L21,6 L26.0029699,6 C26.5469637,6 27,6.44771525 27,7 C27,7.55613518 26.5536144,8 26.0029699,8 L21,8 L20.0016655,8 C18.3438914,8 17,9.33663106 17,11.0094776 L17,15 L22.0029699,15 C22.5469637,15 23,15.4477153 23,16 C23,16.5561352 22.5536144,17 22.0029699,17 L17,17 Z M9,14 C6.79086089,14 5,12.2091391 5,10 C5,7.79086089 6.79086089,6 9,6 C11.2091391,6 13,7.79086089 13,10 C13,12.2091391 11.2091391,14 9,14 Z M9,12 C10.1045696,12 11,11.1045696 11,10 C11,8.89543045 10.1045696,8 9,8 C7.89543045,8 7,8.89543045 7,10 C7,11.1045696 7.89543045,12 9,12 Z M9,12" id="Rectangle 352"></path>
        </g>
    </g>
</svg>