<?xml version="1.0" encoding="UTF-8" standalone="no"?>
<svg width="32px" height="32px" viewBox="0 0 32 32" version="1.1" xmlns="http://www.w3.org/2000/svg" xmlns:xlink="http://www.w3.org/1999/xlink" xmlns:sketch="http://www.bohemiancoding.com/sketch/ns">
    <title>86 Celsius</title>
    <description>Created with Sketch (http://www.bohemiancoding.com/sketch)</description>
    <defs></defs>
    <g id="Icons new Arranged Names" stroke="none" stroke-width="1" fill="none" fill-rule="evenodd">
        <g id="86 Celsius" fill="#D4D4D4">
            <path d="M9,14 C6.79086089,14 5,12.2091391 5,10 C5,7.79086089 6.79086089,6 9,6 C11.2091391,6 13,7.79086089 13,10 C13,12.2091391 11.2091391,14 9,14 Z M25,11.0094776 C25,9.34738902 23.6609799,8 21.9983345,8 L20.0016655,8 C18.3438914,8 17,9.33663106 17,11.0094776 L17,20.9905224 C17,22.652611 18.3390201,24 20.0016655,24 L21.9983345,24 C23.6561086,24 25,22.6633689 25,20.9905224 L25,21 C25,20.4438648 25.4477153,20 26,20 C26.5561352,20 27,20.4477153 27,21 L27,21.0047466 C27,23.763962 24.7604449,26 21.9978137,26 L20.0021863,26 C17.2289849,26 15,23.7635489 15,21.0047466 L15,10.9952534 C15,8.23603796 17.2395551,6 20.0021863,6 L21.9978137,6 C24.7710151,6 27,8.23645112 27,10.9952534 L27,11 C27,11.5561352 26.5522847,12 26,12 C25.4438648,12 25,11.5522847 25,11 Z M9,12 C10.1045696,12 11,11.1045696 11,10 C11,8.89543045 10.1045696,8 9,8 C7.89543045,8 7,8.89543045 7,10 C7,11.1045696 7.89543045,12 9,12 Z M9,12" id="Rectangle 352"></path>
        </g>
    </g>
</svg>