<?xml version="1.0" encoding="UTF-8" standalone="no"?>
<svg width="32px" height="32px" viewBox="0 0 32 32" version="1.1" xmlns="http://www.w3.org/2000/svg" xmlns:xlink="http://www.w3.org/1999/xlink" xmlns:sketch="http://www.bohemiancoding.com/sketch/ns">
    <title>96 Air Sock</title>
    <description>Created with Sketch (http://www.bohemiancoding.com/sketch)</description>
    <defs></defs>
    <g id="Icons new Arranged Names" stroke="none" stroke-width="1" fill="none" fill-rule="evenodd">
        <g id="96 Air Sock" fill="#D4D4D4">
            <path d="M3,30 C2.44386482,30 2,29.5538362 2,29.0034652 L2,2.99653482 C2,2.43981314 2.44771525,2 3,2 C3.55613518,2 4,2.44616384 4,2.99653482 L4,4.8578985 L11.9640742,0.8 L12.4180647,1.69100652 L4.18445426,5.8862406 L7.14635388,12.8640388 L6.22584903,13.25477 L4,8.01099826 L4,29.0034652 C4,29.5601869 3.55228475,30 3,30 Z M3,30" id="Rectangle 269"></path>
            <path d="M30.3288473,16.9096111 C29.6286304,18.411231 28.6552248,19.4393218 28.1546848,19.2059162 L6.5254404,13.5335455 L12.4420961,0.845236523 L30.6903943,13.7680694 C31.1909343,14.0014751 31.0290642,15.4079911 30.3288473,16.9096111 Z M24.8910006,14.3739015 C24.3323706,15.5718873 23.6191196,16.5325397 22.9754399,17.0359755 L26.5533783,17.9075257 C26.8036483,18.0242286 27.4795638,17.1044154 28.0630779,15.8530654 C28.646592,14.6017154 28.9167396,13.4926896 28.6664696,13.3759868 L25.6989689,11.1953487 C25.7270641,12.0120382 25.4496306,13.1759156 24.8910006,14.3739015 Z M13.1608522,14.3424633 C13.9718627,13.5248341 14.9650883,11.9980732 15.8279227,10.1477189 C16.6907572,8.29736451 17.2218907,6.55512652 17.3269235,5.40829458 L21.1436269,8.21296076 C21.6441669,8.4463664 21.2930842,10.2586502 20.3594617,12.2608102 C19.4258392,14.2629702 18.2632208,15.6968287 17.7626808,15.4634231 Z M7.67115266,6.34415451 C9.30499209,2.84037455 11.4410161,0.378425258 12.4420961,0.845236523 L6.5254404,13.5335455 C5.52436042,13.0667343 6.03731323,9.84793447 7.67115266,6.34415451 Z M12.4726317,1.96285344 C11.7218217,1.61274499 9.97789424,3.76353281 8.57746045,6.76677277 C7.17702665,9.77001274 6.65040257,12.4884384 7.40121256,12.8385469 C8.15202255,13.1886553 9.89595002,11.0378675 11.2963838,8.03462756 C12.6968176,5.03138759 13.2234417,2.31296189 12.4726317,1.96285344 Z M12.4726317,1.96285344" id="Rectangle 274 copy"></path>
        </g>
    </g>
</svg>