<?xml version="1.0" encoding="UTF-8" standalone="no"?>
<svg width="16px" height="16px" viewBox="0 0 16 16" version="1.1" xmlns="http://www.w3.org/2000/svg" xmlns:xlink="http://www.w3.org/1999/xlink" xmlns:sketch="http://www.bohemiancoding.com/sketch/ns">
    <title>005 CalendarDate</title>
    <description>Created with Sketch (http://www.bohemiancoding.com/sketch)</description>
    <defs></defs>
    <g id="Icons with numbers" stroke="none" stroke-width="1" fill="none" fill-rule="evenodd">
        <g id="Group" transform="translate(-192.000000, 0.000000)" fill="#D4D4D4">
            <path d="M195,8 L195,9 L198,9 L198,10 L196,10 L195,10 L195,13 L196,13 L199,13 L199,12 L196,12 L196,11 L198,11 L199,11 L199,10 L199,8 L198,8 Z M193.99406,3 L195,3 L195,4.00208688 C195,5.10550383 195.88773,6 197,6 C198.104569,6 199,5.10173938 199,4.00208688 L199,3 L201,3 L201,4.00208688 C201,5.10550383 201.88773,6 203,6 C204.104569,6 205,5.10173938 205,4.00208688 L205,3 L206.00594,3 C207.105486,3 208,3.8992496 208,5.0085302 L208,12.9914698 C208,14.0980496 207.107229,15 206.00594,15 L193.99406,15 C192.894514,15 192,14.1007504 192,12.9914698 L192,5.0085302 C192,3.90195036 192.892771,3 193.99406,3 Z M197,5 C196.443865,5 196,4.54809015 196,3.9906311 L196,2.0093689 C196,1.44335318 196.447715,1 197,1 C197.556135,1 198,1.45190985 198,2.0093689 L198,3.9906311 C198,4.55664682 197.552285,5 197,5 Z M203,5 C202.443865,5 202,4.54809015 202,3.9906311 L202,2.0093689 C202,1.44335318 202.447715,1 203,1 C203.556135,1 204,1.45190985 204,2.0093689 L204,3.9906311 C204,4.55664682 203.552285,5 203,5 Z M201,8 L201,9 L204,9 L204,13 L205,13 L205,8 L204,8 Z M201,8" id="Rectangle 134 copy"></path>
        </g>
    </g>
</svg>