<?xml version="1.0" encoding="UTF-8" standalone="no"?>
<svg width="16px" height="16px" viewBox="0 0 16 16" version="1.1" xmlns="http://www.w3.org/2000/svg" xmlns:xlink="http://www.w3.org/1999/xlink" xmlns:sketch="http://www.bohemiancoding.com/sketch/ns">
    <title>014 ZoomIn</title>
    <description>Created with Sketch (http://www.bohemiancoding.com/sketch)</description>
    <defs></defs>
    <g id="Icons with numbers" stroke="none" stroke-width="1" fill="none" fill-rule="evenodd">
        <g id="Group" transform="translate(-624.000000, 0.000000)" fill="#D4D4D4">
            <path d="M629.5,10 C631.985281,10 634,7.9852815 634,5.5 C634,3.0147185 631.985281,1 629.5,1 C627.014719,1 625,3.0147185 625,5.5 C625,7.9852815 627.014719,10 629.5,10 Z M629,3 L630,3 L630,5 L632,5 L632,6 L630,6 L630,8 L629,8 L629,6 L627,6 L627,5 L629,5 Z M629.5,11 C626.462434,11 624,8.53756627 624,5.5 C624,2.46243373 626.462434,0 629.5,0 C632.537566,0 635,2.46243373 635,5.5 C635,6.71930689 634.60323,7.84594308 633.931752,8.7578474 L634.042908,9.00878906 L640,15 L639,16 L633,10 L632.842655,9.86803867 C631.916217,10.5780624 630.757383,11 629.5,11 Z M629.5,11" id="Oval 283 copy"></path>
        </g>
    </g>
</svg>