<?xml version="1.0" encoding="UTF-8" standalone="no"?>
<svg width="16px" height="16px" viewBox="0 0 16 16" version="1.1" xmlns="http://www.w3.org/2000/svg" xmlns:xlink="http://www.w3.org/1999/xlink" xmlns:sketch="http://www.bohemiancoding.com/sketch/ns">
    <title>015 ZoomOut</title>
    <description>Created with Sketch (http://www.bohemiancoding.com/sketch)</description>
    <defs></defs>
    <g id="Icons with numbers" stroke="none" stroke-width="1" fill="none" fill-rule="evenodd">
        <g id="Group" transform="translate(-672.000000, 0.000000)" fill="#D4D4D4">
            <path d="M677.5,11 C674.462434,11 672,8.53756627 672,5.5 C672,2.46243373 674.462434,0 677.5,0 C680.537566,0 683,2.46243373 683,5.5 C683,6.71930689 682.60323,7.84594308 681.931752,8.7578474 L682.042908,9.00878906 L688,15 L687,16 L681,10 L680.842655,9.86803867 C679.916217,10.5780624 678.757383,11 677.5,11 Z M677.5,10 C679.985281,10 682,7.9852815 682,5.5 C682,3.0147185 679.985281,1 677.5,1 C675.014719,1 673,3.0147185 673,5.5 C673,7.9852815 675.014719,10 677.5,10 Z M675,5 L680,5 L680,6 L675,6 Z M675,5" id="Oval 283 copy 2"></path>
        </g>
    </g>
</svg>