<?xml version="1.0" encoding="UTF-8" standalone="no"?>
<svg width="16px" height="16px" viewBox="0 0 16 16" version="1.1" xmlns="http://www.w3.org/2000/svg" xmlns:xlink="http://www.w3.org/1999/xlink" xmlns:sketch="http://www.bohemiancoding.com/sketch/ns">
    <title>019 Lock</title>
    <description>Created with Sketch (http://www.bohemiancoding.com/sketch)</description>
    <defs></defs>
    <g id="Icons with numbers" stroke="none" stroke-width="1" fill="none" fill-rule="evenodd">
        <g id="Group" transform="translate(0.000000, -48.000000)" fill="#D4D4D4">
            <path d="M2,57 C2,56 3,55 4,55 L4,53 C4,51.5 5.5,50 7,50 L9,50 C10.5,50 12,51.5 12,53 L12,55 C13,55 14,56 14,57 L14,61 C14,62 13,63 12,63 L4,63 C3,63 2,62 2,61 L2,57 L2,57 Z M5,53 L5,55 L11,55 L11,53 C11,52 10,51 9,51 L7,51 C6,51 5,52 5,53 L5,53 Z M5,53" id="Shape"></path>
        </g>
    </g>
</svg>