<?xml version="1.0" encoding="UTF-8" standalone="no"?>
<svg width="16px" height="16px" viewBox="0 0 16 16" version="1.1" xmlns="http://www.w3.org/2000/svg" xmlns:xlink="http://www.w3.org/1999/xlink" xmlns:sketch="http://www.bohemiancoding.com/sketch/ns">
    <title>050 Disk2</title>
    <description>Created with Sketch (http://www.bohemiancoding.com/sketch)</description>
    <defs></defs>
    <g id="Icons with numbers" stroke="none" stroke-width="1" fill="none" fill-rule="evenodd">
        <g id="Group" transform="translate(-624.000000, -96.000000)" fill="#D4D4D4">
            <path d="M627,99 C627,97.8954305 627.895431,97 629,97 L635,97 C636.104569,97 637,97.8954305 637,99 L637.975598,107.780386 C637.874271,107.333803 637.469839,107 636.997527,107 L627.002473,107 C626.448823,107 626,107.44266 626,107.998957 L626,108 L625.984619,108 Z M627.495545,108 C626.669578,108 626,108.665797 626,109.5 L626,109.5 C626,110.328427 626.679554,111 627.495545,111 L636.504455,111 C637.330422,111 638,110.334203 638,109.5 L638,109.5 C638,108.671573 637.320446,108 636.504455,108 L627.495545,108 Z M628,109 L628,110 L636,110 L636,109 L628,109 Z M628,109" id="Rectangle 222 copy"></path>
        </g>
    </g>
</svg>