<?xml version="1.0" encoding="UTF-8" standalone="no"?>
<svg width="16px" height="16px" viewBox="0 0 16 16" version="1.1" xmlns="http://www.w3.org/2000/svg" xmlns:xlink="http://www.w3.org/1999/xlink" xmlns:sketch="http://www.bohemiancoding.com/sketch/ns">
    <title>103 Bold</title>
    <description>Created with Sketch (http://www.bohemiancoding.com/sketch)</description>
    <defs></defs>
    <g id="Icons with numbers" stroke="none" stroke-width="1" fill="none" fill-rule="evenodd">
        <g id="Group" transform="translate(-576.000000, -240.000000)" fill="#D4D4D4">
            <path d="M577,256 L577,254 L579,254 L579,242 L577,242 L577,240 L587,240 C589.209139,240 591,241.790861 591,244 C591,246.209139 589.209139,248 587,248 C589.209139,248 591,249.790861 591,252 C591,254.209139 589.209139,256 587,256 Z M581,251.5 L581,254 L586.5,254 C587.880712,254 589,252.880712 589,251.5 C589,250.119288 587.880712,249 586.5,249 L581,249 Z M581,244.5 L581,247 L586.5,247 C587.880712,247 589,245.880712 589,244.5 C589,243.119288 587.880712,242 586.5,242 L581,242 Z M581,244.5" id="Rectangle 221"></path>
        </g>
    </g>
</svg>