<?xml version="1.0" encoding="UTF-8" standalone="no"?>
<svg width="16px" height="16px" viewBox="0 0 16 16" version="1.1" xmlns="http://www.w3.org/2000/svg" xmlns:xlink="http://www.w3.org/1999/xlink" xmlns:sketch="http://www.bohemiancoding.com/sketch/ns">
    <title>124 CloudAdd</title>
    <description>Created with Sketch (http://www.bohemiancoding.com/sketch)</description>
    <defs></defs>
    <g id="Icons with numbers" stroke="none" stroke-width="1" fill="none" fill-rule="evenodd">
        <g id="Group" transform="translate(-720.000000, -288.000000)" fill="#D4D4D4">
            <path d="M727,294 L727,296 L725,296 L725,298 L727,298 L727,300 L729,300 L729,298 L731,298 L731,296 L729,296 L729,294 Z M720,298 C720,296.651721 720.895887,295.507545 722.127761,295.131093 C722.500314,293.897932 723.645295,293 725,293 C725.174013,293 725.344566,293.014816 725.510466,293.043254 C726.195719,291.823839 727.50165,291 729,291 C731.209139,291 733,292.790861 733,295 C734.668415,295.005076 736,296.346276 736,298 C736,299.653483 734.652611,301 732.990522,301 L723.009478,301 C721.336631,301 720,299.656854 720,298 Z M720,298" id="Rectangle 169 copy 3"></path>
        </g>
    </g>
</svg>