<?xml version="1.0" encoding="UTF-8" standalone="no"?>
<svg width="16px" height="16px" viewBox="0 0 16 16" version="1.1" xmlns="http://www.w3.org/2000/svg" xmlns:xlink="http://www.w3.org/1999/xlink" xmlns:sketch="http://www.bohemiancoding.com/sketch/ns">
    <title>161 Desktop2</title>
    <description>Created with Sketch (http://www.bohemiancoding.com/sketch)</description>
    <defs></defs>
    <g id="Icons with numbers" stroke="none" stroke-width="1" fill="none" fill-rule="evenodd">
        <g id="Group" transform="translate(-768.000000, -384.000000)" fill="#D4D4D4">
            <path d="M769,388 L769,398 L783,398 L783,388 Z M769.99406,385 L782.00594,385 C783.105486,385 784,385.898054 784,387.005859 L784,396.994141 C784,398.10294 783.107229,399 782.00594,399 L769.99406,399 C768.894514,399 768,398.101946 768,396.994141 L768,387.005859 C768,385.89706 768.892771,385 769.99406,385 Z M772,395 L780,395 L781,397 L771,397 Z M769,386 L769,387 L770,387 L770,386 Z M782,386 L782,387 L783,387 L783,386 L782,386 Z M782,386" id="Rectangle 298 copy"></path>
        </g>
    </g>
</svg>