<?xml version="1.0" encoding="UTF-8" standalone="no"?>
<svg width="16px" height="16px" viewBox="0 0 16 16" version="1.1" xmlns="http://www.w3.org/2000/svg" xmlns:xlink="http://www.w3.org/1999/xlink" xmlns:sketch="http://www.bohemiancoding.com/sketch/ns">
    <title>168 BoxFilled</title>
    <description>Created with Sketch (http://www.bohemiancoding.com/sketch)</description>
    <defs></defs>
    <g id="Icons with numbers" stroke="none" stroke-width="1" fill="none" fill-rule="evenodd">
        <g id="Group" transform="translate(-240.000000, -432.000000)" fill="#D4D4D4">
            <path d="M240,442 L256,442 L255,448 L241,448 Z M245,443 L245,444 L251,444 L251,443 Z M242,432 L254,432 L256,442 L255,442 L252.992554,433 L243.011475,433 L241,442 L240,442 Z M243,440 L253,440 L253,441 L243,441 Z M243,438 L253,438 L253,439 L243,439 Z M244,436 L252,436 L252,437 L244,437 Z M244,434 L252,434 L252,435 L244,435 Z M244,434" id="Rectangle 239 copy"></path>
        </g>
    </g>
</svg>