<?xml version="1.0" encoding="UTF-8" standalone="no"?>
<svg width="16px" height="16px" viewBox="0 0 16 16" version="1.1" xmlns="http://www.w3.org/2000/svg" xmlns:xlink="http://www.w3.org/1999/xlink" xmlns:sketch="http://www.bohemiancoding.com/sketch/ns">
    <title>205 CircledPause</title>
    <description>Created with Sketch (http://www.bohemiancoding.com/sketch)</description>
    <defs></defs>
    <g id="Icons with numbers" stroke="none" stroke-width="1" fill="none" fill-rule="evenodd">
        <g id="Group" transform="translate(-288.000000, -528.000000)" fill="#D4D4D4">
            <path d="M296,544 C291.581722,544 288,540.418278 288,536 C288,531.581722 291.581722,528 296,528 C300.418278,528 304,531.581722 304,536 C304,540.418278 300.418278,544 296,544 L296,544 Z M299,532 L297,532 L297,536 L297,540 L299,540 L299,532 L299,532 Z M295,532 L293,532 L293,536 L293,540 L295,540 L295,532 L295,532 Z M295,532" id="Shape copy 3"></path>
        </g>
    </g>
</svg>