<?xml version="1.0" encoding="UTF-8" standalone="no"?>
<svg width="16px" height="16px" viewBox="0 0 16 16" version="1.1" xmlns="http://www.w3.org/2000/svg" xmlns:xlink="http://www.w3.org/1999/xlink" xmlns:sketch="http://www.bohemiancoding.com/sketch/ns">
    <title>234 PagesView4</title>
    <description>Created with Sketch (http://www.bohemiancoding.com/sketch)</description>
    <defs></defs>
    <g id="Icons with numbers" stroke="none" stroke-width="1" fill="none" fill-rule="evenodd">
        <g id="Group" transform="translate(-816.000000, -576.000000)" fill="#D4D4D4">
            <path d="M818.99703,578 C818.446386,578 818,578.453036 818,578.99703 L818,585.00297 C818,585.553614 818.453036,586 818.99703,586 L819,586 L819,588 L818.997152,588 C817.341623,588 816,586.658129 816,585.002848 L816,578.997152 C816,577.341623 817.341871,576 818.997152,576 L825.002848,576 C826.657561,576 827.998677,577.340548 828,578.994705 C827.68038,578.99489 827.3453,579 827,579 L826,579 L826,578.99703 C826,578.446386 825.546964,578 825.00297,578 Z M822.997152,580 L829.002848,580 C830.658377,580 832,581.341871 832,582.997152 L832,589.002848 C832,590.658377 830.658129,592 829.002848,592 L822.997152,592 C821.341623,592 820,590.658129 820,589.002848 L820,582.997152 C820,581.341623 821.341871,580 822.997152,580 Z M822.99703,582 C822.446386,582 822,582.453036 822,582.99703 L822,589.00297 C822,589.553614 822.453036,590 822.99703,590 L829.00297,590 C829.553614,590 830,589.546964 830,589.00297 L830,582.99703 C830,582.446386 829.546964,582 829.00297,582 Z M822.99703,582" id="Rectangle 16 copy 3"></path>
        </g>
    </g>
</svg>