<?xml version="1.0" encoding="UTF-8" standalone="no"?>
<svg width="32px" height="32px" viewBox="0 0 32 32" version="1.1" xmlns="http://www.w3.org/2000/svg" xmlns:xlink="http://www.w3.org/1999/xlink" xmlns:sketch="http://www.bohemiancoding.com/sketch/ns">
    <title>25 Cloud Fog Sun</title>
    <description>Created with Sketch (http://www.bohemiancoding.com/sketch)</description>
    <defs></defs>
    <g id="Icons new Arranged Names" stroke="none" stroke-width="1" fill="none" fill-rule="evenodd">
        <g id="25 Cloud Fog Sun" fill="#D4D4D4">
            <path d="M12,5 C14.1432973,5 16.1116093,5.74920044 17.6573345,7 L6.34266546,7 C7.88839993,5.74919694 9.85670775,5 12,5 Z M0.342363197,17 L31.6585144,17 C31.8796618,17.6255636 32,18.2987322 32,19 L0,19 C0,18.2991615 0.120654163,17.6258969 0.342363197,17 Z M31.195553,22 L0.802847203,22 C0.45143886,21.3926178 0.203448795,20.7179242 0.0829781634,20 L31.9167576,20 C31.7960107,20.7175221 31.5475651,21.3923098 31.195553,22 Z M25.9998243,25 L6.00017566,25 C4.22344673,25 2.62680151,24.2274959 1.52803983,23 L30.4697577,23 C29.3711646,24.2266896 27.7755791,25 25.9998243,25 Z M2.68490751,14 L29.3174489,14 C30.0875815,14.5120271 30.7326957,15.1972235 31.197151,16 L0.804451352,16 C1.26924154,15.197621 1.91458537,14.5122471 2.68490751,14 Z M3.51211611,11 L26.190428,11 C26.7426917,11.575486 27.1900701,12.2523945 27.5018367,13 L3.05492872,13 C3.13158669,12.3065377 3.287033,11.6368191 3.51211611,11 Z M5.2916803,8 L18.7083197,8 C19.0594789,8.39234414 19.3767367,8.81569686 19.6554697,9.26543304 C20.2402063,9.09270499 20.8592769,9 21.5,9 C22.774083,9 23.9625489,9.36657077 24.9656861,10 L3.93551768,10 C4.29735894,9.27188724 4.75489875,8.59973604 5.2916803,8 Z M5.2916803,8" id="Rectangle 1 copy 5"></path>
            <path d="M27,11 C27,11.3144466 26.975811,11.6232436 26.9291922,11.9246317 C25.7664805,10.162615 23.769012,9 21.5,9 C20.8592769,9 20.2402063,9.09270499 19.6554697,9.26543304 C18.9782859,8.17279575 18.0737092,7.23588699 17.0078268,6.52079393 C18.0683988,5.57487307 19.467065,5 21,5 C24.3137087,5 27,7.68629134 27,11 Z M30.9944763,10.0038452 C31.560492,10.0038452 32.0038452,10.4515605 32.0038452,11.0038452 C32.0038452,11.5599804 31.5519354,12.0038452 30.9944763,12.0038452 L29.0132141,12.0038452 C28.4471984,12.0038452 28.0038452,11.55613 28.0038452,11.0038452 C28.0038452,10.44771 28.4557551,10.0038452 29.0132141,10.0038452 L30.9944763,10.0038452 Z M20,1.0093689 C20,0.443353176 20.4477153,0 21,0 C21.5561352,0 22,0.451909848 22,1.0093689 L22,2.9906311 C22,3.55664682 21.5522847,4 21,4 C20.4438648,4 20,3.54809015 20,2.9906311 L20,1.0093689 Z M27.3600552,3.22957645 C27.7602888,2.8293429 28.3903693,2.83242735 28.7808936,3.22295164 C29.1741405,3.6161986 29.1684518,4.24960694 28.7742688,4.64379002 L27.3733048,6.04475396 C26.9730713,6.44498751 26.3429907,6.44190306 25.9524664,6.05137877 C25.5592195,5.65813181 25.5649082,5.02472347 25.9590913,4.6305404 L27.3600552,3.22957645 Z M27.3600552,3.22957645" id="Rectangle 1 copy 4"></path>
        </g>
    </g>
</svg>