<?xml version="1.0" encoding="UTF-8" standalone="no"?>
<svg width="32px" height="32px" viewBox="0 0 32 32" version="1.1" xmlns="http://www.w3.org/2000/svg" xmlns:xlink="http://www.w3.org/1999/xlink" xmlns:sketch="http://www.bohemiancoding.com/sketch/ns">
    <title>53 Cloud Reload</title>
    <description>Created with Sketch (http://www.bohemiancoding.com/sketch)</description>
    <defs></defs>
    <g id="Icons new Arranged Names" stroke="none" stroke-width="1" fill="none" fill-rule="evenodd">
        <g id="53 Cloud Reload" fill="#D4D4D4">
            <path d="M25.9725356,15 C25.7238035,12.7500155 23.8162709,11 21.5,11 C20.4427534,11 19.4706636,11.3645993 18.7026063,11.974922 C17.8340685,9.0963276 15.1618462,7 12,7 C8.13400656,7 5,10.1340066 5,14 C5,14.3757911 5.0296122,14.7446659 5.08663046,15.1044183 C3.31778819,15.5175755 2,17.1080834 2,19 C2,21.209139 3.79412025,23 5.99683887,23 L7.13193313,23 C7.25657815,23.7000583 7.46692453,24.3704704 7.75173924,25 L6.00017566,25 C2.68697795,25 0,22.3137085 0,19 C0,16.7828376 1.20753986,14.8416411 3.00211353,13.8029948 C3.10690617,8.92340284 7.0952729,5 12,5 C15.2334975,5 18.0687212,6.7052115 19.6554697,9.26543304 C20.2402063,9.09270499 20.8592769,9 21.5,9 C24.2845531,9 26.6601501,10.7509485 27.5858427,13.2118973 C30.129704,13.9074543 32,16.2353674 32,19 C32,22.3069658 29.3136299,25 25.9998243,25 L23.2482608,25 C23.5330755,24.3704704 23.7434218,23.7000583 23.8680669,23 L26.0031611,23 C28.2105543,23 30,21.2046438 30,19 C30,16.790861 28.2058797,15 26.0031611,15 Z M20,21.5 C20,21.3309894 19.9906827,21.164155 19.9725356,21 L21.9810552,21 C21.9936088,21.1650264 22,21.3317668 22,21.5 C22,25.0898511 19.0898511,28 15.5,28 C11.9101489,28 9,25.0898511 9,21.5 C9,18.0783821 11.6437803,15.2742526 15,15.0189448 L15,13 L19,16 L15,19 L15,17.0274644 C12.7500155,17.2761965 11,19.1837291 11,21.5 C11,23.9852815 13.0147185,26 15.5,26 C17.9852815,26 20,23.9852815 20,21.5 Z M20,21.5" id="Rectangle 1 copy 3"></path>
        </g>
    </g>
</svg>