<?xml version="1.0" encoding="UTF-8" standalone="no"?>
<svg width="32px" height="32px" viewBox="0 0 32 32" version="1.1" xmlns="http://www.w3.org/2000/svg" xmlns:xlink="http://www.w3.org/1999/xlink" xmlns:sketch="http://www.bohemiancoding.com/sketch/ns">
    <title>97 Air Sock</title>
    <description>Created with Sketch (http://www.bohemiancoding.com/sketch)</description>
    <defs></defs>
    <g id="Icons new Arranged Names" stroke="none" stroke-width="1" fill="none" fill-rule="evenodd">
        <g id="97 Air Sock" fill="#D4D4D4">
            <path d="M31,5 C31.5522848,5 32,6.34314567 32,8 C32,9.65685433 31.5522848,11 31,11 L9,15 C8.78540143,15 8.57869696,14.8817047 8.38491465,14.6627236 L2,9.30514407 L2,31.0034652 C2,31.5601869 1.55228475,32 1,32 C0.443864822,32 0,31.5538362 0,31.0034652 L0,4.99653482 C0,4.43981314 0.44771525,4 1,4 C1.55613518,4 2,4.44616384 2,4.99653482 L2,6.66061574 L8.39791571,1.29212703 L8.41134024,1.30812576 C8.59744767,1.10781662 8.79512642,1 9,1 Z M7.49509478,12.6106688 C7.18683556,11.3791396 7,9.76593597 7,8 C7,6.21322568 7.19127096,4.58280949 7.50605869,3.34589121 L2,7.96602303 L2,7.99973678 Z M25.3889535,4.7777907 C25.7595643,5.50608922 26,6.67816888 26,8 C26,9.32183112 25.7595643,10.4939108 25.3889535,11.2222093 L29,10.5 C29.2761424,10.5 29.5,9.38071194 29.5,8 C29.5,6.61928806 29.2761424,5.5 29,5.5 Z M20,12 C20.5522848,12 21,10.2091391 21,8 C21,5.79086089 20.5522848,4 20,4 L15.3555888,3.07111776 C15.7450689,4.15488927 16,5.95835986 16,8 C16,10.0416401 15.7450689,11.8451107 15.3555888,12.9288822 Z M11,8 C11,4.68629134 10.3284272,2 9.5,2 C8.67157283,2 8,4.68629134 8,8 C8,11.3137087 8.67157283,14 9.5,14 C10.3284272,14 11,11.3137087 11,8 Z M11,8" id="Rectangle 269"></path>
        </g>
    </g>
</svg>