<?xml version="1.0" encoding="UTF-8" standalone="no"?>
<svg width="16px" height="16px" viewBox="0 0 16 16" version="1.1" xmlns="http://www.w3.org/2000/svg" xmlns:xlink="http://www.w3.org/1999/xlink" xmlns:sketch="http://www.bohemiancoding.com/sketch/ns">
    <title>004 Calendar</title>
    <description>Created with Sketch (http://www.bohemiancoding.com/sketch)</description>
    <defs></defs>
    <g id="Icons with numbers" stroke="none" stroke-width="1" fill="none" fill-rule="evenodd">
        <g id="Group" transform="translate(-144.000000, 0.000000)" fill="#000000">
            <path d="M155,5 C154.443865,5 154,4.54809015 154,3.9906311 L154,2.0093689 C154,1.44335318 154.447715,1 155,1 C155.556135,1 156,1.45190985 156,2.0093689 L156,3.9906311 C156,4.55664682 155.552285,5 155,5 Z M145.99406,3 L147,3 L147,4.00208688 C147,5.10550383 147.88773,6 149,6 C150.104569,6 151,5.10173938 151,4.00208688 L151,3 L153,3 L153,4.00208688 C153,5.10550383 153.88773,6 155,6 C156.104569,6 157,5.10173938 157,4.00208688 L157,3 L158.00594,3 C159.105486,3 160,3.8992496 160,5.0085302 L160,12.9914698 C160,14.0980496 159.107229,15 158.00594,15 L145.99406,15 C144.894514,15 144,14.1007504 144,12.9914698 L144,5.0085302 C144,3.90195036 144.892771,3 145.99406,3 Z M149,5 C148.443865,5 148,4.54809015 148,3.9906311 L148,2.0093689 C148,1.44335318 148.447715,1 149,1 C149.556135,1 150,1.45190985 150,2.0093689 L150,3.9906311 C150,4.55664682 149.552285,5 149,5 Z M149,5" id="Rectangle 134"></path>
        </g>
    </g>
</svg>