<?xml version="1.0" encoding="UTF-8" standalone="no"?>
<svg width="16px" height="16px" viewBox="0 0 16 16" version="1.1" xmlns="http://www.w3.org/2000/svg" xmlns:xlink="http://www.w3.org/1999/xlink" xmlns:sketch="http://www.bohemiancoding.com/sketch/ns">
    <title>013 MagnifyingGlass</title>
    <description>Created with Sketch (http://www.bohemiancoding.com/sketch)</description>
    <defs></defs>
    <g id="Icons with numbers" stroke="none" stroke-width="1" fill="none" fill-rule="evenodd">
        <g id="Group" transform="translate(-576.000000, 0.000000)" fill="#000000">
            <path d="M581.5,11 C578.462434,11 576,8.53756627 576,5.5 C576,2.46243373 578.462434,0 581.5,0 C584.537566,0 587,2.46243373 587,5.5 C587,6.71930689 586.60323,7.84594308 585.931752,8.7578474 L586.042908,9.00878906 L592,15 L591,16 L585,10 L584.842655,9.86803867 C583.916217,10.5780624 582.757383,11 581.5,11 Z M581.5,10 C583.985281,10 586,7.9852815 586,5.5 C586,3.0147185 583.985281,1 581.5,1 C579.014719,1 577,3.0147185 577,5.5 C577,7.9852815 579.014719,10 581.5,10 Z M581,3 C580,3 579,4 579,5 L578,5 C578,3.5 579.5,2 581,2 Z M581,3" id="Oval 283"></path>
        </g>
    </g>
</svg>