<?xml version="1.0" encoding="UTF-8" standalone="no"?>
<svg width="16px" height="16px" viewBox="0 0 16 16" version="1.1" xmlns="http://www.w3.org/2000/svg" xmlns:xlink="http://www.w3.org/1999/xlink" xmlns:sketch="http://www.bohemiancoding.com/sketch/ns">
    <title>061 Sync</title>
    <description>Created with Sketch (http://www.bohemiancoding.com/sketch)</description>
    <defs></defs>
    <g id="Icons with numbers" stroke="none" stroke-width="1" fill="none" fill-rule="evenodd">
        <g id="Group" transform="translate(-288.000000, -144.000000)" fill="#000000">
            <path d="M296,158 C298.973001,158 301.440972,155.837706 301.917042,153 L303.938106,153 C303.446016,156.946304 300.079623,160 296,160 C293.310983,160 290.931833,158.673299 289.481412,156.63876 L288,158 L288,153 L288.061894,153 L290.082958,153 L293.441406,153 L290.969469,155.271414 C292.039897,156.914078 293.893133,158 296,158 Z M301.917042,151 L301,151 L299,151 L301.123754,148.876298 C300.069891,147.151341 298.169401,146 296,146 C293.026999,146 290.559028,148.162294 290.082958,151 L288.061894,151 C288.553984,147.053696 291.920377,144 296,144 C298.719979,144 301.122913,145.357428 302.568307,147.43178 L304,146.000122 L304,151 L303.938106,151 Z M301.917042,151" id="Oval 191 copy 2"></path>
        </g>
    </g>
</svg>