<?xml version="1.0" encoding="UTF-8" standalone="no"?>
<svg width="16px" height="16px" viewBox="0 0 16 16" version="1.1" xmlns="http://www.w3.org/2000/svg" xmlns:xlink="http://www.w3.org/1999/xlink" xmlns:sketch="http://www.bohemiancoding.com/sketch/ns">
    <title>077 Location</title>
    <description>Created with Sketch (http://www.bohemiancoding.com/sketch)</description>
    <defs></defs>
    <g id="Icons with numbers" stroke="none" stroke-width="1" fill="none" fill-rule="evenodd">
        <g id="Group" transform="translate(-192.000000, -192.000000)" fill="#000000">
            <path d="M201,205.917042 C203.512502,205.49553 205.495527,203.512505 205.917042,201 L203,201 L203,199 L205.917042,199 C205.495527,196.487495 203.512502,194.50447 201,194.082958 L201,197 L199,197 L199,194.082958 C196.487498,194.50447 194.504473,196.487495 194.082958,199 L197,199 L197,201 L194.082958,201 C194.504473,203.512505 196.487498,205.49553 199,205.917042 L199,203 L201,203 Z M200,208 C195.581722,208 192,204.418278 192,200 C192,195.581722 195.581722,192 200,192 C204.418278,192 208,195.581722 208,200 C208,204.418278 204.418278,208 200,208 Z M200,208" id="Oval 163"></path>
        </g>
    </g>
</svg>