<?xml version="1.0" encoding="UTF-8" standalone="no"?>
<svg width="16px" height="16px" viewBox="0 0 16 16" version="1.1" xmlns="http://www.w3.org/2000/svg" xmlns:xlink="http://www.w3.org/1999/xlink" xmlns:sketch="http://www.bohemiancoding.com/sketch/ns">
    <title>087 Speechbubbles</title>
    <description>Created with Sketch (http://www.bohemiancoding.com/sketch)</description>
    <defs></defs>
    <g id="Icons with numbers" stroke="none" stroke-width="1" fill="none" fill-rule="evenodd">
        <g id="Group" transform="translate(-672.000000, -192.000000)" fill="#000000">
            <path d="M678.5,206 C677.731809,206 676.994742,205.897492 676.310656,205.709288 C675.487837,206.33258 674.185332,207.131104 672.912598,207.131104 C673.551757,206.526132 673.772464,205.403044 673.839123,204.485072 C672.700924,203.584516 672,202.355223 672,201 C672,198.238576 674.910149,196 678.5,196 C682.089851,196 685,198.238576 685,201 C685,203.761424 682.089851,206 678.5,206 Z M677.345304,195.154564 C678.471782,194.43361 679.920062,194 681.5,194 C685.089851,194 688,196.238576 688,199 C688,199.906069 687.686692,200.755847 687.138867,201.488728 C687.115869,202.365606 687.179165,204.271446 688.087402,205.131104 C686.813468,205.131104 685.509707,204.331074 684.687018,203.707526 C685.513346,202.804647 686,201.696977 686,200.5 C686,197.462434 682.865993,195 679,195 C678.429953,195 677.875821,195.053538 677.345304,195.154564 Z M677.345304,195.154564" id="Oval 247 copy"></path>
        </g>
    </g>
</svg>