<?xml version="1.0" encoding="UTF-8" standalone="no"?>
<svg width="16px" height="16px" viewBox="0 0 16 16" version="1.1" xmlns="http://www.w3.org/2000/svg" xmlns:xlink="http://www.w3.org/1999/xlink" xmlns:sketch="http://www.bohemiancoding.com/sketch/ns">
    <title>098 Spreadsheet</title>
    <description>Created with Sketch (http://www.bohemiancoding.com/sketch)</description>
    <defs></defs>
    <g id="Icons with numbers" stroke="none" stroke-width="1" fill="none" fill-rule="evenodd">
        <g id="Group" transform="translate(-336.000000, -240.000000)" fill="#000000">
            <path d="M337,240 L350,240 L350,256 L337,256 Z M338,241 L338,243 L343,243 L343,241 Z M338,244 L338,246 L343,246 L343,244 Z M338,247 L338,249 L343,249 L343,247 Z M338,250 L338,252 L343,252 L343,250 Z M338,253 L338,255 L343,255 L343,253 Z M344,241 L344,243 L349,243 L349,241 Z M344,244 L344,246 L349,246 L349,244 Z M344,247 L344,249 L349,249 L349,247 Z M344,250 L344,252 L349,252 L349,250 Z M344,253 L344,255 L349,255 L349,253 Z M344,253" id="Rectangle 166"></path>
        </g>
    </g>
</svg>