<?xml version="1.0" encoding="UTF-8" standalone="no"?>
<svg width="32px" height="32px" viewBox="0 0 32 32" version="1.1" xmlns="http://www.w3.org/2000/svg" xmlns:xlink="http://www.w3.org/1999/xlink" xmlns:sketch="http://www.bohemiancoding.com/sketch/ns">
    <title>100 Pressure Reading</title>
    <description>Created with Sketch (http://www.bohemiancoding.com/sketch)</description>
    <defs></defs>
    <g id="Icons new Arranged Names" stroke="none" stroke-width="1" fill="none" fill-rule="evenodd">
        <g id="100 Pressure Reading" fill="#000000">
            <path d="M28,19 C28,12.3725827 22.6274173,7 16,7 C9.37258267,7 4,12.3725827 4,19 C4,20.7451309 4.37252078,22.4032549 5.04238086,23.8991905 C4.38830027,24.1682397 3.78597629,24.4610979 3.2426403,24.7746012 C2.44444941,23.0140129 2,21.0589098 2,19 C2,11.2680131 8.26801312,5 16,5 C23.7319869,5 30,11.2680131 30,19 C30,21.0589098 29.5555506,23.0140129 28.7573597,24.7746012 C28.2140237,24.4610979 27.6116997,24.1682397 26.9576191,23.8991905 C27.6274792,22.4032549 28,20.7451309 28,19 Z M15,8 L15,12 L17,12 L17,8 L15,8 Z M21.6682445,9.51680457 L19.3171035,12.7528726 L20.9351374,13.9284431 L23.2862785,10.6923751 L21.6682445,9.51680457 Z M26.1714122,14.663421 L22.3671861,15.899489 L22.9852201,17.801602 L26.7894462,16.565534 L26.1714122,14.663421 Z M26.7894462,21.4740167 L22.9852201,20.2379488 L22.3671861,22.1400618 L26.1714122,23.3761298 L26.7894462,21.4740167 Z M5.8285878,23.3761298 L9.63281387,22.1400618 L9.01477988,20.2379488 L5.21055381,21.4740167 L5.8285878,23.3761298 Z M5.21055381,16.565534 L9.01477988,17.801602 L9.63281387,15.899489 L5.8285878,14.663421 L5.21055381,16.565534 Z M8.71372155,10.6923751 L10.3317555,9.51680457 L12.6828965,12.7528726 L11.0648626,13.9284431 Z M16,27 C14.3431457,27 13,25.6568543 13,24 C13,22.8448083 13.652924,21.8421152 14.6098618,21.3408291 L16,13 L17.3901382,21.3408291 C18.347076,21.8421152 19,22.8448083 19,24 C19,25.6568543 17.6568543,27 16,27 Z M16,27" id="Oval 278 copy 2"></path>
        </g>
    </g>
</svg>