<?xml version="1.0" encoding="UTF-8" standalone="no"?>
<svg width="16px" height="16px" viewBox="0 0 16 16" version="1.1" xmlns="http://www.w3.org/2000/svg" xmlns:xlink="http://www.w3.org/1999/xlink" xmlns:sketch="http://www.bohemiancoding.com/sketch/ns">
    <title>148 RoundedActionLeft2</title>
    <description>Created with Sketch (http://www.bohemiancoding.com/sketch)</description>
    <defs></defs>
    <g id="Icons with numbers" stroke="none" stroke-width="1" fill="none" fill-rule="evenodd">
        <g id="Group" transform="translate(-144.000000, -384.000000)" fill="#000000">
            <path d="M160,394 C160,395.104569 159.104569,396 158,396 L153.25,396 L155.75,394 L158,394 L158,387 L148,387 L148,389 L146,390.6 L146,387 C146,385.895431 146.895431,385 148,385 L158,385 C159.104569,385 160,385.895431 160,387 L160,394 L160,394 Z M144,394 L149,390 L149,391.991711 C152.332627,392.111988 154.338939,390.627084 156.033142,388.976929 C156.033142,392.899238 152.539567,395.988634 149,396.023206 L149,398 L144,394 L144,394 Z M144,394" id="Shape"></path>
        </g>
    </g>
</svg>