<?xml version="1.0" encoding="UTF-8" standalone="no"?>
<svg width="16px" height="16px" viewBox="0 0 16 16" version="1.1" xmlns="http://www.w3.org/2000/svg" xmlns:xlink="http://www.w3.org/1999/xlink" xmlns:sketch="http://www.bohemiancoding.com/sketch/ns">
    <title>154 ShoppingCart</title>
    <description>Created with Sketch (http://www.bohemiancoding.com/sketch)</description>
    <defs></defs>
    <g id="Icons with numbers" stroke="none" stroke-width="1" fill="none" fill-rule="evenodd">
        <g id="Group" transform="translate(-432.000000, -384.000000)" fill="#000000">
            <path d="M432,388 L444.0354,388 L445,388 L445,386 L448,386 L448,386.996277 L446,387 L446,388 L446,388.034119 L445.994314,388.039805 L445,395 L434,395 Z M437,398 C436.447715,398 436,397.552285 436,397 C436,396.447715 436.447715,396 437,396 C437.552285,396 438,396.447715 438,397 C438,397.552285 437.552285,398 437,398 Z M442,398 C441.447715,398 441,397.552285 441,397 C441,396.447715 441.447715,396 442,396 C442.552285,396 443,396.447715 443,397 C443,397.552285 442.552285,398 442,398 Z M442,398" id="Rectangle 194"></path>
        </g>
    </g>
</svg>