<?xml version="1.0" encoding="UTF-8" standalone="no"?>
<svg width="16px" height="16px" viewBox="0 0 16 16" version="1.1" xmlns="http://www.w3.org/2000/svg" xmlns:xlink="http://www.w3.org/1999/xlink" xmlns:sketch="http://www.bohemiancoding.com/sketch/ns">
    <title>172 CurvedArrowRight</title>
    <description>Created with Sketch (http://www.bohemiancoding.com/sketch)</description>
    <defs></defs>
    <g id="Icons with numbers" stroke="none" stroke-width="1" fill="none" fill-rule="evenodd">
        <g id="Group" transform="translate(-432.000000, -432.000000)" fill="#000000">
            <path d="M438.972188,442 L438.972188,433 L447.922128,433 L444.938815,436 C446.430471,437 448.419347,439.5 447.922128,442 C447.424909,445 445.436034,447 440.961064,447 C435.491657,447 434,442.5 434,442 C436.983313,444.5 438.972188,445 440.961064,445 C442.949939,445 443.944377,443.5 443.944377,442 C443.944377,441 443.447158,440 441.955502,439 L438.972188,442 L438.972188,442 Z M438.972188,442" id="Shape copy" transform="translate(441.000000, 440.000000) scale(-1, 1) translate(-441.000000, -440.000000) "></path>
        </g>
    </g>
</svg>