<?xml version="1.0" encoding="UTF-8" standalone="no"?>
<svg width="16px" height="16px" viewBox="0 0 16 16" version="1.1" xmlns="http://www.w3.org/2000/svg" xmlns:xlink="http://www.w3.org/1999/xlink" xmlns:sketch="http://www.bohemiancoding.com/sketch/ns">
    <title>174 Nuclear</title>
    <description>Created with Sketch (http://www.bohemiancoding.com/sketch)</description>
    <defs></defs>
    <g id="Icons with numbers" stroke="none" stroke-width="1" fill="none" fill-rule="evenodd">
        <g id="Group" transform="translate(-528.000000, -432.000000)" fill="#000000">
            <path d="M532.65288,435.00717 L534.373455,437.478788 C534.842019,437.175862 535.400472,437 536,437 C536.67522,437 537.29834,437.223072 537.799624,437.599498 L539.604229,435.00717 C538.609671,434.370935 537.414346,434 536.128515,434 C534.842665,434.00003 533.647397,434.370961 532.65288,435.00717 Z M542,440 L539,440 C539,440.981836 538.528336,441.853509 537.799208,442.400815 L539.701932,445 C541.101752,443.833283 542,442.027225 542,440 Z M532.298068,445 L534.200792,442.400815 C533.471664,441.853509 533,440.981836 533,440 L530,440 C530,442.027225 530.898248,443.833283 532.298068,445 Z M536,448 C531.581722,448 528,444.418278 528,440 C528,435.581722 531.581722,432 536,432 C540.418278,432 544,435.581722 544,440 C544,444.418278 540.418278,448 536,448 Z M536,442 C537.10457,442 538,441.10457 538,440 C538,438.89543 537.10457,438 536,438 C534.89543,438 534,438.89543 534,440 C534,441.10457 534.89543,442 536,442 Z M536,442" id="Oval 188"></path>
        </g>
    </g>
</svg>