<?xml version="1.0" encoding="UTF-8" standalone="no"?>
<svg width="32px" height="32px" viewBox="0 0 32 32" version="1.1" xmlns="http://www.w3.org/2000/svg" xmlns:xlink="http://www.w3.org/1999/xlink" xmlns:sketch="http://www.bohemiancoding.com/sketch/ns">
    <title>18 Cloud Snowflake Moon</title>
    <description>Created with Sketch (http://www.bohemiancoding.com/sketch)</description>
    <defs></defs>
    <g id="Icons new Arranged Names" stroke="none" stroke-width="1" fill="none" fill-rule="evenodd">
        <g id="18 Cloud Snowflake Moon" fill="#000000">
            <path d="M17.0057833,6.52079393 C18.0662279,5.57487307 19.464726,5 20.9974769,5 C24.3107874,5 26.996756,7.68629134 26.996756,11 C26.996756,11.3144466 26.9725699,11.6232436 26.9259567,11.9246317 C27.1901042,12.3249789 27.4111633,12.7562697 27.5825281,13.2118972 C30.1260839,13.9074542 31.9961552,16.2353674 31.9961552,19 C31.9961552,22.3069658 29.3101079,25 25.9967005,25 L21.714835,25 C21.8958232,24.7020201 22,24.3516373 22,23.9752143 C22,22.9339695 21.1960832,22.0809033 20.1670738,22.0054287 C20.2295001,21.4327672 20.0413918,20.8385843 19.5994949,20.3966875 C19.1604647,19.9576572 18.5666262,19.7680587 17.9931196,19.8294792 C17.9085884,18.8049558 17.055372,18 16,18 C14.9522574,18 14.0926882,18.801475 14.0070166,19.8280728 C13.4377255,19.7710646 12.8497815,19.9611196 12.4142136,20.3966875 C11.9725618,20.8383392 11.7844172,21.4321082 11.8465311,22.0044759 C10.8151216,22.0730918 10,22.922279 10,23.9752143 C10,24.3504376 10.1043963,24.7012241 10.2861071,25 L5.99945475,25 C2.68665511,25 0,22.3137085 0,19 C0,16.7828376 1.20739478,14.8416411 3.00175283,13.8029948 C3.10653288,8.92340284 7.09442042,5 11.9985582,5 C13.8518587,5 15.5743071,5.56031113 17.0057833,6.52079393 Z M16,29 C15.4438648,29 15,28.5543453 15,28.0046024 L15,26.4142136 L14.5836864,26.8305271 C14.1990247,27.2151889 13.5620972,27.2189514 13.1715729,26.8284271 C12.7783259,26.4351802 12.7801084,25.8056781 13.1694729,25.4163136 L13.5857864,25 L11.9953976,25 C11.4556644,25 11,24.5522847 11,24 C11,23.4438648 11.4456547,23 11.9953976,23 L13.5857864,23 L13.1694729,22.5836864 C12.7848111,22.1990247 12.7810486,21.5620972 13.1715729,21.1715729 C13.5648198,20.7783259 14.1943219,20.7801084 14.5836864,21.1694729 L15,21.5857864 L15,19.9953976 C15,19.4556644 15.4477153,19 16,19 C16.5561352,19 17,19.4456547 17,19.9953976 L17,21.5857864 L17.4163136,21.1694729 C17.8009753,20.7848111 18.4379028,20.7810486 18.8284271,21.1715729 C19.2216741,21.5648198 19.2198916,22.1943219 18.8305271,22.5836864 L18.4142136,23 L20.0046024,23 C20.5443356,23 21,23.4477153 21,24 C21,24.5561352 20.5543453,25 20.0046024,25 L18.4142136,25 L18.8305271,25.4163136 C19.2151889,25.8009753 19.2189514,26.4379028 18.8284271,26.8284271 C18.4351802,27.2216741 17.8056781,27.2198916 17.4163136,26.8305271 L17,26.4142136 L17,28.0046024 C17,28.5443356 16.5522847,29 16,29 Z M28.0002403,11.0038452 C28.0002403,10.4477769 28.4521501,10.0039654 29.0096092,10.0039654 L30.9908714,10.0039654 C31.5568871,10.0039654 32.0002403,10.4516268 32.0002403,11.0038452 C32.0002403,11.5599136 31.5483304,12.0037251 30.9908714,12.0037251 L29.0096092,12.0037251 C28.4435935,12.0037251 28.0002403,11.5560636 28.0002403,11.0038452 Z M24.8528968,9.93217981 C24.3857725,8.24146901 22.8365877,7 20.9974769,7 C20.0770464,7 19.2292354,7.31095826 18.5533433,7.83356344 C18.9656698,8.27179612 19.3345518,8.75138006 19.6531083,9.26543329 C20.2377746,9.09270496 20.8567708,9 21.4974168,9 C22.7251737,9 23.8734167,9.3404799 24.8528968,9.93217981 Z M20.9974769,4 C20.4414085,4 19.997597,3.54809015 19.997597,2.9906311 L19.997597,1.0093689 C19.997597,0.443353176 20.4452585,0 20.9974769,0 C21.5535452,0 21.9973567,0.451909848 21.9973567,1.0093689 L21.9973567,2.9906311 C21.9973567,3.55664682 21.5496953,4 20.9974769,4 Z M25.9491784,6.05137877 C25.5559787,5.65817906 25.5617051,5.02480843 25.9558881,4.63062535 L27.3568521,3.22966141 C27.7570856,2.82942786 28.3871281,2.83247427 28.7776055,3.22295164 C29.1708052,3.61615135 29.1650788,4.24952199 28.7708957,4.64370506 L27.3699318,6.044669 C26.9696982,6.44490256 26.3396558,6.44185614 25.9491784,6.05137877 Z M15,24 C15,24.5522847 15.4438648,25 16,25 C16.5522847,25 17,24.5561352 17,24 C17,23.4477153 16.5561352,23 16,23 C15.4477153,23 15,23.4438648 15,24 Z M15,24" id="Rectangle 1 copy 2"></path>
        </g>
    </g>
</svg>