<?xml version="1.0" encoding="UTF-8" standalone="no"?>
<svg width="16px" height="16px" viewBox="0 0 16 16" version="1.1" xmlns="http://www.w3.org/2000/svg" xmlns:xlink="http://www.w3.org/1999/xlink" xmlns:sketch="http://www.bohemiancoding.com/sketch/ns">
    <title>186 FormRoundedBorder</title>
    <description>Created with Sketch (http://www.bohemiancoding.com/sketch)</description>
    <defs></defs>
    <g id="Icons with numbers" stroke="none" stroke-width="1" fill="none" fill-rule="evenodd">
        <g id="Group" transform="translate(-240.000000, -480.000000)" fill="#000000">
            <path d="M243.996203,480 L252.003797,480 C254.21117,480 256,481.789161 256,483.996203 L256,492.003797 C256,494.21117 254.210839,496 252.003797,496 L243.996203,496 C241.78883,496 240,494.210839 240,492.003797 L240,483.996203 C240,481.78883 241.789161,480 243.996203,480 Z M244.003351,481 C242.344646,481 241,482.342379 241,484.003351 L241,491.996649 C241,493.655354 242.342379,495 244.003351,495 L251.996649,495 C253.655354,495 255,493.657621 255,491.996649 L255,484.003351 C255,482.344646 253.657621,481 251.996649,481 Z M244.003351,481" id="Rectangle 153 copy"></path>
        </g>
    </g>
</svg>