<?xml version="1.0" encoding="UTF-8" standalone="no"?>
<svg width="32px" height="32px" viewBox="0 0 32 32" version="1.1" xmlns="http://www.w3.org/2000/svg" xmlns:xlink="http://www.w3.org/1999/xlink" xmlns:sketch="http://www.bohemiancoding.com/sketch/ns">
    <title>19 Cloud Snowflake Moon</title>
    <description>Created with Sketch (http://www.bohemiancoding.com/sketch)</description>
    <defs></defs>
    <g id="Icons new Arranged Names" stroke="none" stroke-width="1" fill="none" fill-rule="evenodd">
        <g id="19 Cloud Snowflake Moon" fill="#000000">
            <path d="M23.9662244,9.48419048 C24.2978034,9.2966687 24.5999527,9.06318222 24.8640187,8.79238493 C22.0769195,8.06980894 20.015993,5.54442126 20.0000926,2.53507514 C18.8044388,3.22668076 18,4.51939695 18,6 C18,6.5723508 18.1202099,7.11662505 18.3367596,7.60895254 C18.8258889,8.09395272 19.2596418,8.63471239 19.627691,9.22090692 C19.6448204,9.23354437 19.6620541,9.24604843 19.6793908,9.25841759 C20.2570807,9.09019587 20.8680072,9 21.5,9 C22.3729592,9 23.2057252,9.17208789 23.9662244,9.48419048 Z M16,29 C15.4438648,29 15,28.5543453 15,28.0046024 L15,26.4142136 L14.5836864,26.8305271 C14.1990247,27.2151889 13.5620972,27.2189514 13.1715729,26.8284271 C12.7783259,26.4351802 12.7801084,25.8056781 13.1694729,25.4163136 L13.5857864,25 L11.9953976,25 C11.4556644,25 11,24.5522847 11,24 C11,23.4438648 11.4456547,23 11.9953976,23 L13.5857864,23 L13.1694729,22.5836864 C12.7848111,22.1990247 12.7810486,21.5620972 13.1715729,21.1715729 C13.5648198,20.7783259 14.1943219,20.7801084 14.5836864,21.1694729 L15,21.5857864 L15,19.9953976 C15,19.4556644 15.4477153,19 16,19 C16.5561352,19 17,19.4456547 17,19.9953976 L17,21.5857864 L17.4163136,21.1694729 C17.8009753,20.7848111 18.4379028,20.7810486 18.8284271,21.1715729 C19.2216741,21.5648198 19.2198916,22.1943219 18.8305271,22.5836864 L18.4142136,23 L20.0046024,23 C20.5443356,23 21,23.4477153 21,24 C21,24.5561352 20.5543453,25 20.0046024,25 L18.4142136,25 L18.8305271,25.4163136 C19.2151889,25.8009753 19.2189514,26.4379028 18.8284271,26.8284271 C18.4351802,27.2216741 17.8056781,27.2198916 17.4163136,26.8305271 L17,26.4142136 L17,28.0046024 C17,28.5443356 16.5522847,29 16,29 Z M0,19 C0,16.7828376 1.20753986,14.8416411 3.00211353,13.8029948 C3.10690617,8.92340284 7.0952729,5 12,5 C13.4369895,5 14.7953208,5.33677542 16.0003374,5.93570057 C16.0290699,3.19918941 17.8897511,0.901825557 20.4141963,0.211793892 C20.9193401,0.0737178024 21.4510612,0 22,0 C22.2466982,0 22.489919,0.0148886931 22.7288129,0.0438165372 C22.2678947,0.750059906 22,1.59374485 22,2.5 C22,4.9852815 24.0147185,7 26.5,7 C27.0081591,7 27.4966455,6.9157708 27.9522593,6.76051208 C27.7554765,8.31622689 26.9629956,9.68624951 25.8105713,10.6348253 C26.5949475,11.3303014 27.2099392,12.2125601 27.5858427,13.2118973 C30.129704,13.9074543 32,16.2353674 32,19 C32,22.3069658 29.3136299,25 25.9998243,25 L21.7148344,25 C21.8958259,24.702011 22,24.3516324 22,23.9752143 C22,22.9339695 21.1960832,22.0809033 20.1670738,22.0054287 C20.2295001,21.4327672 20.0413918,20.8385843 19.5994949,20.3966875 C19.1604647,19.9576572 18.5666262,19.7680587 17.9931196,19.8294792 C17.9085884,18.8049558 17.055372,18 16,18 C14.9522574,18 14.0926882,18.801475 14.0070166,19.8280728 C13.4377255,19.7710646 12.8497815,19.9611196 12.4142136,20.3966875 C11.9725618,20.8383392 11.7844172,21.4321082 11.8465311,22.0044759 C10.8151216,22.0730918 10,22.922279 10,23.9752143 C10,24.3504397 10.1043974,24.7012279 10.2861072,25 L6.00017566,25 C2.68697795,25 0,22.3137085 0,19 Z M15,24 C15,24.5522847 15.4438648,25 16,25 C16.5522847,25 17,24.5561352 17,24 C17,23.4477153 16.5561352,23 16,23 C15.4477153,23 15,23.4438648 15,24 Z M15,24" id="Oval 20 copy 5"></path>
        </g>
    </g>
</svg>