<?xml version="1.0" encoding="UTF-8" standalone="no"?>
<svg width="16px" height="16px" viewBox="0 0 16 16" version="1.1" xmlns="http://www.w3.org/2000/svg" xmlns:xlink="http://www.w3.org/1999/xlink" xmlns:sketch="http://www.bohemiancoding.com/sketch/ns">
    <title>204 CircledNext</title>
    <description>Created with Sketch (http://www.bohemiancoding.com/sketch)</description>
    <defs></defs>
    <g id="Icons with numbers" stroke="none" stroke-width="1" fill="none" fill-rule="evenodd">
        <g id="Group" transform="translate(-240.000000, -528.000000)" fill="#000000">
            <path d="M248,544 C243.581722,544 240,540.418278 240,536 C240,531.581722 243.581722,528 248,528 C252.418278,528 256,531.581722 256,536 C256,540.418278 252.418278,544 248,544 L248,544 Z M251,532 L249,532 L249,536 L249,540 L251,540 L251,532 L251,532 Z M249,536 L245,532 L245,536 L245,540 L249,536 L249,536 Z M249,536" id="Shape copy 2"></path>
        </g>
    </g>
</svg>