<?xml version="1.0" encoding="UTF-8" standalone="no"?>
<svg width="32px" height="32px" viewBox="0 0 32 32" version="1.1" xmlns="http://www.w3.org/2000/svg" xmlns:xlink="http://www.w3.org/1999/xlink" xmlns:sketch="http://www.bohemiancoding.com/sketch/ns">
    <title>46 Clouds</title>
    <description>Created with Sketch (http://www.bohemiancoding.com/sketch)</description>
    <defs></defs>
    <g id="Icons new Arranged Names" stroke="none" stroke-width="1" fill="none" fill-rule="evenodd">
        <g id="46 Clouds" fill="#000000">
            <path d="M25.9725356,15 C25.7238035,12.7500155 23.8162709,11 21.5,11 C20.4427534,11 19.4706636,11.3645993 18.7026063,11.974922 C17.8340685,9.0963276 15.1618462,7 12,7 C8.13400656,7 5,10.1340066 5,14 C5,14.3757911 5.0296122,14.7446659 5.08663046,15.1044183 C3.31778819,15.5175755 2,17.1080834 2,19 C2,20.3448668 2.66491175,21.5347173 3.68214022,22.2598756 C3.18165462,22.7045808 2.77093202,23.2481974 2.48064194,23.859725 C0.977637199,22.7693352 0,20.9988081 0,19 C0,16.7828376 1.20753986,14.8416411 3.00211353,13.8029948 C3.10690617,8.92340284 7.0952729,5 12,5 C15.2334975,5 18.0687212,6.7052115 19.6554697,9.26543304 C20.2402063,9.09270499 20.8592769,9 21.5,9 C24.2845531,9 26.6601501,10.7509485 27.5858427,13.2118973 C30.129704,13.9074543 32,16.2353674 32,19 C32,22.3069658 29.3136299,25 25.9998243,25 L21.9000935,25 C21.7502706,24.2611099 21.4376939,23.5813997 21.0014372,23 L26.0031611,23 C28.2105543,23 30,21.2046438 30,19 C30,16.790861 28.2058797,15 26.0031611,15 Z M4,26 C4,24.6943341 4.84015169,23.5800739 6.01198335,23.1690695 C6.18139691,20.838306 8.12601864,19 10.5,19 C12.1403805,19 13.5757601,19.8777127 14.3621233,21.1891227 C14.7188665,21.0665443 15.1016621,21 15.5,21 C17.1507013,21 18.534503,22.1427327 18.9034788,23.6802721 C19.574624,24.2304672 20,25.0653156 20,26 C20,27.6534829 18.652611,29 16.9905224,29 L7.00947762,29 C5.33663106,29 4,27.6568542 4,26 Z M21.5,1 C23.1403805,1 24.5757601,1.87771272 25.3621233,3.18912273 C25.7188665,3.0665443 26.1016621,3 26.5,3 C28.1507013,3 29.534503,4.14273274 29.9034788,5.68027207 C30.574624,6.23046723 31,7.06531556 31,8 C31,9.42295239 30.0021291,10.6185672 28.664563,10.9242954 C27.1542221,8.56433989 24.5097967,7 21.5,7 C21.1721814,7 20.8486971,7.0185577 20.5305405,7.05467982 C19.6078343,5.92274169 18.4643215,4.97792353 17.1656813,4.28591786 C17.6955263,2.39039742 19.4353907,1 21.5,1 Z M21.5,1" id="Rectangle 1 copy 2"></path>
        </g>
    </g>
</svg>