<?xml version="1.0" encoding="UTF-8" standalone="no"?>
<svg width="32px" height="32px" viewBox="0 0 32 32" version="1.1" xmlns="http://www.w3.org/2000/svg" xmlns:xlink="http://www.w3.org/1999/xlink" xmlns:sketch="http://www.bohemiancoding.com/sketch/ns">
    <title>71 Crescent</title>
    <description>Created with Sketch (http://www.bohemiancoding.com/sketch)</description>
    <defs></defs>
    <g id="Icons new Arranged Names" stroke="none" stroke-width="1" fill="none" fill-rule="evenodd">
        <g id="71 Crescent" fill="#000000">
            <path d="M16,20 C16.3453,20 16.6803809,19.9562469 17.0000012,19.8739822 C15.2747721,19.429939 14,17.8638391 14,16 C14,14.1361609 15.2747721,12.570061 17.0000012,12.1260178 C16.6803809,12.0437531 16.3453,12 16,12 C13.7908609,12 12,13.7908609 12,16 C12,18.2091391 13.7908609,20 16,20 Z M16,22 C12.6862913,22 10,19.3137087 10,16 C10,12.6862913 12.6862913,10 16,10 C19.3137087,10 22,12.6862913 22,16 C22,19.3137087 19.3137087,22 16,22 Z M16,22" id="Oval 20 copy 2"></path>
        </g>
    </g>
</svg>