<?xml version="1.0" encoding="UTF-8" standalone="no"?>
<svg width="32px" height="32px" viewBox="0 0 32 32" version="1.1" xmlns="http://www.w3.org/2000/svg" xmlns:xlink="http://www.w3.org/1999/xlink" xmlns:sketch="http://www.bohemiancoding.com/sketch/ns">
    <title>103 Moonrise</title>
    <description>Created with Sketch (http://www.bohemiancoding.com/sketch)</description>
    <defs></defs>
    <g id="Icons new Arranged Names Color" stroke="none" stroke-width="1" fill="none" fill-rule="evenodd">
        <g id="103 Moonrise" fill="#FCFF73">
            <path d="M17.0581843,15 C15.2441005,13.8544958 14.0361218,11.8362817 14.023963,9.53507514 C12.8283091,10.2266808 12.0238703,11.519397 12.0238703,13 C12.0238703,13.7285733 12.2186584,14.4116514 12.5589991,15 L10.3652817,15 C10.1441796,14.3744471 10.0238703,13.7012734 10.0238703,13 C10.0238703,10.2352302 11.8938738,7.90722335 14.4380666,7.21179389 C14.9432104,7.0737178 15.4749315,7 16.0238703,7 C16.2705686,7 16.5137894,7.01488869 16.7526832,7.04381654 C16.2917651,7.75005991 16.0238703,8.59374485 16.0238703,9.5 C16.0238703,11.9852815 18.0385888,14 20.5238703,14 C21.0320295,14 21.5205158,13.9157708 21.9761297,13.7605121 C21.9218754,14.1894326 21.8223397,14.6042378 21.6824589,15 Z M10,18 C10,17.4438648 10.4488226,17 11.0024733,17 L20.9975267,17 C21.544239,17 22,17.4477153 22,18 C22,18.5561352 21.5511774,19 20.9975267,19 L11.0024733,19 C10.455761,19 10,18.5522847 10,18 Z M16,20 L19,24 L13,24 Z M16,20" id="Oval 20 copy 3"></path>
        </g>
    </g>
</svg>