<?xml version="1.0" encoding="UTF-8" standalone="no"?>
<svg width="32px" height="32px" viewBox="0 0 32 32" version="1.1" xmlns="http://www.w3.org/2000/svg" xmlns:xlink="http://www.w3.org/1999/xlink" xmlns:sketch="http://www.bohemiancoding.com/sketch/ns">
    <title>11 Cloud Lightning Sun</title>
    <description>Created with Sketch (http://www.bohemiancoding.com/sketch)</description>
    <defs></defs>
    <g id="Icons new Arranged Names Color" stroke="none" stroke-width="1" fill="none" fill-rule="evenodd">
        <g id="11 Cloud Lightning Sun">
            <path d="M20.9961548,5 C24.3098634,5 26.9961548,7.68629134 26.9961548,11 C26.9961548,11.775963 26.8488535,12.517522 26.5806878,13.19824 C25.6513549,10.744473 23.2793993,9 20.5,9 C19.859277,9 19.2402065,9.09270496 18.6554699,9.26543329 C18.1030365,8.37408091 17.3992735,7.58636556 16.5800598,6.938166 C17.6765907,5.74661503 19.249182,5 20.9961548,5 Z M29.0093689,10.0038452 L30.9906311,10.0038452 C31.5566468,10.0038452 32,10.4515605 32,11.0038452 C32,11.5599804 31.5480902,12.0038452 30.9906311,12.0038452 L29.0093689,12.0038452 C28.4433532,12.0038452 28,11.55613 28,11.0038452 C28,10.44771 28.4519098,10.0038452 29.0093689,10.0038452 Z M19.9961548,2.9906311 L19.9961548,1.0093689 C19.9961548,0.443353176 20.44387,0 20.9961548,0 C21.55229,0 21.9961548,0.451909848 21.9961548,1.0093689 L21.9961548,2.9906311 C21.9961548,3.55664682 21.5484395,4 20.9961548,4 C20.4400196,4 19.9961548,3.54809015 19.9961548,2.9906311 Z M28.7704235,4.64379002 L27.3694596,6.04475396 C26.969226,6.44498751 26.3391455,6.44190306 25.9486212,6.05137877 C25.5553743,5.65813181 25.561063,5.02472347 25.955246,4.6305404 L27.35621,3.22957645 C27.7564435,2.8293429 28.3865241,2.83242735 28.7770484,3.22295164 C29.1702953,3.6161986 29.1646066,4.24960694 28.7704235,4.64379002 Z M28.7704235,4.64379002" id="Rectangle 1 copy 6" fill="#FAFF00"></path>
            <path d="M0,19 C0,16.7828376 1.20753986,14.8416411 3.00211353,13.8029948 C3.10690617,8.92340284 7.0952729,5 12,5 C15.2334975,5 18.0687212,6.7052115 19.6554697,9.26543304 C20.2402063,9.09270499 20.8592769,9 21.5,9 C24.2845531,9 26.6601501,10.7509485 27.5858427,13.2118973 C30.129704,13.9074543 32,16.2353674 32,19 C32,22.3069658 29.3136299,25 25.9998243,25 L21,25 L24,22 L19,22 L22,16 L13,16 L9.72727273,25 L6.00017566,25 C2.68697795,25 0,22.3137085 0,19 Z M0,19" id="Rectangle 1 copy 5" fill="#C6C6C6"></path>
            <path d="M14.7142857,18 L19,18 L16.5510204,23 L20,23 L13,30 L14.4285714,25 L12,25 Z M14.7142857,18" id="Rectangle 297 copy 2" fill="#FAFF00"></path>
        </g>
    </g>
</svg>