<?xml version="1.0" encoding="UTF-8" standalone="no"?>
<svg width="32px" height="32px" viewBox="0 0 32 32" version="1.1" xmlns="http://www.w3.org/2000/svg" xmlns:xlink="http://www.w3.org/1999/xlink" xmlns:sketch="http://www.bohemiancoding.com/sketch/ns">
    <title>24 Cloud Fog</title>
    <description>Created with Sketch (http://www.bohemiancoding.com/sketch)</description>
    <defs></defs>
    <g id="Icons new Arranged Names Color" stroke="none" stroke-width="1" fill="none" fill-rule="evenodd">
        <g id="24 Cloud Fog" fill="#C6C6C6">
            <path d="M6.34266546,7 C7.88839993,5.74919694 9.85670775,5 12,5 C14.1432973,5 16.1116093,5.74920044 17.6573345,7 Z M0,19 C0,18.2991615 0.120654163,17.6258969 0.342363197,17 L31.6585144,17 C31.8796618,17.6255636 32,18.2987322 32,19 Z M31.9167576,20 C31.7960107,20.7175221 31.5475651,21.3923098 31.195553,22 L0.802847203,22 C0.45143886,21.3926178 0.203448795,20.7179242 0.0829781634,20 Z M30.4697577,23 C29.3711646,24.2266896 27.7755791,25 25.9998243,25 L6.00017566,25 C4.22344673,25 2.62680151,24.2274959 1.52803983,23 Z M0.804451352,16 C1.26924154,15.197621 1.91458537,14.5122471 2.68490751,14 L29.3174489,14 C30.0875815,14.5120271 30.7326957,15.1972235 31.197151,16 Z M3.05492872,13 C3.13158669,12.3065377 3.287033,11.6368191 3.51211611,11 L26.190428,11 C26.7426917,11.575486 27.1900701,12.2523945 27.5018367,13 Z M3.93551768,10 C4.29735894,9.27188724 4.75489875,8.59973604 5.2916803,8 L18.7083197,8 C19.0594789,8.39234414 19.3767367,8.81569686 19.6554697,9.26543304 C20.2402063,9.09270499 20.8592769,9 21.5,9 C22.774083,9 23.9625489,9.36657077 24.9656861,10 Z M3.93551768,10" id="Rectangle 1 copy 4"></path>
        </g>
    </g>
</svg>