<?xml version="1.0" encoding="UTF-8" standalone="no"?>
<svg width="32px" height="32px" viewBox="0 0 32 32" version="1.1" xmlns="http://www.w3.org/2000/svg" xmlns:xlink="http://www.w3.org/1999/xlink" xmlns:sketch="http://www.bohemiancoding.com/sketch/ns">
    <title>31 Cloud Rain Sun</title>
    <description>Created with Sketch (http://www.bohemiancoding.com/sketch)</description>
    <defs></defs>
    <g id="Icons new Arranged Names Color" stroke="none" stroke-width="1" fill="none" fill-rule="evenodd">
        <g id="31 Cloud Rain Sun">
            <path d="M0.00384521484,19 C0.00384521484,16.7828376 1.21138508,14.8416411 3.00595874,13.8029948 C3.11075139,8.92340284 7.09911812,5 12.0038452,5 C15.2373427,5 18.0725664,6.7052115 19.659315,9.26543304 C20.2440515,9.09270499 20.8631221,9 21.5038452,9 C24.2883984,9 26.6639953,10.7509485 27.5896879,13.2118973 C30.1335493,13.9074543 32.0038452,16.2353674 32.0038452,19 C32.0038452,22.3069658 29.3174751,25 26.0036696,25 L6.00402088,25 C2.69082316,25 0.00384521484,22.3137085 0.00384521484,19 Z M25.9763808,15 C25.7276488,12.7500155 23.8201161,11 21.5038452,11 C20.4465986,11 19.4745088,11.3645993 18.7064515,11.974922 C17.8379137,9.0963276 15.1656914,7 12.0038452,7 C8.13785177,7 5.00384521,10.1340066 5.00384521,14 C5.00384521,14.3757911 5.03345741,14.7446659 5.09047568,15.1044183 C3.3216334,15.5175755 2.00384521,17.1080834 2.00384521,19 C2.00384521,21.209139 3.79796547,23 6.00068408,23 L26.0070063,23 C28.2143995,23 30.0038452,21.2046438 30.0038452,19 C30.0038452,16.790861 28.209725,15 26.0070063,15 Z M25.9763808,15" id="Oval 20 copy 4" fill="#C6C6C6"></path>
            <path d="M24,30 C23.4438648,30 23,29.5480902 23,28.9906311 L23,27.0093689 C23,26.4433532 23.4477153,26 24,26 C24.5561352,26 25,26.4519098 25,27.0093689 L25,28.9906311 C25,29.5566468 24.5522847,30 24,30 Z M16,30 C15.4438648,30 15,29.5480902 15,28.9906311 L15,27.0093689 C15,26.4433532 15.4477153,26 16,26 C16.5561352,26 17,26.4519098 17,27.0093689 L17,28.9906311 C17,29.5566468 16.5522847,30 16,30 Z M12,32 C11.4438648,32 11,31.5480902 11,30.9906311 L11,29.0093689 C11,28.4433532 11.4477153,28 12,28 C12.5561352,28 13,28.4519098 13,29.0093689 L13,30.9906311 C13,31.5566468 12.5522847,32 12,32 Z M8,30 C7.44386482,30 7,29.5480902 7,28.9906311 L7,27.0093689 C7,26.4433532 7.44771525,26 8,26 C8.55613518,26 9,26.4519098 9,27.0093689 L9,28.9906311 C9,29.5566468 8.55228475,30 8,30 Z M20,32 C19.4438648,32 19,31.5480902 19,30.9906311 L19,29.0093689 C19,28.4433532 19.4477153,28 20,28 C20.5561352,28 21,28.4519098 21,29.0093689 L21,30.9906311 C21,31.5566468 20.5522847,32 20,32 Z M20,32" id="Rectangle 1 copy 6" fill="#006FD2"></path>
            <path d="M21,4 C20.4438648,4 20,3.54809015 20,2.9906311 L20,1.0093689 C20,0.443353176 20.4477153,0 21,0 C21.5561352,0 22,0.451909848 22,1.0093689 L22,2.9906311 C22,3.55664682 21.5522847,4 21,4 Z M25.9524664,6.05137877 C25.5592195,5.65813181 25.5649082,5.02472347 25.9590913,4.6305404 L27.3600552,3.22957645 C27.7602888,2.8293429 28.3903693,2.83242735 28.7808936,3.22295164 C29.1741405,3.6161986 29.1684518,4.24960694 28.7742688,4.64379002 L27.3733048,6.04475396 C26.9730713,6.44498751 26.3429907,6.44190306 25.9524664,6.05137877 Z M17.0078268,6.52079393 C18.0683988,5.57487307 19.467065,5 21,5 C24.3137087,5 27,7.68629134 27,11 C27,11.3144466 26.975811,11.6232436 26.9291922,11.9246316 C25.7664805,10.162615 23.769012,9 21.5,9 C20.8592769,9 20.2402063,9.09270499 19.6554697,9.26543304 C18.9782859,8.17279576 18.0737092,7.23588699 17.0078268,6.52079393 Z M28.0038452,11.0038452 C28.0038452,10.44771 28.4557551,10.0038452 29.0132141,10.0038452 L30.9944763,10.0038452 C31.560492,10.0038452 32.0038452,10.4515605 32.0038452,11.0038452 C32.0038452,11.5599804 31.5519354,12.0038452 30.9944763,12.0038452 L29.0132141,12.0038452 C28.4471984,12.0038452 28.0038452,11.55613 28.0038452,11.0038452 Z M28.0038452,11.0038452" id="Rectangle 1 copy 5" fill="#FAFF00"></path>
        </g>
    </g>
</svg>