<?xml version="1.0" encoding="UTF-8" standalone="no"?>
<svg width="32px" height="32px" viewBox="0 0 32 32" version="1.1" xmlns="http://www.w3.org/2000/svg" xmlns:xlink="http://www.w3.org/1999/xlink" xmlns:sketch="http://www.bohemiancoding.com/sketch/ns">
    <title>34 Cloud Snow Sun</title>
    <description>Created with Sketch (http://www.bohemiancoding.com/sketch)</description>
    <defs></defs>
    <g id="Icons new Arranged Names Color" stroke="none" stroke-width="1" fill="none" fill-rule="evenodd">
        <g id="34 Cloud Snow Sun">
            <path d="M-0.0398804545,19 C-0.0398804545,16.7828376 1.16765941,14.8416411 2.96223307,13.8029948 C3.06702572,8.92340284 7.05539245,5 11.9601195,5 C15.193617,5 18.0288407,6.7052115 19.6155893,9.26543304 C20.2003258,9.09270499 20.8193965,9 21.4601195,9 C24.2446727,9 26.6202696,10.7509485 27.5459622,13.2118973 C30.0898236,13.9074543 31.9601195,16.2353674 31.9601195,19 C31.9601195,22.3069658 29.2737494,25 25.9599439,25 L5.96029521,25 C2.64709749,25 -0.0398804545,22.3137085 -0.0398804545,19 Z M25.9326552,15 C25.6839231,12.7500155 23.7763904,11 21.4601195,11 C20.402873,11 19.4307832,11.3645993 18.6627258,11.974922 C17.7941881,9.0963276 15.1219657,7 11.9601195,7 C8.09412611,7 4.96011955,10.1340066 4.96011955,14 C4.96011955,14.3757911 4.98973175,14.7446659 5.04675001,15.1044183 C3.27790773,15.5175755 1.96011955,17.1080834 1.96011955,19 C1.96011955,21.209139 3.7542398,23 5.95695841,23 L25.9632807,23 C28.1706738,23 29.9601195,21.2046438 29.9601195,19 C29.9601195,16.790861 28.1659993,15 25.9632807,15 Z M25.9326552,15" id="Oval 20 copy 7" fill="#C6C6C6"></path>
            <path d="M7,28 C7,27.4438648 7.44771525,27 8,27 C8.55613518,27 9,27.4477153 9,28 C9,28.5561352 8.55228475,29 8,29 C7.44386482,29 7,28.5522847 7,28 Z M11,31 C11,30.4438648 11.4477153,30 12,30 C12.5561352,30 13,30.4477153 13,31 C13,31.5561352 12.5522847,32 12,32 C11.4438648,32 11,31.5522847 11,31 Z M19,31 C19,30.4438648 19.4477153,30 20,30 C20.5561352,30 21,30.4477153 21,31 C21,31.5561352 20.5522847,32 20,32 C19.4438648,32 19,31.5522847 19,31 Z M15,28 C15,27.4438648 15.4477153,27 16,27 C16.5561352,27 17,27.4477153 17,28 C17,28.5561352 16.5522847,29 16,29 C15.4438648,29 15,28.5522847 15,28 Z M23,28 C23,27.4438648 23.4477153,27 24,27 C24.5561352,27 25,27.4477153 25,28 C25,28.5561352 24.5522847,29 24,29 C23.4438648,29 23,28.5522847 23,28 Z M23,28" id="Rectangle 1 copy 5" fill="#797979"></path>
            <path d="M21,4 C20.4438648,4 20,3.54809015 20,2.9906311 L20,1.0093689 C20,0.443353176 20.4477153,0 21,0 C21.5561352,0 22,0.451909848 22,1.0093689 L22,2.9906311 C22,3.55664682 21.5522847,4 21,4 Z M25.9524664,6.05137877 C25.5592195,5.65813181 25.5649082,5.02472347 25.9590913,4.6305404 L27.3600552,3.22957645 C27.7602888,2.8293429 28.3903693,2.83242735 28.7808936,3.22295164 C29.1741405,3.6161986 29.1684518,4.24960694 28.7742688,4.64379002 L27.3733048,6.04475396 C26.9730713,6.44498751 26.3429907,6.44190306 25.9524664,6.05137877 Z M17.0078268,6.52079393 C18.0683988,5.57487307 19.467065,5 21,5 C24.3137087,5 27,7.68629134 27,11 C27,11.3144466 26.975811,11.6232436 26.9291922,11.9246316 C25.7664805,10.162615 23.769012,9 21.5,9 C20.8592769,9 20.2402063,9.09270499 19.6554697,9.26543304 C18.9782859,8.17279576 18.0737092,7.23588699 17.0078268,6.52079393 Z M28.0038452,11.0038452 C28.0038452,10.44771 28.4557551,10.0038452 29.0132141,10.0038452 L30.9944763,10.0038452 C31.560492,10.0038452 32.0038452,10.4515605 32.0038452,11.0038452 C32.0038452,11.5599804 31.5519354,12.0038452 30.9944763,12.0038452 L29.0132141,12.0038452 C28.4471984,12.0038452 28.0038452,11.55613 28.0038452,11.0038452 Z M28.0038452,11.0038452" id="Rectangle 1 copy 6" fill="#FAFF00"></path>
        </g>
    </g>
</svg>