<?xml version="1.0" encoding="UTF-8" standalone="no"?>
<svg width="32px" height="32px" viewBox="0 0 32 32" version="1.1" xmlns="http://www.w3.org/2000/svg" xmlns:xlink="http://www.w3.org/1999/xlink" xmlns:sketch="http://www.bohemiancoding.com/sketch/ns">
    <title>40 Cloud Raindrop</title>
    <description>Created with Sketch (http://www.bohemiancoding.com/sketch)</description>
    <defs></defs>
    <g id="Icons new Arranged Names Color" stroke="none" stroke-width="1" fill="none" fill-rule="evenodd">
        <g id="40 Cloud Raindrop">
            <path d="M21.4974168,11 C20.4402973,11 19.4683243,11.3645993 18.7003592,11.974922 C17.8319258,9.0963276 15.1600245,7 11.9985582,7 C8.13302927,7 4.99939926,10.1340066 4.99939926,14 C4.99939926,14.3757911 5.0290079,14.7446659 5.08601931,15.1044183 C3.31738956,15.5175755 1.9997597,17.1080834 1.9997597,19 C1.9997597,21.209139 3.79366439,23 5.99611836,23 L12.2714324,23 C11.8497824,23.6960196 11.4901822,24.3831742 11.2621295,25 L5.99945475,25 C2.68665511,25 3.55271368e-15,22.3137085 3.55271368e-15,19 C3.55271368e-15,16.7828376 1.20739478,14.8416411 3.00175283,13.8029948 C3.10653288,8.92340284 7.09442042,5 11.9985582,5 C15.2316672,5 18.0665503,6.7052115 19.6531082,9.26543304 C20.2377744,9.09270499 20.8567707,9 21.4974168,9 C24.2816354,9 26.6569469,10.7509485 27.5825283,13.2118973 C30.126084,13.9074543 31.9961552,16.2353674 31.9961552,19 C31.9961552,22.3069658 29.3101079,25 25.9967005,25 L20.7378705,25 C20.5098179,24.3831742 20.1502177,23.6960196 19.7285677,23 L26.0000369,23 C28.2071648,23 29.9963955,21.2046438 29.9963955,19 C29.9963955,16.790861 28.2024909,15 26.0000369,15 C25.7207129,12.7500155 23.8134094,11 21.4974168,11 Z M21.4974168,11" id="Rectangle 1 copy" fill="#C6C6C6"></path>
            <path d="M13,25.4736842 C13.0000001,23.7894737 16,20 16,20 C16,20 19,23.7894737 19,25.4736842 C19,26.86893 17.6568543,28 16,28 C14.3431457,28 13,26.86893 13,25.4736842 Z M13,25.4736842" id="Oval 207 copy 4" fill="#006FD1"></path>
        </g>
    </g>
</svg>