<?xml version="1.0" encoding="UTF-8" standalone="no"?>
<svg width="32px" height="32px" viewBox="0 0 32 32" version="1.1" xmlns="http://www.w3.org/2000/svg" xmlns:xlink="http://www.w3.org/1999/xlink" xmlns:sketch="http://www.bohemiancoding.com/sketch/ns">
    <title>61 Umbrella</title>
    <description>Created with Sketch (http://www.bohemiancoding.com/sketch)</description>
    <defs></defs>
    <g id="Icons new Arranged Names Color" stroke="none" stroke-width="1" fill="none" fill-rule="evenodd">
        <g id="61 Umbrella">
            <path d="M0.141396791,13.3352784 C0.0481414028,12.8984789 0,12.4527532 0,12 C0,6.68705264 6.62928553,2.34182621 15,2.01921374 L15,0.998245642 C15,0.455520749 15.4477153,0 16,0 C16.5561352,0 17,0.446929797 17,0.998245642 L17,2.01921374 C25.3707145,2.34182621 32,6.68705264 32,12 C32,12.4527532 31.9518586,12.8984789 31.8586032,13.3352785 C31.5160937,12.5574676 30.5894241,12 29.5,12 C28.1192881,12 27,12.8954304 27,14 C27,12.8954304 25.8807119,12 24.5,12 C23.1192881,12 22,12.8954304 22,14 C22,12.8954304 20.8807119,12 19.5,12 C18.1192881,12 17,12.8954304 17,14 L17,29 C17,30.6534829 15.6568542,32 14,32 C12.3465171,32 11,30.6568542 11,29 C11,28.9980309 11.0000019,28.9960622 11.0000057,28.9940941 C11.0000019,28.9929402 11,28.9917859 11,28.9906311 L11,27.0093689 C11,26.4433532 11.4477153,26 12,26 C12.5561352,26 13,26.4519098 13,27.0093689 L13,28 L13,28.9906311 L13,29.0001925 C13,29.5523709 13.4438648,30 14,30 C14.5522847,30 15,29.5562834 15,29.0001925 L15,26.1711759 L15,25.9998075 L15,14 C15,12.8954304 13.8807119,12 12.5,12 C11.1192881,12 10,12.8954304 10,14 C10,12.8954304 8.88071194,12 7.5,12 C6.11928806,12 5,12.8954304 5,14 C5,12.8954304 3.88071194,12 2.5,12 C1.41057591,12 0.483906337,12.5574676 0.141396791,13.3352784 Z M0.141396791,13.3352784" id="Oval 262" fill="#BDBDBD"></path>
            <path d="M5,13 C5,6.92486745 9.92486745,2 16,2 C22.0751325,2 27,6.92486745 27,13 C27,13.2434883 26.9920889,13.4851289 26.9765084,13.7246923 C26.8088355,12.7503971 25.7639582,12 24.5,12 C23.1192881,12 22,12.8954304 22,14 C22,12.8954304 20.8807119,12 19.5,12 C18.1192881,12 17,12.8954304 17,14 L15,14 C15,12.8954304 13.8807119,12 12.5,12 C11.1192881,12 10,12.8954304 10,14 C10,12.8954304 8.88071194,12 7.5,12 C6.23604179,12 5.19116449,12.7503971 5.02349164,13.7246923 C5.00791114,13.4851289 5,13.2434883 5,13 Z M5,13" id="Oval 254" fill="#FF0000"></path>
            <path d="M10,13 C10,6.92486745 12.6862913,2 16,2 C19.3137087,2 22,6.92486745 22,13 C22,13.2624415 21.9949869,13.5227365 21.9851267,13.7805799 C21.8485421,12.7792421 20.7880222,12 19.5,12 C18.1192881,12 17,12.8954304 17,14 C17,14.164836 17.0249264,14.3250144 17.0719302,14.4782609 L14.9280698,14.4782609 C14.9750736,14.3250144 15,14.164836 15,14 C15,12.8954304 13.8807119,12 12.5,12 C11.2119778,12 10.1514579,12.7792421 10.0148733,13.7805799 C10.0050131,13.5227365 10,13.2624415 10,13 Z M10,13" id="Oval 258" fill="#BDBDBD"></path>
        </g>
    </g>
</svg>