<?xml version="1.0" encoding="UTF-8" standalone="no"?>
<svg width="32px" height="32px" viewBox="0 0 32 32" version="1.1" xmlns="http://www.w3.org/2000/svg" xmlns:xlink="http://www.w3.org/1999/xlink" xmlns:sketch="http://www.bohemiancoding.com/sketch/ns">
    <title>88 Snowflake</title>
    <description>Created with Sketch (http://www.bohemiancoding.com/sketch)</description>
    <defs></defs>
    <g id="Icons new Arranged Names Color" stroke="none" stroke-width="1" fill="none" fill-rule="evenodd">
        <g id="88 Snowflake" fill="#A3A3A3">
            <path d="M16,21 C15.4438648,21 15,20.5543453 15,20.0046024 L15,18.4142136 L14.5836864,18.8305271 C14.1990247,19.2151889 13.5620972,19.2189514 13.1715729,18.8284271 C12.7783259,18.4351802 12.7801084,17.8056781 13.1694729,17.4163136 L13.5857864,17 L11.9953976,17 C11.4556644,17 11,16.5522847 11,16 C11,15.4438648 11.4456547,15 11.9953976,15 L13.5857864,15 L13.1694729,14.5836864 C12.7848111,14.1990247 12.7810486,13.5620972 13.1715729,13.1715729 C13.5648198,12.7783259 14.1943219,12.7801084 14.5836864,13.1694729 L15,13.5857864 L15,11.9953976 C15,11.4556644 15.4477153,11 16,11 C16.5561352,11 17,11.4456547 17,11.9953976 L17,13.5857864 L17.4163136,13.1694729 C17.8009753,12.7848111 18.4379028,12.7810486 18.8284271,13.1715729 C19.2216741,13.5648198 19.2198916,14.1943219 18.8305271,14.5836864 L18.4142136,15 L20.0046024,15 C20.5443356,15 21,15.4477153 21,16 C21,16.5561352 20.5543453,17 20.0046024,17 L18.4142136,17 L18.8305271,17.4163136 C19.2151889,17.8009753 19.2189514,18.4379028 18.8284271,18.8284271 C18.4351802,19.2216741 17.8056781,19.2198916 17.4163136,18.8305271 L17,18.4142136 L17,20.0046024 C17,20.5443356 16.5522847,21 16,21 Z M15,16 C15,16.5522847 15.4438648,17 16,17 C16.5522847,17 17,16.5561352 17,16 C17,15.4477153 16.5561352,15 16,15 C15.4477153,15 15,15.4438648 15,16 Z M15,16" id="Rectangle 3 copy 4"></path>
        </g>
    </g>
</svg>