<?xml version="1.0" encoding="UTF-8" standalone="no"?>
<svg width="32px" height="32px" viewBox="0 0 32 32" version="1.1" xmlns="http://www.w3.org/2000/svg" xmlns:xlink="http://www.w3.org/1999/xlink" xmlns:sketch="http://www.bohemiancoding.com/sketch/ns">
    <title>89 Compass</title>
    <description>Created with Sketch (http://www.bohemiancoding.com/sketch)</description>
    <defs></defs>
    <g id="Icons new Arranged Names Color" stroke="none" stroke-width="1" fill="none" fill-rule="evenodd">
        <g id="89 Compass">
            <path d="M8.22182541,23.7781746 C8.22182541,23.7781746 11.4038059,14.9393398 13.1715729,13.1715729 L14.5857864,14.5857864 C14.2235444,14.948415 14,15.4481017 14,16 C14,17.1045696 14.8954304,18 16,18 C16.5522848,18 17.0522848,17.7761424 17.4142136,17.4142136 L18.8284271,18.8284271 C17.0606603,20.5961942 8.22182541,23.7781746 8.22182541,23.7781746 Z M8.22182541,23.7781746" id="Triangle 25 copy 3" fill="#18A000"></path>
            <path d="M23.7989899,8.24264069 C23.7989899,8.24264069 20.6170093,17.0814754 18.8492424,18.8492424 L17.4142136,17.4142136 C17.7761424,17.0522848 18,16.5522848 18,16 C18,14.8954304 17.1045696,14 16,14 C15.4477152,14 14.9477152,14.2238576 14.5857864,14.5857864 L13.1923882,13.1923882 C14.9601551,11.4246212 23.7989899,8.24264069 23.7989899,8.24264069 Z M23.7989899,8.24264069" id="Triangle 25 copy 4" fill="#FF0000"></path>
            <path d="M16,30 C8.26801312,30 2,23.7319869 2,16 C2,8.26801312 8.26801312,2 16,2 C23.7319869,2 30,8.26801312 30,16 C30,23.7319869 23.7319869,30 16,30 Z M16,28 C22.6274173,28 28,22.6274173 28,16 C28,9.37258267 22.6274173,4 16,4 C9.37258267,4 4,9.37258267 4,16 C4,22.6274173 9.37258267,28 16,28 Z M16,28" id="Oval 278" fill="#404040"></path>
        </g>
    </g>
</svg>